<?xml version="1.0" standalone="no"?>
<!DOCTYPE svg PUBLIC "-//W3C//DTD SVG 1.1//EN" "http://www.w3.org/Graphics/SVG/1.1/DTD/svg11.dtd" >
<svg xmlns="http://www.w3.org/2000/svg" xmlns:xlink="http://www.w3.org/1999/xlink" version="1.1">
<metadata>
Created by FontForge 20150318 at Thu Apr  9 15:44:46 2015
 By uniteet7
Copyright (c) JT Types Ltd, 2006. All rights reserved.
</metadata>
<defs>
<font id="BlissProExtraLightItalic" horiz-adv-x="505" >
  <font-face 
    font-family="BlissProExtraLightItalic"
    font-weight="200"
    font-style="italic"
    font-stretch="normal"
    units-per-em="1000"
    panose-1="2 0 5 6 4 0 0 9 0 4"
    ascent="800"
    descent="-200"
    x-height="473"
    cap-height="659"
    bbox="-216 -241 1059 953"
    underline-thickness="50"
    underline-position="-50"
    slope="-12"
    unicode-range="U+0020-FB02"
  />
<missing-glyph horiz-adv-x="550" 
d="M50 0v659h450v-659h-450zM101 48h348v563h-348v-563zM231 222q-29 29 -29 60q0 25 20.5 48.5t44.5 38.5t44.5 37.5t20.5 47.5q0 21 -15.5 34t-39.5 13q-41 0 -85 -39l-27 35q49 51 117 51q48 0 77 -25.5t29 -65.5q0 -31 -20.5 -59t-45.5 -45t-45.5 -35.5t-20.5 -32.5
q0 -16 17 -35zM255 107q-16 0 -27 11t-11 28t11 28.5t27 11.5t26.5 -11.5t10.5 -28.5t-10.5 -28t-26.5 -11z" />
    <glyph glyph-name="fi" unicode="fi" horiz-adv-x="504" 
d="M-84 -193q85 81 128.5 211.5t82.5 408.5h-65l6 46h66l12 71q9 53 27 86q44 78 134 78q44 0 72 -16l-17 -43q-24 12 -55 12q-87 0 -107 -111l-13 -77h106l-19 -46h-94q-21 -139 -37 -223.5t-42.5 -174.5t-63.5 -151.5t-89 -108.5zM311 0l99 473h52l-99 -473h-52zM463 593
q-34 0 -34 33q0 20 13.5 33.5t31.5 13.5q34 0 34 -33q0 -20 -13.5 -33.5t-31.5 -13.5z" />
    <glyph glyph-name="fl" unicode="fl" horiz-adv-x="516" 
d="M-84 -193q85 81 128.5 211.5t82.5 408.5h-65l6 46h66l12 71q9 53 27 86q44 78 134 78q44 0 72 -16l-17 -43q-24 12 -55 12q-87 0 -107 -111l-13 -77h106l-19 -46h-94q-21 -139 -37 -223.5t-42.5 -174.5t-63.5 -151.5t-89 -108.5zM378 -5q-67 0 -67 63q0 14 6 43l127 607
h52l-127 -610q-4 -16 -4 -29q0 -26 27 -26q16 0 39 9v-46q-22 -11 -53 -11z" />
    <glyph glyph-name=".notdef" horiz-adv-x="550" 
d="M50 0v659h450v-659h-450zM101 48h348v563h-348v-563zM231 222q-29 29 -29 60q0 25 20.5 48.5t44.5 38.5t44.5 37.5t20.5 47.5q0 21 -15.5 34t-39.5 13q-41 0 -85 -39l-27 35q49 51 117 51q48 0 77 -25.5t29 -65.5q0 -31 -20.5 -59t-45.5 -45t-45.5 -35.5t-20.5 -32.5
q0 -16 17 -35zM255 107q-16 0 -27 11t-11 28t11 28.5t27 11.5t26.5 -11.5t10.5 -28.5t-10.5 -28t-26.5 -11z" />
    <glyph glyph-name=".null" horiz-adv-x="0" 
 />
    <glyph glyph-name="nonmarkingreturn" horiz-adv-x="333" 
 />
    <glyph glyph-name="space" unicode=" " horiz-adv-x="190" 
 />
    <glyph glyph-name="exclam" unicode="!" horiz-adv-x="267" 
d="M75 -7q-16 0 -26 11.5t-10 26.5q0 19 12 31.5t30 12.5q16 0 26 -11.5t10 -26.5q0 -19 -12 -31.5t-30 -12.5zM87 167q5 63 15 124t19.5 110t42.5 205l11 53h52l-11 -52q-8 -36 -23 -107.5t-19.5 -91.5t-14 -64t-15 -64.5t-14.5 -50.5t-19 -62h-24z" />
    <glyph glyph-name="quotedbl" unicode="&#x22;" horiz-adv-x="428" 
d="M180 496l-34 6l48 210l55 -12zM326 496l-34 6l48 210l55 -12z" />
    <glyph glyph-name="numbersign" unicode="#" horiz-adv-x="653" 
d="M101 0l58 185h-131l5 48h141l61 192h-129l5 48h139l58 185h52l-58 -185h139l58 185h52l-58 -185h131l-5 -48h-141l-61 -192h129l-5 -48h-139l-58 -185h-52l58 185h-139l-58 -185h-52zM226 233h139l61 192h-139z" />
    <glyph glyph-name="dollar" unicode="$" horiz-adv-x="513" 
d="M142 -78l21 96q-66 7 -111 37l19 45q52 -35 118 -35q60 0 100 30t40 98q0 35 -14.5 63t-36.5 45.5t-47 37.5t-47 38.5t-36.5 48t-14.5 65.5q0 68 45.5 110.5t118.5 47.5l18 89h50l-19 -91q48 -6 89 -26l-10 -48q-53 28 -115 28q-51 0 -87 -25.5t-36 -75.5q0 -36 20 -64
t49 -48.5t58 -43.5t49 -60.5t20 -87.5q0 -82 -48.5 -126.5t-122.5 -51.5l-20 -96h-50z" />
    <glyph glyph-name="percent" unicode="%" horiz-adv-x="850" 
d="M153 0l486 659h53l-486 -659h-53zM228 320q-53 0 -84 33t-31 96q0 93 46.5 154t119.5 61q53 0 84 -33t31 -96q0 -93 -46.5 -154t-119.5 -61zM232 363q49 0 81 48.5t32 117.5q0 92 -70 92q-49 0 -81 -48.5t-32 -117.5q0 -92 70 -92zM561 -10q-53 0 -84 33t-31 96
q0 93 46.5 154t119.5 61q53 0 84 -33t31 -96q0 -93 -46.5 -154t-119.5 -61zM565 33q49 0 81 48.5t32 117.5q0 92 -70 92q-49 0 -81 -48.5t-32 -117.5q0 -92 70 -92z" />
    <glyph glyph-name="ampersand" unicode="&#x26;" horiz-adv-x="757" 
d="M246 -10q-91 0 -149 49t-58 128q0 84 55 138.5t154 71.5v2q-42 20 -64.5 55t-22.5 76q0 71 53.5 112.5t135.5 41.5q87 0 157 -34l-16 -47q-66 33 -140 33q-57 0 -95.5 -24.5t-38.5 -78.5q0 -47 32.5 -79.5t85.5 -47.5l-10 -44q-102 0 -166 -45t-64 -117q0 -65 40 -103.5
t114 -38.5q109 0 193.5 74.5t114.5 217.5h-85l10 46h241l-19 -46h-95q-19 -89 -57.5 -157t-89 -106.5t-104.5 -57.5t-112 -19z" />
    <glyph glyph-name="quotesingle" unicode="'" horiz-adv-x="282" 
d="M180 496l-34 6l48 210l55 -12z" />
    <glyph glyph-name="parenleft" unicode="(" horiz-adv-x="320" 
d="M173 -232q-92 136 -92 367q0 159 60.5 328.5t183.5 305.5l35 -32q-107 -120 -166 -279t-59 -318q0 -120 19 -196t60 -152z" />
    <glyph glyph-name="parenright" unicode=")" horiz-adv-x="320" 
d="M-5 -232l-35 32q107 120 166 279t59 318q0 120 -19 196t-60 152l41 24q92 -136 92 -367q0 -159 -60.5 -328.5t-183.5 -305.5z" />
    <glyph glyph-name="asterisk" unicode="*" horiz-adv-x="480" 
d="M221 346l-44 18q7 16 72 144q-138 -28 -158 -30l-6 46q14 1 160 10q-94 108 -104 122l37 29q18 -23 50.5 -75t38.5 -61q49 143 54 153l43 -19q-11 -27 -73 -143q3 1 66 13t93 16l5 -47q-29 -4 -92.5 -6.5t-67.5 -2.5q4 -5 45 -51.5t59 -70.5l-39 -28q-16 22 -87 135
q-46 -138 -52 -152z" />
    <glyph glyph-name="plus" unicode="+" horiz-adv-x="511" 
d="M217 0v231h-212v47h212v225h51v-225h212v-47h-212v-231h-51z" />
    <glyph glyph-name="comma" unicode="," horiz-adv-x="206" 
d="M-37 -118l-19 21q45 47 63 94.5t19 107.5h59q-2 -74 -29 -126.5t-93 -96.5z" />
    <glyph glyph-name="hyphen" unicode="-" horiz-adv-x="351" 
d="M30 222l11 50h243l-11 -50h-243z" />
    <glyph glyph-name="period" unicode="." horiz-adv-x="206" 
d="M44 -7q-16 0 -26 11.5t-10 26.5q0 19 12 31.5t30 12.5q16 0 26 -11.5t10 -26.5q0 -19 -12 -31.5t-30 -12.5z" />
    <glyph glyph-name="slash" unicode="/" horiz-adv-x="379" 
d="M1 -32l326 728h53l-326 -728h-53z" />
    <glyph glyph-name="zero" unicode="0" horiz-adv-x="515" 
d="M198 -10q-79 0 -121.5 54t-42.5 162q0 117 35 221.5t100 170.5t145 66q79 0 121.5 -54t42.5 -162q0 -117 -35 -221.5t-100 -170.5t-145 -66zM201 38q89 0 155 124.5t66 295.5q0 158 -111 158q-89 0 -155 -124.5t-66 -295.5q0 -158 111 -158z" />
    <glyph glyph-name="one" unicode="1" horiz-adv-x="398" 
d="M133 0l124 592q-64 -41 -167 -67v47q39 11 96.5 38t94.5 54h43l-139 -664h-52z" />
    <glyph glyph-name="two" unicode="2" 
d="M14 0q11 73 37.5 131.5t60.5 96.5t73 69t75 54.5t66 47t48 53t18 65.5q0 48 -30 73.5t-82 25.5q-68 0 -154 -40l-14 44q86 44 172 44q72 0 118 -38.5t46 -105.5q0 -42 -17 -76t-45 -59.5t-63 -49t-72.5 -50.5t-70.5 -58t-60 -77.5t-40 -103.5h318l-10 -46h-374z" />
    <glyph glyph-name="three" unicode="3" horiz-adv-x="513" 
d="M8 29l27 43q56 -34 132 -34q45 0 86 13t74 50.5t33 92.5q0 63 -46 89.5t-132 26.5h-65l4 48h41q56 0 93 10q57 16 94 53.5t37 94.5q0 50 -33.5 75t-87.5 25q-72 0 -146 -37l-14 43q82 42 166 42q79 0 125 -40.5t46 -109.5q0 -123 -145 -175v-2q119 -25 119 -141
q0 -90 -69 -148t-178 -58q-91 0 -161 39z" />
    <glyph glyph-name="four" unicode="4" horiz-adv-x="560" 
d="M287 0l37 181h-272l-7 48l390 435h42l-91 -437h98l-10 -46h-98l-37 -181h-52zM335 227l36 169q21 93 42 176l-308 -345h93h137z" />
    <glyph glyph-name="five" unicode="5" 
d="M8 29l27 43q53 -34 129 -34q78 0 135 45t57 126q0 129 -172 129h-84l63 321h310l-13 -46h-252l-46 -228h33q106 0 161.5 -47.5t55.5 -125.5q0 -100 -70.5 -161t-182.5 -61q-91 0 -151 39z" />
    <glyph glyph-name="six" unicode="6" horiz-adv-x="550" 
d="M257 -10q-86 0 -135.5 57t-49.5 175q0 190 100.5 316t256.5 126q36 0 69 -8l-16 -45q-25 5 -51 5q-84 0 -151.5 -46.5t-104.5 -115t-48 -147.5h2q23 40 70 65t97 25q79 0 126.5 -49t47.5 -136q0 -90 -61 -156t-152 -66zM257 38q65 0 111 49.5t46 126.5q0 59 -31 97
t-92 38q-64 0 -112.5 -47.5t-48.5 -124.5q0 -59 33.5 -99t93.5 -40z" />
    <glyph glyph-name="seven" unicode="7" horiz-adv-x="451" 
d="M63 0q50 186 132 332t196 281h-311l-7 46h396v-26q-118 -132 -210.5 -295t-136.5 -338h-59z" />
    <glyph glyph-name="eight" unicode="8" horiz-adv-x="550" 
d="M245 -10q-90 0 -145.5 44.5t-55.5 122.5q0 68 43.5 114t113.5 70v2q-90 50 -90 145q0 77 59 126.5t149 49.5q82 0 134.5 -41.5t52.5 -112.5q0 -62 -46 -108t-109 -66v-2q123 -44 123 -154q0 -86 -68.5 -138t-160.5 -52zM244 38q75 0 124.5 38.5t49.5 103.5q0 50 -42 85
t-118 52q-73 -19 -115.5 -60.5t-42.5 -96.5q0 -63 43.5 -92.5t100.5 -29.5zM284 358q166 41 166 151q0 54 -38 81t-96 27q-59 0 -104 -32.5t-45 -94.5q0 -44 32 -81t85 -51z" />
    <glyph glyph-name="nine" unicode="9" horiz-adv-x="565" 
d="M61 10l13 47q40 -19 88 -19q213 0 262 268h-2q-73 -56 -168 -56q-74 0 -123 47t-49 135q0 104 59.5 168t145.5 64q95 0 148.5 -65t53.5 -176q0 -216 -88.5 -324.5t-232.5 -108.5q-63 0 -107 20zM263 298q85 0 167 66q5 32 5 61q0 86 -39.5 138.5t-108.5 52.5
q-62 0 -105.5 -51.5t-43.5 -131.5q0 -63 32.5 -99t92.5 -36z" />
    <glyph glyph-name="colon" unicode=":" horiz-adv-x="206" 
d="M44 -7q-16 0 -26 11.5t-10 26.5q0 19 12 31.5t30 12.5q16 0 26 -11.5t10 -26.5q0 -19 -12 -31.5t-30 -12.5zM120 355q-16 0 -26 11.5t-10 26.5q0 19 12 31.5t30 12.5q16 0 26 -11.5t10 -26.5q0 -19 -12 -31.5t-30 -12.5z" />
    <glyph glyph-name="semicolon" unicode=";" horiz-adv-x="206" 
d="M-37 -118l-19 21q45 47 63 94.5t19 107.5h59q-2 -74 -29 -126.5t-93 -96.5zM102 355q-16 0 -26 11.5t-10 26.5q0 19 12 31.5t30 12.5q16 0 26 -11.5t10 -26.5q0 -19 -12 -31.5t-30 -12.5z" />
    <glyph glyph-name="less" unicode="&#x3c;" horiz-adv-x="614" 
d="M80 234v52l414 193v-51l-360 -167v-2l360 -167v-51z" />
    <glyph glyph-name="equal" unicode="=" horiz-adv-x="511" 
d="M13 154v47h475v-47h-475zM13 309v47h475v-47h-475z" />
    <glyph glyph-name="greater" unicode="&#x3e;" horiz-adv-x="614" 
d="M120 41v51l360 167v2l-360 167v51l414 -193v-52z" />
    <glyph glyph-name="question" unicode="?" horiz-adv-x="452" 
d="M132 -7q-16 0 -26 11.5t-10 26.5q0 19 12 31.5t30 12.5q16 0 26 -11.5t10 -26.5q0 -19 -12 -31.5t-30 -12.5zM135 167q3 59 28 107.5t58.5 79.5t66.5 58t55.5 58t22.5 66q0 40 -25.5 60.5t-64.5 20.5q-70 0 -140 -50l-20 39q80 58 166 58q56 0 97.5 -31t41.5 -90
q0 -47 -26 -86q-18 -27 -55.5 -61t-69.5 -61t-62 -71.5t-40 -96.5h-33z" />
    <glyph glyph-name="at" unicode="@" horiz-adv-x="764" 
d="M342 -140q-133 0 -217.5 90.5t-84.5 239.5q0 170 103 275t250 105q143 0 237 -87t94 -224q0 -110 -47 -169.5t-119 -59.5q-39 0 -64.5 22.5t-29.5 62.5h-2q-16 -33 -52 -58t-82 -25q-50 0 -84 36.5t-34 116.5q0 98 56 161t138 63q67 0 128 -39l-22 -167q-4 -36 -4 -50
q0 -76 57 -76q48 0 78.5 49.5t30.5 130.5q0 109 -75 188.5t-206 79.5q-126 0 -212 -91t-86 -242q0 -134 72.5 -210.5t184.5 -76.5q70 0 122 23l14 -42q-63 -26 -144 -26zM337 79q44 0 81 38.5t49 136.5l11 88q-31 22 -74 22q-60 0 -100 -50t-40 -127q0 -52 19.5 -80
t53.5 -28z" />
    <glyph glyph-name="A" unicode="A" horiz-adv-x="537" 
d="M-33 0l333 661h36l115 -661h-55l-31 182h-250l-90 -182h-58zM139 228h217l-37 232q-2 11 -7.5 46.5t-8.5 58.5h-2q-41 -90 -52 -113z" />
    <glyph glyph-name="B" unicode="B" horiz-adv-x="517" 
d="M14 0l138 659h123q88 0 130 -44t42 -106q0 -122 -118 -167v-2q43 -11 74 -46t31 -86q0 -87 -71 -147.5t-207 -60.5h-142zM142 361h98q77 0 114.5 47t37.5 99q0 47 -28.5 76.5t-90.5 29.5h-79zM76 46h98q96 0 150 45t54 114q0 52 -34 81t-95 29h-117z" />
    <glyph glyph-name="C" unicode="C" horiz-adv-x="575" 
d="M302 -10q-111 0 -184 67t-73 198q0 173 103.5 291t264.5 118q86 0 160 -37l-12 -48q-65 37 -145 37q-138 0 -226.5 -102.5t-88.5 -253.5q0 -100 52.5 -161t146.5 -61q90 0 176 46l12 -45q-86 -49 -186 -49z" />
    <glyph glyph-name="D" unicode="D" horiz-adv-x="604" 
d="M14 0l138 659h85q108 0 177 -30q145 -63 145 -238q0 -122 -56.5 -217.5t-165.5 -139.5q-83 -34 -201 -34h-122zM76 46h72q98 0 169 30q91 38 138.5 123t47.5 193q0 147 -119 197q-57 24 -151 24h-39z" />
    <glyph glyph-name="E" unicode="E" horiz-adv-x="441" 
d="M14 0l138 659h284l-19 -46h-223l-52 -252h217l-10 -46h-217l-56 -269h248l-10 -46h-300z" />
    <glyph glyph-name="F" unicode="F" horiz-adv-x="421" 
d="M14 0l138 659h284l-19 -46h-223l-52 -252h217l-10 -46h-217l-65 -315h-53z" />
    <glyph glyph-name="G" unicode="G" horiz-adv-x="631" 
d="M301 -10q-106 0 -181 68.5t-75 199.5q0 168 105.5 287t269.5 119q90 0 171 -37l-12 -48q-74 38 -155 38q-137 0 -230 -99.5t-93 -250.5q0 -115 57 -172t147 -57q95 0 150 32l50 238h52l-56 -266q-29 -21 -84.5 -36.5t-115.5 -15.5z" />
    <glyph glyph-name="H" unicode="H" horiz-adv-x="621" 
d="M14 0l138 659h52l-63 -301h351l63 301h52l-138 -659h-52l65 312h-351l-65 -312h-52z" />
    <glyph glyph-name="I" unicode="I" horiz-adv-x="218" 
d="M14 0l138 659h52l-138 -659h-52z" />
    <glyph glyph-name="J" unicode="J" horiz-adv-x="260" 
d="M-140 -167l18 45q27 -11 63 -11q61 0 87 48q17 31 28 85l138 659h52l-136 -649q-17 -80 -38 -119q-40 -72 -138 -72q-40 0 -74 14z" />
    <glyph glyph-name="K" unicode="K" horiz-adv-x="507" 
d="M14 0l138 659h52l-66 -317h3l302 317h64l-327 -341l230 -318h-65l-214 300h-2l-63 -300h-52z" />
    <glyph glyph-name="L" unicode="L" horiz-adv-x="414" 
d="M14 0l138 659h52l-128 -613h248l-10 -46h-300z" />
    <glyph glyph-name="M" unicode="M" horiz-adv-x="756" 
d="M14 0l138 659h53l107 -312q43 -126 46 -136h2q36 53 74 106l251 342h57l-138 -659h-52l75 358q21 104 48 206h-2q-65 -92 -91 -127l-216 -291h-36l-100 285q-31 86 -44 133h-2q-7 -30 -21 -99.5t-16 -76.5l-81 -388h-52z" />
    <glyph glyph-name="N" unicode="N" horiz-adv-x="659" 
d="M14 0l138 659h48l230 -471q29 -60 45 -98h2q11 62 21 111l95 458h52l-138 -659h-39l-237 485q-34 71 -44 96h-2q-5 -40 -19 -105l-100 -476h-52z" />
    <glyph glyph-name="O" unicode="O" horiz-adv-x="698" 
d="M304 -10q-119 0 -189 71.5t-70 206.5q0 101 41 190.5t122.5 147.5t185.5 58q119 0 189 -70.5t70 -205.5q0 -101 -41 -191t-122.5 -148.5t-185.5 -58.5zM307 38q68 0 124.5 31.5t91.5 82.5t54.5 112.5t19.5 125.5q0 108 -52 167t-152 59q-68 0 -125 -31t-92.5 -81.5
t-55 -112t-19.5 -124.5q0 -108 52 -168.5t154 -60.5z" />
    <glyph glyph-name="P" unicode="P" horiz-adv-x="477" 
d="M14 0l138 659h69q58 0 97 -12q59 -19 91 -63.5t32 -107.5q0 -79 -48 -138t-131 -78q-43 -10 -101 -10h-43l-52 -250h-52zM128 296h40q52 0 85 9q64 17 98.5 63.5t34.5 110.5q0 95 -87 124q-30 10 -78 10h-27z" />
    <glyph glyph-name="Q" unicode="Q" horiz-adv-x="698" 
d="M45 268q0 101 41 190.5t122.5 147.5t185.5 58q119 0 189 -70.5t70 -205.5q0 -101 -41 -191t-122.5 -148.5t-185.5 -58.5q-23 0 -43 4v-2q8 -6 34.5 -28t46.5 -36t55 -27t70 -13q49 0 94 15l12 -43q-52 -19 -114 -19q-77 0 -144.5 42.5t-114.5 98.5q-7 9 -53.5 54.5
t-64.5 77.5q-37 67 -37 154zM307 38q68 0 124.5 31.5t91.5 82.5t54.5 112.5t19.5 125.5q0 108 -52 167t-152 59q-68 0 -125 -31t-92.5 -81.5t-55 -112t-19.5 -124.5q0 -108 52 -168.5t154 -60.5z" />
    <glyph glyph-name="R" unicode="R" horiz-adv-x="504" 
d="M14 0l138 659h105q95 0 144 -47t49 -113q0 -164 -184 -197v-2q21 -38 47 -94l94 -206h-59l-73 164q-33 72 -62 129h-86l-61 -293h-52zM137 339h65q92 0 142.5 39.5t50.5 115.5q0 53 -34 86t-109 33h-58z" />
    <glyph glyph-name="S" unicode="S" horiz-adv-x="453" 
d="M8 30l21 44q53 -36 125 -36q63 0 107 32.5t44 101.5q0 44 -21.5 78.5t-52.5 58.5t-61.5 48.5t-52 60t-21.5 81.5q0 75 53 120t136 45q72 0 132 -30l-11 -47q-56 30 -122 30q-54 0 -93.5 -29t-39.5 -83q0 -32 15.5 -59t38.5 -45.5t50.5 -41t50.5 -45t38.5 -58t15.5 -79.5
q0 -94 -60 -140.5t-148 -46.5q-81 0 -144 40z" />
    <glyph glyph-name="T" unicode="T" horiz-adv-x="454" 
d="M131 0l128 613h-193l10 46h440l-19 -46h-186l-128 -613h-52z" />
    <glyph glyph-name="U" unicode="U" horiz-adv-x="614" 
d="M252 -10q-91 0 -142.5 47.5t-51.5 134.5q0 32 11 85l84 402h52l-83 -397q-11 -55 -11 -86q0 -68 39 -103.5t108 -35.5q93 0 142 51q41 42 60 132l92 439h52l-94 -451q-21 -102 -73 -154q-64 -64 -185 -64z" />
    <glyph glyph-name="V" unicode="V" horiz-adv-x="524" 
d="M198 -3l-128 662h57l80 -433q12 -69 22 -139h2q21 50 63 128l230 444h60l-350 -662h-36z" />
    <glyph glyph-name="W" unicode="W" horiz-adv-x="784" 
d="M157 -3l-87 662h58l49 -421q9 -71 16 -155h2q34 86 62 145l155 321l-14 110h56l49 -421q7 -60 15 -155h2q25 69 61 145l203 431h60l-321 -662h-41l-41 324q-12 95 -16 143h-2q-28 -64 -69 -150l-153 -317h-44z" />
    <glyph glyph-name="X" unicode="X" horiz-adv-x="562" 
d="M-29 0l272 336l-149 323h59l129 -283l230 283h65l-270 -335l149 -324h-57l-132 285l-231 -285h-65z" />
    <glyph glyph-name="Y" unicode="Y" horiz-adv-x="469" 
d="M157 0l52 253l-139 406h57l114 -346h2l226 346h60l-267 -406l-53 -253h-52z" />
    <glyph glyph-name="Z" unicode="Z" 
d="M-20 0l436 613h-306l-7 46h405l-435 -613h341l-10 -46h-424z" />
    <glyph glyph-name="bracketleft" unicode="[" horiz-adv-x="300" 
d="M-10 -232l210 1002h145l-9 -43h-95l-192 -916h94l-8 -43h-145z" />
    <glyph glyph-name="backslash" unicode="\" horiz-adv-x="379" 
d="M259 -32l-195 728h49l195 -728h-49z" />
    <glyph glyph-name="bracketright" unicode="]" horiz-adv-x="300" 
d="M-85 -232l9 43h95l192 916h-94l8 43h145l-210 -1002h-145z" />
    <glyph glyph-name="asciicircum" unicode="^" horiz-adv-x="614" 
d="M117 287l164 372h52l164 -372h-51l-138 318h-2l-138 -318h-51z" />
    <glyph glyph-name="underscore" unicode="_" horiz-adv-x="438" 
d="M-84 -110l10 44h450l-10 -44h-450z" />
    <glyph glyph-name="grave" unicode="`" horiz-adv-x="350" 
d="M158 531l-73 147h67l50 -147h-44z" />
    <glyph glyph-name="a" unicode="a" horiz-adv-x="449" 
d="M131 -10q-55 0 -88 34t-33 88q0 82 60 128q58 44 174 46l82 1q8 34 8 69q0 81 -92 81q-68 0 -144 -39l-8 47q78 40 156 40q61 0 100.5 -31t39.5 -97q0 -36 -18 -119l-7 -34q-19 -91 -19 -140q0 -28 7 -58l-45 -10q-11 42 -11 83q-71 -89 -162 -89zM141 38q53 0 103 45.5
t62 111.5l10 45h-45q-117 0 -162 -33q-43 -31 -43 -88q0 -81 75 -81z" />
    <glyph glyph-name="b" unicode="b" horiz-adv-x="479" 
d="M15 9l146 699h52l-48 -229q-7 -34 -22 -88h2q25 39 66.5 66.5t86.5 27.5q60 0 98.5 -42t38.5 -121q0 -141 -85.5 -236.5t-217.5 -95.5q-60 0 -117 19zM75 47q30 -9 67 -9q100 0 168.5 78.5t68.5 204.5q0 46 -21 80.5t-67 34.5q-56 0 -107 -54q-52 -55 -72 -154z" />
    <glyph glyph-name="c" unicode="c" horiz-adv-x="430" 
d="M214 -10q-79 0 -130.5 51t-51.5 142q0 129 77.5 215.5t185.5 86.5q60 0 109 -22l-10 -48q-47 22 -100 22q-86 0 -146 -71.5t-60 -174.5q0 -69 33 -111t97 -42t128 39l13 -41q-65 -46 -145 -46z" />
    <glyph glyph-name="d" unicode="d" horiz-adv-x="474" 
d="M224 -10q-83 0 -137.5 52.5t-54.5 148.5q0 133 80 213.5t189 80.5q56 0 102 -17l50 240h52l-144 -688q-62 -30 -137 -30zM232 38q47 0 84 17l76 365q-44 17 -88 17q-90 0 -153 -66.5t-63 -174.5q0 -73 36.5 -115.5t107.5 -42.5z" />
    <glyph glyph-name="e" unicode="e" horiz-adv-x="451" 
d="M213 -10q-78 0 -129.5 52t-51.5 148q0 127 67 211t167 84q72 0 108.5 -41.5t36.5 -109.5q0 -56 -20 -101l-303 -3q-2 -22 -2 -33q0 -74 35.5 -116.5t95.5 -42.5q64 0 128 39l16 -42q-67 -45 -148 -45zM96 276l251 3q9 30 9 59q0 99 -95 99q-59 0 -105.5 -47t-59.5 -114z
" />
    <glyph glyph-name="f" unicode="f" horiz-adv-x="281" 
d="M-84 -193q85 81 128.5 211.5t82.5 408.5h-65l6 46h66l12 71q9 53 27 86q44 78 134 78q44 0 72 -16l-17 -43q-24 12 -55 12q-87 0 -107 -111l-13 -77h106l-19 -46h-94q-21 -139 -37 -223.5t-42.5 -174.5t-63.5 -151.5t-89 -108.5z" />
    <glyph glyph-name="g" unicode="g" horiz-adv-x="488" 
d="M-9 -201l21 45q55 -34 118 -34q74 0 112.5 42.5t58.5 136.5l19 87h-2q-67 -85 -154 -85q-63 0 -97.5 40.5t-34.5 115.5q0 87 30.5 162t97.5 125.5t159 50.5q76 0 133 -22l-104 -500q-9 -44 -23 -76.5t-38.5 -62.5t-65 -45.5t-94.5 -15.5q-73 0 -136 36zM170 38
q52 0 107.5 53.5t80.5 170.5l35 165q-33 10 -77 10q-104 0 -166 -83t-62 -197q0 -119 82 -119z" />
    <glyph glyph-name="h" unicode="h" horiz-adv-x="468" 
d="M10 0l148 708h52l-50 -240q-9 -45 -24 -91h2q31 48 80 78t97 30q46 0 74.5 -28t28.5 -84q0 -33 -11 -88l-59 -285h-52l59 286q10 46 10 79q0 71 -62 71q-34 0 -73 -22.5t-69 -63.5q-35 -47 -53 -129l-46 -221h-52z" />
    <glyph glyph-name="i" unicode="i" horiz-adv-x="203" 
d="M10 0l99 473h52l-99 -473h-52zM162 593q-34 0 -34 33q0 20 13.5 33.5t31.5 13.5q34 0 34 -33q0 -20 -13.5 -33.5t-31.5 -13.5z" />
    <glyph glyph-name="j" unicode="j" horiz-adv-x="222" 
d="M-141 -226l15 46q20 -9 44 -9q40 0 60.5 24.5t33.5 85.5l116 552h52l-125 -593q-25 -117 -139 -117q-32 0 -57 11zM181 593q-34 0 -34 33q0 20 13.5 33.5t31.5 13.5q34 0 34 -33q0 -20 -13.5 -33.5t-31.5 -13.5z" />
    <glyph glyph-name="k" unicode="k" horiz-adv-x="404" 
d="M10 0l148 708h52l-88 -421h2l216 186h68l-241 -206l180 -267h-63l-167 252h-2l-53 -252h-52z" />
    <glyph glyph-name="l" unicode="l" horiz-adv-x="235" 
d="M97 -5q-67 0 -67 63q0 14 6 43l127 607h52l-127 -610q-4 -16 -4 -29q0 -26 27 -26q17 0 39 9v-46q-22 -11 -53 -11z" />
    <glyph glyph-name="m" unicode="m" horiz-adv-x="730" 
d="M10 0l99 473h45l-18 -96h2q32 50 75 79t90 29q46 0 74 -28.5t27 -86.5h2q32 52 77 83.5t94 31.5q46 0 74.5 -28t28.5 -84q0 -33 -11 -88l-59 -285h-52l59 286q10 46 10 79q0 71 -62 71q-65 0 -130 -86q-35 -47 -53 -129l-46 -221h-52l59 286q10 46 10 79q0 71 -62 71
q-66 0 -130 -86q-35 -47 -53 -129l-46 -221h-52z" />
    <glyph glyph-name="n" unicode="n" horiz-adv-x="468" 
d="M10 0l99 473h45l-18 -96h2q31 48 80 78t97 30q46 0 74.5 -28t28.5 -84q0 -33 -11 -88l-59 -285h-52l59 286q10 46 10 79q0 71 -62 71q-34 0 -73 -22.5t-69 -63.5q-35 -47 -53 -129l-46 -221h-52z" />
    <glyph glyph-name="o" unicode="o" horiz-adv-x="488" 
d="M197 -10q-82 0 -123.5 48.5t-41.5 123.5q0 142 73.5 232.5t173.5 90.5q82 0 123.5 -48.5t41.5 -123.5q0 -142 -73.5 -232.5t-173.5 -90.5zM199 38q85 0 137 81.5t52 187.5q0 130 -111 130q-85 0 -137 -81.5t-52 -187.5q0 -130 111 -130z" />
    <glyph glyph-name="p" unicode="p" horiz-adv-x="482" 
d="M-39 -237l147 703q68 19 128 19q100 0 151 -55t51 -138q0 -140 -84 -221t-194 -81q-50 0 -97 13l-50 -240h-52zM74 52q32 -14 82 -14q101 0 163.5 71t62.5 179q0 72 -38.5 110.5t-112.5 38.5q-39 0 -79 -11z" />
    <glyph glyph-name="q" unicode="q" horiz-adv-x="491" 
d="M257 -237l47 226q3 15 9.5 44t9.5 43h-2q-71 -86 -157 -86q-62 0 -97 41t-35 115q0 89 32 164.5t100.5 125t162.5 49.5q66 0 128 -22l-146 -700h-52zM171 38q22 0 47.5 11t53 35t52 70t37.5 108l35 165q-40 10 -80 10q-104 0 -166 -83.5t-62 -198.5q0 -117 83 -117z" />
    <glyph glyph-name="r" unicode="r" horiz-adv-x="293" 
d="M10 0l99 473h45l-18 -96h2q23 52 60.5 80t78.5 28q28 0 46 -10l-22 -51q-14 7 -36 7q-48 0 -93 -58.5t-67 -165.5l-43 -207h-52z" />
    <glyph glyph-name="s" unicode="s" horiz-adv-x="338" 
d="M-18 22l20 44q47 -28 102 -28q45 0 76.5 22t31.5 63q0 27 -15 49.5t-37 39.5t-44 35.5t-37 45.5t-15 61q0 57 38.5 94t109.5 37q55 0 98 -16l-8 -46q-45 15 -87 15q-43 0 -70 -20t-27 -60q0 -26 15 -48t37 -38.5t44 -35t37 -47t15 -64.5q0 -62 -46 -98.5t-117 -36.5
q-70 0 -121 32z" />
    <glyph glyph-name="t" unicode="t" horiz-adv-x="310" 
d="M143 -10q-45 0 -68 22.5t-23 59.5q0 18 6 50l64 305h-75l10 46h75l23 106l56 19l-27 -125h130l-19 -46h-120l-65 -308q-4 -19 -4 -36q0 -45 46 -45q37 0 79 27l15 -42q-46 -33 -103 -33z" />
    <glyph glyph-name="u" unicode="u" horiz-adv-x="475" 
d="M143 -10q-49 0 -78.5 27t-29.5 83q0 33 11 88l59 285h52l-59 -286q-10 -46 -10 -79q0 -70 62 -70q69 0 120.5 59t66.5 131l51 245h52l-56 -269q-18 -90 -18 -137q0 -29 7 -61l-45 -10q-13 47 -9 100h-2q-31 -47 -79.5 -76.5t-94.5 -29.5z" />
    <glyph glyph-name="v" unicode="v" horiz-adv-x="415" 
d="M129 -3l-88 476h52l48 -272q13 -77 20 -128h2q27 56 65 127l143 273h59l-260 -476h-41z" />
    <glyph glyph-name="w" unicode="w" horiz-adv-x="640" 
d="M111 -3l-70 476h51l38 -262q10 -67 16 -134h2q16 41 50 114l133 282h46l30 -261q8 -73 13 -135h2q21 51 49 113l126 283h58l-224 -476h-47l-29 263q-7 61 -13 128h-2q-25 -60 -58 -130l-125 -261h-46z" />
    <glyph glyph-name="x" unicode="x" horiz-adv-x="410" 
d="M-36 0l199 241l-116 232h55l98 -194l159 194h59l-194 -235l121 -238h-57l-101 201l-166 -201h-57z" />
    <glyph glyph-name="y" unicode="y" horiz-adv-x="414" 
d="M-127 -224l18 46q24 -11 52 -11q56 0 101.5 39.5t94.5 143.5l-103 479h56l57 -276q11 -52 27 -132h2q20 49 55 122l137 286h60l-245 -497q-60 -123 -116.5 -168t-132.5 -45q-40 0 -63 13z" />
    <glyph glyph-name="z" unicode="z" horiz-adv-x="354" 
d="M-23 0l281 427h-199l-7 46h295l-282 -427h220l-9 -46h-299z" />
    <glyph glyph-name="braceleft" unicode="{" horiz-adv-x="328" 
d="M153 -220q-59 13 -85 42.5t-26 77.5q0 22 9 62l43 208q3 14 3 26q0 48 -56 51l11 52q47 3 69 31q10 13 16 41l49 233q15 69 41 100q40 49 134 62v-49q-64 -10 -94 -46q-19 -22 -30 -79l-47 -222q-10 -43 -21 -60q-20 -29 -63 -40v-2q44 -10 44 -61q0 -30 -8 -65l-39 -190
q-5 -27 -5 -44q0 -64 75 -81z" />
    <glyph glyph-name="bar" unicode="|" horiz-adv-x="226" 
d="M89 -237v1017h49v-1017h-49z" />
    <glyph glyph-name="braceright" unicode="}" horiz-adv-x="328" 
d="M-67 -220v49q64 10 94 46q19 22 30 79l47 222q10 43 21 60q20 29 63 40v2q-44 10 -44 63q0 28 8 63l39 190q5 27 5 44q0 64 -75 81l20 47q59 -13 85 -42.5t26 -77.5q0 -22 -9 -62l-43 -208q-3 -14 -3 -26q0 -48 56 -51l-11 -52q-47 -3 -69 -31q-10 -13 -16 -41l-49 -233
q-15 -69 -41 -100q-40 -49 -134 -62z" />
    <glyph glyph-name="asciitilde" unicode="~" horiz-adv-x="511" 
d="M53 217l-33 30q59 62 118 62q34 0 113 -31.5t105 -31.5q23 0 40.5 10t43.5 35l33 -30q-59 -62 -118 -62q-33 0 -114 31.5t-104 31.5t-40.5 -10t-43.5 -35z" />
    <glyph glyph-name="exclamdown" unicode="&#xa1;" horiz-adv-x="267" 
d="M2 -181l11 52q7 35 20 94.5t17.5 80.5t13 60.5t13 57t12 46t14 51t15.5 49.5h24q-5 -63 -15 -124.5t-19.5 -108t-42.5 -205.5l-11 -53h-52zM148 401q-16 0 -26 11.5t-10 26.5q0 19 12 31.5t30 12.5q16 0 26 -11.5t10 -26.5q0 -19 -12 -31.5t-30 -12.5z" />
    <glyph glyph-name="cent" unicode="&#xa2;" 
d="M180 0l23 111q-51 17 -83.5 61.5t-32.5 114.5q0 111 62.5 186.5t152.5 87.5l20 98h50l-20 -97q48 -3 83 -19l-10 -47q-45 21 -94 21q-80 0 -135 -66.5t-55 -163.5q0 -64 31.5 -101t89.5 -37q60 0 119 36l13 -41q-61 -41 -142 -41l-22 -103h-50z" />
    <glyph glyph-name="sterling" unicode="&#xa3;" horiz-adv-x="513" 
d="M32 0l7 43q96 47 131 272h-77l8 46h76l13 91q9 66 28 106q52 106 172 106q51 0 90 -19l-20 -43q-32 15 -70 15q-86 0 -124 -83q-14 -31 -21 -84l-13 -89h181l-18 -46h-169q-34 -216 -113 -267v-2h89h199l-8 -46h-361z" />
    <glyph glyph-name="currency" unicode="&#xa4;" 
d="M53 90l-36 36l63 63q-50 61 -50 141t49 140l-63 63l36 36l63 -63q63 50 141 50t141 -50l63 63l36 -36l-63 -63q49 -62 49 -140t-50 -141l63 -63l-36 -36l-63 63q-60 -49 -140 -49q-78 0 -140 49zM256 155q72 0 121 51.5t49 123.5t-49 123.5t-121 51.5t-121 -51.5
t-49 -123.5t49 -123.5t121 -51.5z" />
    <glyph glyph-name="yen" unicode="&#xa5;" horiz-adv-x="513" 
d="M162 0l26 128h-160l9 46h161l18 89h-165l9 46h143l-113 350h57l103 -331h2l208 331h60l-223 -350h143l-9 -46h-162l-19 -89h167l-9 -46h-167l-27 -128h-52z" />
    <glyph glyph-name="brokenbar" unicode="&#xa6;" horiz-adv-x="226" 
d="M89 -237v350h49v-350h-49zM89 430v350h49v-350h-49z" />
    <glyph glyph-name="section" unicode="&#xa7;" horiz-adv-x="539" 
d="M183 -166q-94 0 -159 47l28 43q60 -42 134 -42q62 0 106 29.5t44 88.5q0 41 -27 71.5t-65 51.5t-76.5 43t-65.5 58t-27 84q0 47 29.5 87.5t77.5 64.5q-45 42 -45 102q0 72 53 116.5t136 44.5q72 0 132 -30l-11 -47q-56 30 -122 30q-54 0 -93.5 -28t-39.5 -80
q0 -39 27 -67.5t65.5 -48.5t77 -41.5t65.5 -60t27 -90.5q0 -98 -100 -157q37 -39 37 -97q0 -84 -60.5 -128t-147.5 -44zM130 314q0 -43 29.5 -72.5t87.5 -61.5t81 -51q71 50 71 124q0 29 -11 52t-33 41t-43 31t-51.5 30t-48.5 29q-82 -43 -82 -122z" />
    <glyph glyph-name="dieresis" unicode="&#xa8;" horiz-adv-x="350" 
d="M91 568q-31 0 -31 31q0 18 11.5 29.5t27.5 11.5q31 0 31 -31q0 -18 -11.5 -29.5t-27.5 -11.5zM261 568q-31 0 -31 31q0 18 11.5 29.5t27.5 11.5q31 0 31 -31q0 -18 -11.5 -29.5t-27.5 -11.5z" />
    <glyph glyph-name="copyright" unicode="&#xa9;" horiz-adv-x="784" 
d="M387 -10q-142 0 -237 97.5t-95 239.5t95 239.5t237 97.5t237 -97.5t95 -239.5t-95 -239.5t-237 -97.5zM387 27q124 0 206 86t82 214t-82 213.5t-206 85.5t-206 -85.5t-82 -213.5t82 -214t206 -86zM392 128q-82 0 -128.5 55.5t-46.5 138.5q0 85 49 144.5t135 59.5
q50 0 91 -22v-42q-41 24 -91 24q-63 0 -101 -44t-38 -115q0 -76 36 -118t98 -42q46 0 94 27l14 -33q-50 -33 -112 -33z" />
    <glyph glyph-name="ordfeminine" unicode="&#xaa;" horiz-adv-x="314" 
d="M-27 143l9 43h280l-9 -43h-280zM119 263q-40 0 -64.5 24.5t-24.5 64.5q0 64 47 93.5t118 29.5h53q5 22 5 42q0 50 -60 50q-46 0 -101 -26l-10 41q55 29 114 29q51 0 77 -25t26 -68q0 -26 -13 -82l-5 -22q-13 -55 -13 -93q0 -20 7 -46l-40 -9q-8 25 -9 50h-1
q-49 -53 -106 -53zM126 307q35 0 66.5 30t41.5 74l5 22h-35q-125 0 -125 -76q0 -50 47 -50z" />
    <glyph glyph-name="guillemotleft" unicode="&#xab;" horiz-adv-x="500" 
d="M254 416l-167 -179l111 -177l-39 -26l-134 207l195 207zM446 416l-167 -179l111 -177l-39 -26l-134 207l195 207z" />
    <glyph glyph-name="logicalnot" unicode="&#xac;" horiz-adv-x="511" 
d="M0 231v47h475v-278h-51v231h-424z" />
    <glyph glyph-name="registered" unicode="&#xae;" horiz-adv-x="582" 
d="M313 180q-103 0 -170.5 69.5t-67.5 172.5t67.5 172.5t170.5 69.5t170.5 -69.5t67.5 -172.5t-67.5 -172.5t-170.5 -69.5zM313 213q89 0 145.5 59.5t56.5 149.5t-56.5 149.5t-145.5 59.5t-145.5 -59.5t-56.5 -149.5t56.5 -149.5t145.5 -59.5zM272 299h-32v257h60
q30 0 49 -7q43 -16 43 -63q0 -55 -62 -67v-2q18 -14 78 -118h-38q-58 103 -76 111h-22v-111zM272 437h22q62 0 62 48q0 28 -22 38q-13 6 -41 6h-21v-92z" />
    <glyph glyph-name="macron" unicode="&#xaf;" horiz-adv-x="350" 
d="M60 576l10 46h232l-10 -46h-232z" />
    <glyph glyph-name="degree" unicode="&#xb0;" horiz-adv-x="404" 
d="M232 353q-65 0 -109 44t-44 109t44 109t109 44t109 -44t44 -109t-44 -109t-109 -44zM232 397q44 0 74 31t30 78t-30 78t-74 31t-74 -31t-30 -78t30 -78t74 -31z" />
    <glyph glyph-name="plusminus" unicode="&#xb1;" horiz-adv-x="511" 
d="M5 0v47h475v-47h-475zM217 107v168h-212v47h212v168h51v-168h212v-47h-212v-168h-51z" />
    <glyph glyph-name="twosuperior" unicode="&#xb2;" horiz-adv-x="313" 
d="M57 405q6 56 32 97.5t58 65t63.5 42t52.5 40.5t21 49q0 22 -16 35.5t-45 13.5q-42 0 -95 -30l-19 37q61 36 118 36q50 0 78 -25t28 -65q0 -34 -19 -60.5t-47.5 -46t-58.5 -38.5t-56 -46t-35 -60h184l-4 -45h-240z" />
    <glyph glyph-name="threesuperior" unicode="&#xb3;" horiz-adv-x="329" 
d="M64 418l18 40q39 -18 84 -18q47 0 76.5 19.5t29.5 55.5q0 62 -103 62h-41l5 43h39q51 1 81 22.5t30 54.5q0 51 -64 51q-43 0 -89 -23l-17 37q54 29 112 29q50 0 78.5 -25t28.5 -65q0 -36 -23 -62.5t-58 -37.5v-2q31 -6 50.5 -28t19.5 -55q0 -53 -42 -86t-113 -33
q-60 0 -102 21z" />
    <glyph glyph-name="acute" unicode="&#xb4;" horiz-adv-x="350" 
d="M135 531l77 147h67l-100 -147h-44z" />
    <glyph glyph-name="mu" unicode="&#xb5;" horiz-adv-x="502" 
d="M-40 -237l149 710h52l-59 -284q-10 -46 -10 -75q0 -39 19 -57t48 -18q61 0 112.5 51t70.5 146l50 237h52l-71 -341q-9 -44 -9 -60q0 -29 29 -29q17 0 32 6v-47q-18 -7 -42 -7q-65 0 -65 67q0 14 2 26h-2q-32 -45 -76 -71.5t-90 -26.5q-63 0 -84 48h-2q-6 -50 -21 -123
l-32 -152h-53z" />
    <glyph glyph-name="paragraph" unicode="&#xb6;" horiz-adv-x="567" 
d="M141 -160l80 387q-68 3 -108 50t-40 122q0 114 77.5 187t206.5 73h174l-169 -819h-53l159 770h-115l-159 -770h-53z" />
    <glyph glyph-name="periodcentered" unicode="&#xb7;" horiz-adv-x="206" 
d="M83 214q-16 0 -26 11.5t-10 26.5q0 19 12 31.5t30 12.5q16 0 26 -11.5t10 -26.5q0 -19 -12 -31.5t-30 -12.5z" />
    <glyph glyph-name="cedilla" unicode="&#xb8;" horiz-adv-x="350" 
d="M86 -198l17 36q19 -11 47 -11t46 12t18 34q0 40 -81 36l42 91h47l-26 -56q32 -2 50 -20.5t18 -45.5q0 -44 -32.5 -67t-79.5 -23q-35 0 -66 14z" />
    <glyph glyph-name="onesuperior" unicode="&#xb9;" horiz-adv-x="277" 
d="M138 405l69 329q-41 -23 -114 -42v42q64 16 133 56h41l-81 -385h-48z" />
    <glyph glyph-name="ordmasculine" unicode="&#xba;" horiz-adv-x="342" 
d="M-11 143l9 43h289l-9 -43h-289zM159 263q-59 0 -88.5 36t-29.5 87q0 96 53 160.5t122 64.5q59 0 88.5 -36t29.5 -89q0 -95 -53 -159t-122 -64zM160 307q55 0 90 53.5t35 122.5q0 84 -70 84q-54 0 -89.5 -54t-35.5 -121q0 -85 70 -85z" />
    <glyph glyph-name="guillemotright" unicode="&#xbb;" horiz-adv-x="500" 
d="M214 66l167 179l-111 177l39 26l134 -207l-195 -207zM22 66l167 179l-111 177l39 26l134 -207l-195 -207z" />
    <glyph glyph-name="onequarter" unicode="&#xbc;" horiz-adv-x="825" 
d="M134 0l486 659h53l-486 -659h-53zM160 270l69 329q-41 -23 -114 -42v42q64 16 133 56h41l-81 -385h-48zM581 0l18 89h-166l-7 36l237 260h47l-54 -254h53l-8 -42h-54l-18 -89h-48zM608 131l10 45q17 81 30 130l-160 -175h120z" />
    <glyph glyph-name="onehalf" unicode="&#xbd;" horiz-adv-x="825" 
d="M100 0l486 659h53l-486 -659h-53zM149 270l69 329q-41 -23 -114 -42v42q64 16 133 56h41l-81 -385h-48zM467 0q6 56 32 97.5t58 65t63.5 42t52.5 40.5t21 49q0 22 -16 35.5t-45 13.5q-42 0 -95 -30l-19 37q61 36 118 36q50 0 78 -25t28 -65q0 -34 -19 -60.5t-47.5 -46
t-58.5 -38.5t-56 -46t-35 -60h184l-4 -45h-240z" />
    <glyph glyph-name="threequarters" unicode="&#xbe;" horiz-adv-x="825" 
d="M175 0l486 659h53l-486 -659h-53zM618 0l18 89h-166l-7 36l237 260h47l-54 -254h53l-8 -42h-54l-18 -89h-48zM645 131l10 45q17 81 30 130l-160 -175h120zM66 284l18 40q39 -18 84 -18q47 0 76.5 19.5t29.5 55.5q0 62 -103 62h-41l5 43h39q51 1 81 22.5t30 54.5
q0 51 -64 51q-43 0 -89 -23l-17 37q54 29 112 29q50 0 78.5 -25t28.5 -65q0 -36 -23 -62.5t-58 -37.5v-2q31 -6 50.5 -28t19.5 -55q0 -53 -42 -86t-113 -33q-60 0 -102 21z" />
    <glyph glyph-name="questiondown" unicode="&#xbf;" horiz-adv-x="452" 
d="M146 -187q-56 0 -97.5 31t-41.5 90q0 47 26 86q18 27 55.5 61t69.5 61t62 71.5t40 96.5h33q-3 -59 -28 -107.5t-58.5 -79.5t-66.5 -58t-55.5 -58t-22.5 -66q0 -40 25.5 -60.5t64.5 -20.5q70 0 140 50l20 -39q-80 -58 -166 -58zM290 402q-16 0 -26 11.5t-10 26.5
q0 19 12 31.5t30 12.5q16 0 26 -11.5t10 -26.5q0 -19 -12 -31.5t-30 -12.5z" />
    <glyph glyph-name="Agrave" unicode="&#xc0;" horiz-adv-x="537" 
d="M-33 0l333 661h36l115 -661h-55l-31 182h-250l-90 -182h-58zM139 228h217l-37 232q-2 11 -7.5 46.5t-8.5 58.5h-2q-41 -90 -52 -113zM301 696l-73 147h67l50 -147h-44z" />
    <glyph glyph-name="Aacute" unicode="&#xc1;" horiz-adv-x="537" 
d="M-33 0l333 661h36l115 -661h-55l-31 182h-250l-90 -182h-58zM139 228h217l-37 232q-2 11 -7.5 46.5t-8.5 58.5h-2q-41 -90 -52 -113zM300 696l77 147h67l-100 -147h-44z" />
    <glyph glyph-name="Acircumflex" unicode="&#xc2;" horiz-adv-x="537" 
d="M-33 0l333 661h36l115 -661h-55l-31 182h-250l-90 -182h-58zM139 228h217l-37 232q-2 11 -7.5 46.5t-8.5 58.5h-2q-41 -90 -52 -113zM194 696l118 147h57l78 -147h-50l-59 109l-91 -109h-53z" />
    <glyph glyph-name="Atilde" unicode="&#xc3;" horiz-adv-x="537" 
d="M-33 0l333 661h36l115 -661h-55l-31 182h-250l-90 -182h-58zM139 228h217l-37 232q-2 11 -7.5 46.5t-8.5 58.5h-2q-41 -90 -52 -113zM190 729q4 44 25 66.5t52 22.5q29 0 67 -25t54 -25q29 0 36 44h44q-4 -44 -25 -66.5t-52 -22.5q-29 0 -67 25t-54 25q-29 0 -36 -44h-44
z" />
    <glyph glyph-name="Adieresis" unicode="&#xc4;" horiz-adv-x="537" 
d="M-33 0l333 661h36l115 -661h-55l-31 182h-250l-90 -182h-58zM139 228h217l-37 232q-2 11 -7.5 46.5t-8.5 58.5h-2q-41 -90 -52 -113zM236 708q-31 0 -31 31q0 18 11.5 29.5t27.5 11.5q31 0 31 -31q0 -18 -11.5 -29.5t-27.5 -11.5zM406 708q-31 0 -31 31q0 18 11.5 29.5
t27.5 11.5q31 0 31 -31q0 -18 -11.5 -29.5t-27.5 -11.5z" />
    <glyph glyph-name="Aring" unicode="&#xc5;" horiz-adv-x="537" 
d="M-33 0l330 656q-30 7 -47.5 29t-17.5 54q0 46 30 74t74 28q40 0 65 -23.5t25 -62.5q0 -42 -25.5 -69t-63.5 -32l114 -654h-55l-31 182h-250l-90 -182h-58zM139 228h217l-37 232q-2 11 -7.5 46.5t-8.5 58.5h-2q-41 -90 -52 -113zM323 689q26 0 42.5 18.5t16.5 47.5
q0 23 -12.5 36.5t-34.5 13.5q-26 0 -42.5 -18.5t-16.5 -47.5q0 -23 12.5 -36.5t34.5 -13.5z" />
    <glyph glyph-name="AE" unicode="&#xc6;" horiz-adv-x="723" 
d="M-67 0l452 659h297l-16 -46h-219l-33 -252h214l-7 -46h-213l-35 -269h245l-7 -46h-296l24 182h-222l-123 -182h-61zM148 228h197l49 360h-2q-71 -107 -95 -143z" />
    <glyph glyph-name="Ccedilla" unicode="&#xc7;" horiz-adv-x="575" 
d="M173 -198l17 36q19 -11 47 -11t46 12t18 34q0 40 -81 36l38 84q-95 13 -154 79t-59 183q0 173 103.5 291t264.5 118q86 0 160 -37l-12 -48q-65 37 -145 37q-138 0 -226.5 -102.5t-88.5 -253.5q0 -100 52.5 -161t146.5 -61q90 0 176 46l12 -45q-83 -47 -184 -49l-21 -46
q32 -2 50 -20.5t18 -45.5q0 -44 -32.5 -67t-79.5 -23q-35 0 -66 14z" />
    <glyph glyph-name="Egrave" unicode="&#xc8;" horiz-adv-x="441" 
d="M14 0l138 659h284l-19 -46h-223l-52 -252h217l-10 -46h-217l-56 -269h248l-10 -46h-300zM287 696l-73 147h67l50 -147h-44z" />
    <glyph glyph-name="Eacute" unicode="&#xc9;" horiz-adv-x="441" 
d="M14 0l138 659h284l-19 -46h-223l-52 -252h217l-10 -46h-217l-56 -269h248l-10 -46h-300zM263 696l77 147h67l-100 -147h-44z" />
    <glyph glyph-name="Ecircumflex" unicode="&#xca;" horiz-adv-x="441" 
d="M14 0l138 659h284l-19 -46h-223l-52 -252h217l-10 -46h-217l-56 -269h248l-10 -46h-300zM170 696l118 147h57l78 -147h-50l-59 109l-91 -109h-53z" />
    <glyph glyph-name="Edieresis" unicode="&#xcb;" horiz-adv-x="441" 
d="M14 0l138 659h284l-19 -46h-223l-52 -252h217l-10 -46h-217l-56 -269h248l-10 -46h-300zM214 708q-31 0 -31 31q0 18 11.5 29.5t27.5 11.5q31 0 31 -31q0 -18 -11.5 -29.5t-27.5 -11.5zM384 708q-31 0 -31 31q0 18 11.5 29.5t27.5 11.5q31 0 31 -31q0 -18 -11.5 -29.5
t-27.5 -11.5z" />
    <glyph glyph-name="Igrave" unicode="&#xcc;" horiz-adv-x="218" 
d="M14 0l138 659h52l-138 -659h-52zM173 696l-73 147h67l50 -147h-44z" />
    <glyph glyph-name="Iacute" unicode="&#xcd;" horiz-adv-x="218" 
d="M14 0l138 659h52l-138 -659h-52zM156 696l77 147h67l-100 -147h-44z" />
    <glyph glyph-name="Icircumflex" unicode="&#xce;" horiz-adv-x="218" 
d="M14 0l138 659h52l-138 -659h-52zM57 696l118 147h57l78 -147h-50l-59 109l-91 -109h-53z" />
    <glyph glyph-name="Idieresis" unicode="&#xcf;" horiz-adv-x="218" 
d="M14 0l138 659h52l-138 -659h-52zM100 708q-31 0 -31 31q0 18 11.5 29.5t27.5 11.5q31 0 31 -31q0 -18 -11.5 -29.5t-27.5 -11.5zM270 708q-31 0 -31 31q0 18 11.5 29.5t27.5 11.5q31 0 31 -31q0 -18 -11.5 -29.5t-27.5 -11.5z" />
    <glyph glyph-name="Eth" unicode="&#xd0;" horiz-adv-x="604" 
d="M14 0l64 307h-83l10 46h83l64 306h85q108 0 177 -30q145 -63 145 -243q0 -115 -57 -211.5t-165 -140.5q-83 -34 -201 -34h-122zM76 46h72q98 0 169 30q91 39 138.5 122.5t47.5 190.5q0 150 -119 200q-57 24 -151 24h-39l-54 -260h172l-10 -46h-172z" />
    <glyph glyph-name="Ntilde" unicode="&#xd1;" horiz-adv-x="659" 
d="M14 0l138 659h48l230 -471q29 -60 45 -98h2q11 62 21 111l95 458h52l-138 -659h-39l-237 485q-34 71 -44 96h-2q-5 -40 -19 -105l-100 -476h-52zM273 729q4 44 25 66.5t52 22.5q29 0 67 -25t54 -25q29 0 36 44h44q-4 -44 -25 -66.5t-52 -22.5q-29 0 -67 25t-54 25
q-29 0 -36 -44h-44z" />
    <glyph glyph-name="Ograve" unicode="&#xd2;" horiz-adv-x="698" 
d="M304 -10q-119 0 -189 71.5t-70 206.5q0 101 41 190.5t122.5 147.5t185.5 58q119 0 189 -70.5t70 -205.5q0 -101 -41 -191t-122.5 -148.5t-185.5 -58.5zM307 38q68 0 124.5 31.5t91.5 82.5t54.5 112.5t19.5 125.5q0 108 -52 167t-152 59q-68 0 -125 -31t-92.5 -81.5
t-55 -112t-19.5 -124.5q0 -108 52 -168.5t154 -60.5zM397 696l-73 147h67l50 -147h-44z" />
    <glyph glyph-name="Oacute" unicode="&#xd3;" horiz-adv-x="698" 
d="M304 -10q-119 0 -189 71.5t-70 206.5q0 101 41 190.5t122.5 147.5t185.5 58q119 0 189 -70.5t70 -205.5q0 -101 -41 -191t-122.5 -148.5t-185.5 -58.5zM307 38q68 0 124.5 31.5t91.5 82.5t54.5 112.5t19.5 125.5q0 108 -52 167t-152 59q-68 0 -125 -31t-92.5 -81.5
t-55 -112t-19.5 -124.5q0 -108 52 -168.5t154 -60.5zM373 696l77 147h67l-100 -147h-44z" />
    <glyph glyph-name="Ocircumflex" unicode="&#xd4;" horiz-adv-x="698" 
d="M304 -10q-119 0 -189 71.5t-70 206.5q0 101 41 190.5t122.5 147.5t185.5 58q119 0 189 -70.5t70 -205.5q0 -101 -41 -191t-122.5 -148.5t-185.5 -58.5zM307 38q68 0 124.5 31.5t91.5 82.5t54.5 112.5t19.5 125.5q0 108 -52 167t-152 59q-68 0 -125 -31t-92.5 -81.5
t-55 -112t-19.5 -124.5q0 -108 52 -168.5t154 -60.5zM286 696l118 147h57l78 -147h-50l-59 109l-91 -109h-53z" />
    <glyph glyph-name="Otilde" unicode="&#xd5;" horiz-adv-x="698" 
d="M304 -10q-119 0 -189 71.5t-70 206.5q0 101 41 190.5t122.5 147.5t185.5 58q119 0 189 -70.5t70 -205.5q0 -101 -41 -191t-122.5 -148.5t-185.5 -58.5zM307 38q68 0 124.5 31.5t91.5 82.5t54.5 112.5t19.5 125.5q0 108 -52 167t-152 59q-68 0 -125 -31t-92.5 -81.5
t-55 -112t-19.5 -124.5q0 -108 52 -168.5t154 -60.5zM278 729q4 44 25 66.5t52 22.5q29 0 67 -25t54 -25q29 0 36 44h44q-4 -44 -25 -66.5t-52 -22.5q-29 0 -67 25t-54 25q-29 0 -36 -44h-44z" />
    <glyph glyph-name="Odieresis" unicode="&#xd6;" horiz-adv-x="698" 
d="M304 -10q-119 0 -189 71.5t-70 206.5q0 101 41 190.5t122.5 147.5t185.5 58q119 0 189 -70.5t70 -205.5q0 -101 -41 -191t-122.5 -148.5t-185.5 -58.5zM307 38q68 0 124.5 31.5t91.5 82.5t54.5 112.5t19.5 125.5q0 108 -52 167t-152 59q-68 0 -125 -31t-92.5 -81.5
t-55 -112t-19.5 -124.5q0 -108 52 -168.5t154 -60.5zM324 708q-31 0 -31 31q0 18 11.5 29.5t27.5 11.5q31 0 31 -31q0 -18 -11.5 -29.5t-27.5 -11.5zM494 708q-31 0 -31 31q0 18 11.5 29.5t27.5 11.5q31 0 31 -31q0 -18 -11.5 -29.5t-27.5 -11.5z" />
    <glyph glyph-name="multiply" unicode="&#xd7;" horiz-adv-x="511" 
d="M73 33l-36 36l185 186l-185 184l36 36l185 -184l185 185l36 -36l-185 -185l185 -186l-36 -36l-185 186z" />
    <glyph glyph-name="Oslash" unicode="&#xd8;" horiz-adv-x="698" 
d="M304 -10q-115 0 -183 65l-58 -62l-34 32l62 66q-46 70 -46 177q0 101 41 190.5t122.5 147.5t185.5 58q112 0 179 -61l62 65l34 -32l-65 -69q49 -70 49 -179q0 -101 -41 -191t-122.5 -148.5t-185.5 -58.5zM307 38q68 0 124.5 31.5t91.5 82.5t54.5 112.5t19.5 125.5
q0 84 -31 137l-409 -434q53 -55 150 -55zM101 267q0 -83 29 -135l407 433q-53 51 -144 51q-68 0 -125 -31t-92.5 -81.5t-55 -112t-19.5 -124.5z" />
    <glyph glyph-name="Ugrave" unicode="&#xd9;" horiz-adv-x="614" 
d="M252 -10q-91 0 -142.5 47.5t-51.5 134.5q0 32 11 85l84 402h52l-83 -397q-11 -55 -11 -86q0 -68 39 -103.5t108 -35.5q93 0 142 51q41 42 60 132l92 439h52l-94 -451q-21 -102 -73 -154q-64 -64 -185 -64zM362 696l-73 147h67l50 -147h-44z" />
    <glyph glyph-name="Uacute" unicode="&#xda;" horiz-adv-x="614" 
d="M252 -10q-91 0 -142.5 47.5t-51.5 134.5q0 32 11 85l84 402h52l-83 -397q-11 -55 -11 -86q0 -68 39 -103.5t108 -35.5q93 0 142 51q41 42 60 132l92 439h52l-94 -451q-21 -102 -73 -154q-64 -64 -185 -64zM352 696l77 147h67l-100 -147h-44z" />
    <glyph glyph-name="Ucircumflex" unicode="&#xdb;" horiz-adv-x="614" 
d="M252 -10q-91 0 -142.5 47.5t-51.5 134.5q0 32 11 85l84 402h52l-83 -397q-11 -55 -11 -86q0 -68 39 -103.5t108 -35.5q93 0 142 51q41 42 60 132l92 439h52l-94 -451q-21 -102 -73 -154q-64 -64 -185 -64zM256 696l118 147h57l78 -147h-50l-59 109l-91 -109h-53z" />
    <glyph glyph-name="Udieresis" unicode="&#xdc;" horiz-adv-x="614" 
d="M252 -10q-91 0 -142.5 47.5t-51.5 134.5q0 32 11 85l84 402h52l-83 -397q-11 -55 -11 -86q0 -68 39 -103.5t108 -35.5q93 0 142 51q41 42 60 132l92 439h52l-94 -451q-21 -102 -73 -154q-64 -64 -185 -64zM303 708q-31 0 -31 31q0 18 11.5 29.5t27.5 11.5q31 0 31 -31
q0 -18 -11.5 -29.5t-27.5 -11.5zM473 708q-31 0 -31 31q0 18 11.5 29.5t27.5 11.5q31 0 31 -31q0 -18 -11.5 -29.5t-27.5 -11.5z" />
    <glyph glyph-name="Yacute" unicode="&#xdd;" horiz-adv-x="469" 
d="M157 0l52 253l-139 406h57l114 -346h2l226 346h60l-267 -406l-53 -253h-52zM272 696l77 147h67l-100 -147h-44z" />
    <glyph glyph-name="Thorn" unicode="&#xde;" horiz-adv-x="477" 
d="M14 0l138 659h52l-24 -116h17q58 0 97 -12q59 -19 91 -63.5t32 -107.5q0 -79 -48 -138t-131 -78q-43 -10 -101 -10h-43l-28 -134h-52zM104 180h40q52 0 85 9q64 17 98.5 63.5t34.5 110.5q0 95 -87 124q-30 10 -78 10h-27z" />
    <glyph glyph-name="germandbls" unicode="&#xdf;" horiz-adv-x="549" 
d="M0 -141l140 671q12 62 41 102q55 76 155 76q77 0 123.5 -40.5t46.5 -118.5q0 -25 -5 -58q-86 -1 -130 -31t-44 -78q0 -27 14 -51t33.5 -43.5t39.5 -40t34 -50.5t14 -65q0 -66 -46 -104t-117 -38q-70 0 -121 32l20 44q47 -28 101 -28q46 0 77.5 23t31.5 68q0 27 -14 51.5
t-33.5 44.5t-39.5 41t-34 49t-14 61q0 67 47.5 108.5t131.5 47.5q1 5 1 22q0 55 -32.5 81t-80.5 26q-119 0 -148 -136l-138 -666h-54z" />
    <glyph glyph-name="agrave" unicode="&#xe0;" horiz-adv-x="449" 
d="M131 -10q-55 0 -88 34t-33 88q0 82 60 128q58 44 174 46l82 1q8 34 8 69q0 81 -92 81q-68 0 -144 -39l-8 47q78 40 156 40q61 0 100.5 -31t39.5 -97q0 -36 -18 -119l-7 -34q-19 -91 -19 -140q0 -28 7 -58l-45 -10q-11 42 -11 83q-71 -89 -162 -89zM141 38q53 0 103 45.5
t62 111.5l10 45h-45q-117 0 -162 -33q-43 -31 -43 -88q0 -81 75 -81zM243 531l-73 147h67l50 -147h-44z" />
    <glyph glyph-name="aacute" unicode="&#xe1;" horiz-adv-x="449" 
d="M131 -10q-55 0 -88 34t-33 88q0 82 60 128q58 44 174 46l82 1q8 34 8 69q0 81 -92 81q-68 0 -144 -39l-8 47q78 40 156 40q61 0 100.5 -31t39.5 -97q0 -36 -18 -119l-7 -34q-19 -91 -19 -140q0 -28 7 -58l-45 -10q-11 42 -11 83q-71 -89 -162 -89zM141 38q53 0 103 45.5
t62 111.5l10 45h-45q-117 0 -162 -33q-43 -31 -43 -88q0 -81 75 -81zM220 531l77 147h67l-100 -147h-44z" />
    <glyph glyph-name="acircumflex" unicode="&#xe2;" horiz-adv-x="449" 
d="M131 -10q-55 0 -88 34t-33 88q0 82 60 128q58 44 174 46l82 1q8 34 8 69q0 81 -92 81q-68 0 -144 -39l-8 47q78 40 156 40q61 0 100.5 -31t39.5 -97q0 -36 -18 -119l-7 -34q-19 -91 -19 -140q0 -28 7 -58l-45 -10q-11 42 -11 83q-71 -89 -162 -89zM141 38q53 0 103 45.5
t62 111.5l10 45h-45q-117 0 -162 -33q-43 -31 -43 -88q0 -81 75 -81zM127 531l118 147h57l78 -147h-50l-59 109l-91 -109h-53z" />
    <glyph glyph-name="atilde" unicode="&#xe3;" horiz-adv-x="449" 
d="M131 -10q-55 0 -88 34t-33 88q0 82 60 128q58 44 174 46l82 1q8 34 8 69q0 81 -92 81q-68 0 -144 -39l-8 47q78 40 156 40q61 0 100.5 -31t39.5 -97q0 -36 -18 -119l-7 -34q-19 -91 -19 -140q0 -28 7 -58l-45 -10q-11 42 -11 83q-71 -89 -162 -89zM141 38q53 0 103 45.5
t62 111.5l10 45h-45q-117 0 -162 -33q-43 -31 -43 -88q0 -81 75 -81zM123 557q4 44 25 66.5t52 22.5q29 0 67 -25t54 -25q29 0 36 44h44q-4 -44 -25 -66.5t-52 -22.5q-29 0 -67 25t-54 25q-29 0 -36 -44h-44z" />
    <glyph glyph-name="adieresis" unicode="&#xe4;" horiz-adv-x="449" 
d="M131 -10q-55 0 -88 34t-33 88q0 82 60 128q58 44 174 46l82 1q8 34 8 69q0 81 -92 81q-68 0 -144 -39l-8 47q78 40 156 40q61 0 100.5 -31t39.5 -97q0 -36 -18 -119l-7 -34q-19 -91 -19 -140q0 -28 7 -58l-45 -10q-11 42 -11 83q-71 -89 -162 -89zM141 38q53 0 103 45.5
t62 111.5l10 45h-45q-117 0 -162 -33q-43 -31 -43 -88q0 -81 75 -81zM176 568q-31 0 -31 31q0 18 11.5 29.5t27.5 11.5q31 0 31 -31q0 -18 -11.5 -29.5t-27.5 -11.5zM346 568q-31 0 -31 31q0 18 11.5 29.5t27.5 11.5q31 0 31 -31q0 -18 -11.5 -29.5t-27.5 -11.5z" />
    <glyph glyph-name="aring" unicode="&#xe5;" horiz-adv-x="449" 
d="M131 -10q-55 0 -88 34t-33 88q0 82 60 128q58 44 174 46l82 1q8 34 8 69q0 81 -92 81q-68 0 -144 -39l-8 47q78 40 156 40q61 0 100.5 -31t39.5 -97q0 -36 -18 -119l-7 -34q-19 -91 -19 -140q0 -28 7 -58l-45 -10q-11 42 -11 83q-71 -89 -162 -89zM141 38q53 0 103 45.5
t62 111.5l10 45h-45q-117 0 -162 -33q-43 -31 -43 -88q0 -81 75 -81zM265 524q-40 0 -65 23.5t-25 62.5q0 46 30 74t74 28q40 0 65 -23.5t25 -62.5q0 -46 -30 -74t-74 -28zM266 560q26 0 42.5 18.5t16.5 47.5q0 23 -12.5 36.5t-34.5 13.5q-26 0 -42.5 -18.5t-16.5 -47.5
q0 -23 12.5 -36.5t34.5 -13.5z" />
    <glyph glyph-name="ae" unicode="&#xe6;" horiz-adv-x="730" 
d="M135 -10q-58 0 -91.5 34.5t-33.5 91.5q0 76 60 119t176 44l77 1q9 43 9 75q0 43 -22 62.5t-70 19.5q-66 0 -142 -39l-8 47q78 40 153 40q117 0 135 -88h2q28 42 71.5 65t93.5 23q72 0 108.5 -41.5t36.5 -109.5q0 -59 -20 -97l-303 -3q-2 -24 -2 -36q0 -75 35.5 -117.5
t95.5 -42.5q64 0 128 39l16 -42q-67 -45 -149 -45q-60 0 -104.5 32.5t-57.5 94.5h-2q-30 -60 -82 -93.5t-110 -33.5zM141 38q56 0 105 45.5t63 122.5l5 27l-63 -1q-89 -2 -137 -30.5t-48 -82.5q0 -38 19 -59.5t56 -21.5zM375 281l251 3q9 23 9 54q0 99 -98 99
q-57 0 -103 -46t-59 -110z" />
    <glyph glyph-name="ccedilla" unicode="&#xe7;" horiz-adv-x="430" 
d="M87 -198l17 36q19 -11 47 -11t46 12t18 34q0 40 -81 36l39 85q-62 12 -101.5 62t-39.5 127q0 130 77.5 216t185.5 86q60 0 109 -22l-10 -48q-47 22 -100 22q-85 0 -145.5 -71t-60.5 -175q0 -69 33 -111t97 -42t128 39l13 -41q-59 -43 -141 -46l-21 -46q32 -2 50 -20.5
t18 -45.5q0 -44 -32.5 -67t-79.5 -23q-35 0 -66 14z" />
    <glyph glyph-name="egrave" unicode="&#xe8;" horiz-adv-x="451" 
d="M213 -10q-78 0 -129.5 52t-51.5 148q0 127 67 211t167 84q72 0 108.5 -41.5t36.5 -109.5q0 -56 -20 -101l-303 -3q-2 -22 -2 -33q0 -74 35.5 -116.5t95.5 -42.5q64 0 128 39l16 -42q-67 -45 -148 -45zM96 276l251 3q9 30 9 59q0 99 -95 99q-59 0 -105.5 -47t-59.5 -114z
M253 531l-73 147h67l50 -147h-44z" />
    <glyph glyph-name="eacute" unicode="&#xe9;" horiz-adv-x="451" 
d="M213 -10q-78 0 -129.5 52t-51.5 148q0 127 67 211t167 84q72 0 108.5 -41.5t36.5 -109.5q0 -56 -20 -101l-303 -3q-2 -22 -2 -33q0 -74 35.5 -116.5t95.5 -42.5q64 0 128 39l16 -42q-67 -45 -148 -45zM96 276l251 3q9 30 9 59q0 99 -95 99q-59 0 -105.5 -47t-59.5 -114z
M244 531l77 147h67l-100 -147h-44z" />
    <glyph glyph-name="ecircumflex" unicode="&#xea;" horiz-adv-x="451" 
d="M213 -10q-78 0 -129.5 52t-51.5 148q0 127 67 211t167 84q72 0 108.5 -41.5t36.5 -109.5q0 -56 -20 -101l-303 -3q-2 -22 -2 -33q0 -74 35.5 -116.5t95.5 -42.5q64 0 128 39l16 -42q-67 -45 -148 -45zM96 276l251 3q9 30 9 59q0 99 -95 99q-59 0 -105.5 -47t-59.5 -114z
M145 531l118 147h57l78 -147h-50l-59 109l-91 -109h-53z" />
    <glyph glyph-name="edieresis" unicode="&#xeb;" horiz-adv-x="451" 
d="M213 -10q-78 0 -129.5 52t-51.5 148q0 127 67 211t167 84q72 0 108.5 -41.5t36.5 -109.5q0 -56 -20 -101l-303 -3q-2 -22 -2 -33q0 -74 35.5 -116.5t95.5 -42.5q64 0 128 39l16 -42q-67 -45 -148 -45zM96 276l251 3q9 30 9 59q0 99 -95 99q-59 0 -105.5 -47t-59.5 -114z
M186 568q-31 0 -31 31q0 18 11.5 29.5t27.5 11.5q31 0 31 -31q0 -18 -11.5 -29.5t-27.5 -11.5zM356 568q-31 0 -31 31q0 18 11.5 29.5t27.5 11.5q31 0 31 -31q0 -18 -11.5 -29.5t-27.5 -11.5z" />
    <glyph glyph-name="igrave" unicode="&#xec;" horiz-adv-x="203" 
d="M133 531l-73 147h67l50 -147h-44zM11 0l99 473h52l-99 -473h-52z" />
    <glyph glyph-name="iacute" unicode="&#xed;" horiz-adv-x="203" 
d="M115 531l77 147h67l-100 -147h-44zM11 0l99 473h52l-99 -473h-52z" />
    <glyph glyph-name="icircumflex" unicode="&#xee;" horiz-adv-x="203" 
d="M11 0l99 473h52l-99 -473h-52zM18 531l118 147h57l78 -147h-50l-59 109l-91 -109h-53z" />
    <glyph glyph-name="idieresis" unicode="&#xef;" horiz-adv-x="203" 
d="M66 568q-31 0 -31 31q0 18 11.5 29.5t27.5 11.5q31 0 31 -31q0 -18 -11.5 -29.5t-27.5 -11.5zM236 568q-31 0 -31 31q0 18 11.5 29.5t27.5 11.5q31 0 31 -31q0 -18 -11.5 -29.5t-27.5 -11.5zM11 0l99 473h52l-99 -473h-52z" />
    <glyph glyph-name="eth" unicode="&#xf0;" horiz-adv-x="495" 
d="M197 -10q-84 0 -124.5 53t-40.5 133q0 135 73.5 222t168.5 87q84 0 125 -64h2q-14 122 -92 183l-124 -60l-18 37l101 48q-56 28 -138 34l11 45q107 -9 180 -53l110 53l18 -37l-92 -44q94 -86 94 -251q0 -183 -73.5 -284.5t-180.5 -101.5zM199 38q83 0 135 77t54 182
q2 66 -27 103t-84 37q-84 0 -136.5 -77t-52.5 -181q0 -141 111 -141z" />
    <glyph glyph-name="ntilde" unicode="&#xf1;" horiz-adv-x="468" 
d="M10 0l99 473h45l-18 -96h2q31 48 80 78t97 30q46 0 74.5 -28t28.5 -84q0 -33 -11 -88l-59 -285h-52l59 286q10 46 10 79q0 71 -62 71q-34 0 -73 -22.5t-69 -63.5q-35 -47 -53 -129l-46 -221h-52zM147 557q4 44 25 66.5t52 22.5q29 0 67 -25t54 -25q29 0 36 44h44
q-4 -44 -25 -66.5t-52 -22.5q-29 0 -67 25t-54 25q-29 0 -36 -44h-44z" />
    <glyph glyph-name="ograve" unicode="&#xf2;" horiz-adv-x="488" 
d="M197 -10q-82 0 -123.5 48.5t-41.5 123.5q0 142 73.5 232.5t173.5 90.5q82 0 123.5 -48.5t41.5 -123.5q0 -142 -73.5 -232.5t-173.5 -90.5zM199 38q85 0 137 81.5t52 187.5q0 130 -111 130q-85 0 -137 -81.5t-52 -187.5q0 -130 111 -130zM276 531l-73 147h67l50 -147h-44z
" />
    <glyph glyph-name="oacute" unicode="&#xf3;" horiz-adv-x="488" 
d="M197 -10q-82 0 -123.5 48.5t-41.5 123.5q0 142 73.5 232.5t173.5 90.5q82 0 123.5 -48.5t41.5 -123.5q0 -142 -73.5 -232.5t-173.5 -90.5zM199 38q85 0 137 81.5t52 187.5q0 130 -111 130q-85 0 -137 -81.5t-52 -187.5q0 -130 111 -130zM262 531l77 147h67l-100 -147h-44
z" />
    <glyph glyph-name="ocircumflex" unicode="&#xf4;" horiz-adv-x="488" 
d="M197 -10q-82 0 -123.5 48.5t-41.5 123.5q0 142 73.5 232.5t173.5 90.5q82 0 123.5 -48.5t41.5 -123.5q0 -142 -73.5 -232.5t-173.5 -90.5zM199 38q85 0 137 81.5t52 187.5q0 130 -111 130q-85 0 -137 -81.5t-52 -187.5q0 -130 111 -130zM175 531l118 147h57l78 -147h-50
l-59 109l-91 -109h-53z" />
    <glyph glyph-name="otilde" unicode="&#xf5;" horiz-adv-x="488" 
d="M197 -10q-82 0 -123.5 48.5t-41.5 123.5q0 142 73.5 232.5t173.5 90.5q82 0 123.5 -48.5t41.5 -123.5q0 -142 -73.5 -232.5t-173.5 -90.5zM199 38q85 0 137 81.5t52 187.5q0 130 -111 130q-85 0 -137 -81.5t-52 -187.5q0 -130 111 -130zM165 557q4 44 25 66.5t52 22.5
q29 0 67 -25t54 -25q29 0 36 44h44q-4 -44 -25 -66.5t-52 -22.5q-29 0 -67 25t-54 25q-29 0 -36 -44h-44z" />
    <glyph glyph-name="odieresis" unicode="&#xf6;" horiz-adv-x="488" 
d="M197 -10q-82 0 -123.5 48.5t-41.5 123.5q0 142 73.5 232.5t173.5 90.5q82 0 123.5 -48.5t41.5 -123.5q0 -142 -73.5 -232.5t-173.5 -90.5zM199 38q85 0 137 81.5t52 187.5q0 130 -111 130q-85 0 -137 -81.5t-52 -187.5q0 -130 111 -130zM218 568q-31 0 -31 31
q0 18 11.5 29.5t27.5 11.5q31 0 31 -31q0 -18 -11.5 -29.5t-27.5 -11.5zM388 568q-31 0 -31 31q0 18 11.5 29.5t27.5 11.5q31 0 31 -31q0 -18 -11.5 -29.5t-27.5 -11.5z" />
    <glyph glyph-name="divide" unicode="&#xf7;" horiz-adv-x="511" 
d="M242 44q-16 0 -27.5 12t-11.5 29t11.5 29t27.5 12t27.5 -12t11.5 -29t-11.5 -29t-27.5 -12zM5 231v47h475v-47h-475zM242 382q-16 0 -27.5 12t-11.5 29t11.5 29t27.5 12t27.5 -12t11.5 -29t-11.5 -29t-27.5 -12z" />
    <glyph glyph-name="oslash" unicode="&#xf8;" horiz-adv-x="488" 
d="M51 -17l-33 29l40 47q-26 42 -26 103q0 142 73.5 232.5t173.5 90.5q65 0 106 -33l34 41l33 -29l-37 -45q29 -44 29 -106q0 -142 -73.5 -232.5t-173.5 -90.5q-69 0 -111 36zM199 38q85 0 137 81.5t52 187.5q0 41 -11 67l-257 -308q26 -28 79 -28zM88 168q0 -38 8 -62
l256 306q-28 25 -75 25q-85 0 -137 -81.5t-52 -187.5z" />
    <glyph glyph-name="ugrave" unicode="&#xf9;" horiz-adv-x="475" 
d="M143 -10q-49 0 -78.5 27t-29.5 83q0 33 11 88l59 285h52l-59 -286q-10 -46 -10 -79q0 -70 62 -70q69 0 120.5 59t66.5 131l51 245h52l-56 -269q-18 -90 -18 -137q0 -29 7 -61l-45 -10q-13 47 -9 100h-2q-31 -47 -79.5 -76.5t-94.5 -29.5zM269 531l-73 147h67l50 -147h-44
z" />
    <glyph glyph-name="uacute" unicode="&#xfa;" horiz-adv-x="475" 
d="M143 -10q-49 0 -78.5 27t-29.5 83q0 33 11 88l59 285h52l-59 -286q-10 -46 -10 -79q0 -70 62 -70q69 0 120.5 59t66.5 131l51 245h52l-56 -269q-18 -90 -18 -137q0 -29 7 -61l-45 -10q-13 47 -9 100h-2q-31 -47 -79.5 -76.5t-94.5 -29.5zM258 531l77 147h67l-100 -147
h-44z" />
    <glyph glyph-name="ucircumflex" unicode="&#xfb;" horiz-adv-x="475" 
d="M143 -10q-49 0 -78.5 27t-29.5 83q0 33 11 88l59 285h52l-59 -286q-10 -46 -10 -79q0 -70 62 -70q69 0 120.5 59t66.5 131l51 245h52l-56 -269q-18 -90 -18 -137q0 -29 7 -61l-45 -10q-13 47 -9 100h-2q-31 -47 -79.5 -76.5t-94.5 -29.5zM155 531l118 147h57l78 -147h-50
l-59 109l-91 -109h-53z" />
    <glyph glyph-name="udieresis" unicode="&#xfc;" horiz-adv-x="475" 
d="M143 -10q-49 0 -78.5 27t-29.5 83q0 33 11 88l59 285h52l-59 -286q-10 -46 -10 -79q0 -70 62 -70q69 0 120.5 59t66.5 131l51 245h52l-56 -269q-18 -90 -18 -137q0 -29 7 -61l-45 -10q-13 47 -9 100h-2q-31 -47 -79.5 -76.5t-94.5 -29.5zM201 568q-31 0 -31 31
q0 18 11.5 29.5t27.5 11.5q31 0 31 -31q0 -18 -11.5 -29.5t-27.5 -11.5zM371 568q-31 0 -31 31q0 18 11.5 29.5t27.5 11.5q31 0 31 -31q0 -18 -11.5 -29.5t-27.5 -11.5z" />
    <glyph glyph-name="yacute" unicode="&#xfd;" horiz-adv-x="414" 
d="M-127 -224l18 46q24 -11 52 -11q56 0 101.5 39.5t94.5 143.5l-103 479h56l57 -276q11 -52 27 -132h2q20 49 55 122l137 286h60l-245 -497q-60 -123 -116.5 -168t-132.5 -45q-40 0 -63 13zM209 531l77 147h67l-100 -147h-44z" />
    <glyph glyph-name="thorn" unicode="&#xfe;" horiz-adv-x="482" 
d="M-39 -237l198 945h52l-48 -231q32 8 73 8q100 0 151 -56t51 -143q0 -74 -25.5 -132.5t-67 -93t-89.5 -52.5t-96 -18q-50 0 -97 13l-50 -240h-52zM74 52q32 -14 82 -14q98 0 162 67t64 178q0 75 -38.5 114.5t-112.5 39.5q-39 0 -79 -11z" />
    <glyph glyph-name="ydieresis" unicode="&#xff;" horiz-adv-x="414" 
d="M-127 -224l18 46q24 -11 52 -11q56 0 101.5 39.5t94.5 143.5l-103 479h56l57 -276q11 -52 27 -132h2q20 49 55 122l137 286h60l-245 -497q-60 -123 -116.5 -168t-132.5 -45q-40 0 -63 13zM155 568q-31 0 -31 31q0 18 11.5 29.5t27.5 11.5q31 0 31 -31q0 -18 -11.5 -29.5
t-27.5 -11.5zM325 568q-31 0 -31 31q0 18 11.5 29.5t27.5 11.5q31 0 31 -31q0 -18 -11.5 -29.5t-27.5 -11.5z" />
    <glyph glyph-name="Amacron" unicode="&#x100;" horiz-adv-x="537" 
d="M-33 0l333 661h36l115 -661h-55l-31 182h-250l-90 -182h-58zM139 228h217l-37 232q-2 11 -7.5 46.5t-8.5 58.5h-2q-41 -90 -52 -113zM206 722l10 46h232l-10 -46h-232z" />
    <glyph glyph-name="amacron" unicode="&#x101;" horiz-adv-x="449" 
d="M131 -10q-55 0 -88 34t-33 88q0 82 60 128q58 44 174 46l82 1q8 34 8 69q0 81 -92 81q-68 0 -144 -39l-8 47q78 40 156 40q61 0 100.5 -31t39.5 -97q0 -36 -18 -119l-7 -34q-19 -91 -19 -140q0 -28 7 -58l-45 -10q-11 42 -11 83q-71 -89 -162 -89zM141 38q53 0 103 45.5
t62 111.5l10 45h-45q-117 0 -162 -33q-43 -31 -43 -88q0 -81 75 -81zM145 576l10 46h232l-10 -46h-232z" />
    <glyph glyph-name="Abreve" unicode="&#x102;" horiz-adv-x="537" 
d="M-33 0l333 661h36l115 -661h-55l-31 182h-250l-90 -182h-58zM139 228h217l-37 232q-2 11 -7.5 46.5t-8.5 58.5h-2q-41 -90 -52 -113zM324 708q-52 0 -78 30.5t-22 83.5h42q0 -71 62 -71t87 71h43q-11 -52 -46.5 -83t-87.5 -31z" />
    <glyph glyph-name="abreve" unicode="&#x103;" horiz-adv-x="449" 
d="M131 -10q-55 0 -88 34t-33 88q0 82 60 128q58 44 174 46l82 1q8 34 8 69q0 81 -92 81q-68 0 -144 -39l-8 47q78 40 156 40q61 0 100.5 -31t39.5 -97q0 -36 -18 -119l-7 -34q-19 -91 -19 -140q0 -28 7 -58l-45 -10q-11 42 -11 83q-71 -89 -162 -89zM141 38q53 0 103 45.5
t62 111.5l10 45h-45q-117 0 -162 -33q-43 -31 -43 -88q0 -81 75 -81zM259 546q-52 0 -78 30.5t-22 83.5h42q0 -71 62 -71t87 71h43q-11 -52 -46.5 -83t-87.5 -31z" />
    <glyph glyph-name="Aogonek" unicode="&#x104;" horiz-adv-x="537" 
d="M-33 0l333 662h36l114 -662q-55 -23 -97 -59.5t-42 -75.5q0 -35 35 -35q15 0 39 8l6 -40q-26 -10 -58 -10q-38 0 -55 19t-17 48q0 54 40 94t93 64l-29 169h-250l-90 -182h-58zM139 228h217l-37 232q-2 11 -7.5 46.5t-8.5 58.5h-2q-41 -90 -52 -113z" />
    <glyph glyph-name="aogonek" unicode="&#x105;" horiz-adv-x="449" 
d="M131 -10q-55 0 -88 34t-33 88q0 82 60 128q58 44 174 46l82 1q8 34 8 69q0 81 -92 81q-68 0 -144 -39l-8 47q78 40 156 40q61 0 100.5 -31t39.5 -97q0 -36 -18 -119l-7 -34q-19 -92 -19 -143q0 -27 7 -57q-55 -25 -97 -63t-42 -76q0 -35 35 -35q15 0 39 8l6 -40
q-26 -10 -58 -10q-38 0 -55 19t-17 48q0 88 138 165q-5 28 -5 59q-71 -89 -162 -89zM141 38q53 0 103 45.5t62 111.5l10 45h-45q-117 0 -162 -33q-43 -31 -43 -88q0 -81 75 -81z" />
    <glyph glyph-name="Cacute" unicode="&#x106;" horiz-adv-x="575" 
d="M302 -10q-111 0 -184 67t-73 198q0 173 103.5 291t264.5 118q86 0 160 -37l-12 -48q-65 37 -145 37q-138 0 -226.5 -102.5t-88.5 -253.5q0 -100 52.5 -161t146.5 -61q90 0 176 46l12 -45q-86 -49 -186 -49zM350 696l77 147h67l-100 -147h-44z" />
    <glyph glyph-name="cacute" unicode="&#x107;" horiz-adv-x="430" 
d="M214 -10q-79 0 -130.5 51t-51.5 142q0 129 77.5 215.5t185.5 86.5q60 0 109 -22l-10 -48q-47 22 -100 22q-86 0 -146 -71.5t-60 -174.5q0 -69 33 -111t97 -42t128 39l13 -41q-65 -46 -145 -46zM249 531l77 147h67l-100 -147h-44z" />
    <glyph glyph-name="Ccircumflex" unicode="&#x108;" horiz-adv-x="575" 
d="M302 -10q-111 0 -184 67t-73 198q0 173 103.5 291t264.5 118q86 0 160 -37l-12 -48q-65 37 -145 37q-138 0 -226.5 -102.5t-88.5 -253.5q0 -100 52.5 -161t146.5 -61q90 0 176 46l12 -45q-86 -49 -186 -49zM263 696l118 147h57l78 -147h-50l-59 109l-91 -109h-53z" />
    <glyph glyph-name="ccircumflex" unicode="&#x109;" horiz-adv-x="430" 
d="M214 -10q-79 0 -130.5 51t-51.5 142q0 129 77.5 215.5t185.5 86.5q60 0 109 -22l-10 -48q-47 22 -100 22q-86 0 -146 -71.5t-60 -174.5q0 -69 33 -111t97 -42t128 39l13 -41q-65 -46 -145 -46zM150 531l118 147h57l78 -147h-50l-59 109l-91 -109h-53z" />
    <glyph glyph-name="Cdotaccent" unicode="&#x10a;" horiz-adv-x="575" 
d="M302 -10q-111 0 -184 67t-73 198q0 173 103.5 291t264.5 118q86 0 160 -37l-12 -48q-65 37 -145 37q-138 0 -226.5 -102.5t-88.5 -253.5q0 -100 52.5 -161t146.5 -61q90 0 176 46l12 -45q-86 -49 -186 -49zM391 723q-34 0 -34 33q0 20 13.5 33.5t31.5 13.5q34 0 34 -33
q0 -20 -13.5 -33.5t-31.5 -13.5z" />
    <glyph glyph-name="cdotaccent" unicode="&#x10b;" horiz-adv-x="430" 
d="M214 -10q-79 0 -130.5 51t-51.5 142q0 129 77.5 215.5t185.5 86.5q60 0 109 -22l-10 -48q-47 22 -100 22q-86 0 -146 -71.5t-60 -174.5q0 -69 33 -111t97 -42t128 39l13 -41q-65 -46 -145 -46zM287 593q-34 0 -34 33q0 20 13.5 33.5t31.5 13.5q34 0 34 -33
q0 -20 -13.5 -33.5t-31.5 -13.5z" />
    <glyph glyph-name="Ccaron" unicode="&#x10c;" horiz-adv-x="575" 
d="M302 -10q-111 0 -184 67t-73 198q0 173 103.5 291t264.5 118q86 0 160 -37l-12 -48q-65 37 -145 37q-138 0 -226.5 -102.5t-88.5 -253.5q0 -100 52.5 -161t146.5 -61q90 0 176 46l12 -45q-86 -49 -186 -49zM361 697l-78 147h50l59 -109l91 109h53l-118 -147h-57z" />
    <glyph glyph-name="ccaron" unicode="&#x10d;" horiz-adv-x="430" 
d="M214 -10q-79 0 -130.5 51t-51.5 142q0 129 77.5 215.5t185.5 86.5q60 0 109 -22l-10 -48q-47 22 -100 22q-86 0 -146 -71.5t-60 -174.5q0 -69 33 -111t97 -42t128 39l13 -41q-65 -46 -145 -46zM248 532l-78 147h50l59 -109l91 109h53l-118 -147h-57z" />
    <glyph glyph-name="Dcaron" unicode="&#x10e;" horiz-adv-x="604" 
d="M14 0l138 659h85q108 0 177 -30q145 -63 145 -238q0 -122 -56.5 -217.5t-165.5 -139.5q-83 -34 -201 -34h-122zM76 46h72q98 0 169 30q91 38 138.5 123t47.5 193q0 147 -119 197q-57 24 -151 24h-39zM298 697l-78 147h50l59 -109l91 109h53l-118 -147h-57z" />
    <glyph glyph-name="dcaron" unicode="&#x10f;" horiz-adv-x="474" 
d="M224 -10q-83 0 -137.5 52.5t-54.5 148.5q0 133 80 213.5t189 80.5q56 0 102 -17l50 240h52l-144 -688q-62 -30 -137 -30zM232 38q47 0 84 17l76 365q-44 17 -88 17q-90 0 -153 -66.5t-63 -174.5q0 -73 36.5 -115.5t107.5 -42.5zM515 513l61 195h57l-76 -195h-42z" />
    <glyph glyph-name="Dcroat" unicode="&#x110;" horiz-adv-x="604" 
d="M14 0l64 307h-83l10 46h83l64 306h85q108 0 177 -30q145 -63 145 -243q0 -115 -57 -211.5t-165 -140.5q-83 -34 -201 -34h-122zM76 46h72q98 0 169 30q91 39 138.5 122.5t47.5 190.5q0 150 -119 200q-57 24 -151 24h-39l-54 -260h172l-10 -46h-172z" />
    <glyph glyph-name="dcroat" unicode="&#x111;" horiz-adv-x="474" 
d="M224 -10q-83 0 -137.5 52.5t-54.5 148.5q0 133 80 213.5t189 80.5q56 0 102 -17l21 103h-136l10 46h136l19 91h52l-19 -91h64l-10 -46h-64l-115 -551q-62 -30 -137 -30zM232 38q47 0 84 17l76 365q-44 17 -88 17q-90 0 -153 -66.5t-63 -174.5q0 -73 36.5 -115.5
t107.5 -42.5z" />
    <glyph glyph-name="Emacron" unicode="&#x112;" horiz-adv-x="441" 
d="M14 0l138 659h284l-19 -46h-223l-52 -252h217l-10 -46h-217l-56 -269h248l-10 -46h-300zM184 722l10 46h232l-10 -46h-232z" />
    <glyph glyph-name="emacron" unicode="&#x113;" horiz-adv-x="451" 
d="M213 -10q-78 0 -129.5 52t-51.5 148q0 127 67 211t167 84q72 0 108.5 -41.5t36.5 -109.5q0 -56 -20 -101l-303 -3q-2 -22 -2 -33q0 -74 35.5 -116.5t95.5 -42.5q64 0 128 39l16 -42q-67 -45 -148 -45zM96 276l251 3q9 30 9 59q0 99 -95 99q-59 0 -105.5 -47t-59.5 -114z
M167 576l10 46h232l-10 -46h-232z" />
    <glyph glyph-name="Ebreve" unicode="&#x114;" horiz-adv-x="441" 
d="M14 0l138 659h284l-19 -46h-223l-52 -252h217l-10 -46h-217l-56 -269h248l-10 -46h-300zM302 708q-52 0 -78 30.5t-22 83.5h42q0 -71 62 -71t87 71h43q-11 -52 -46.5 -83t-87.5 -31z" />
    <glyph glyph-name="ebreve" unicode="&#x115;" horiz-adv-x="451" 
d="M213 -10q-78 0 -129.5 52t-51.5 148q0 127 67 211t167 84q72 0 108.5 -41.5t36.5 -109.5q0 -56 -20 -101l-303 -3q-2 -22 -2 -33q0 -74 35.5 -116.5t95.5 -42.5q64 0 128 39l16 -42q-67 -45 -148 -45zM96 276l251 3q9 30 9 59q0 99 -95 99q-59 0 -105.5 -47t-59.5 -114z
M269 546q-52 0 -78 30.5t-22 83.5h42q0 -71 62 -71t87 71h43q-11 -52 -46.5 -83t-87.5 -31z" />
    <glyph glyph-name="Edotaccent" unicode="&#x116;" horiz-adv-x="441" 
d="M14 0l138 659h284l-19 -46h-223l-52 -252h217l-10 -46h-217l-56 -269h248l-10 -46h-300zM304 723q-34 0 -34 33q0 20 13.5 33.5t31.5 13.5q34 0 34 -33q0 -20 -13.5 -33.5t-31.5 -13.5z" />
    <glyph glyph-name="edotaccent" unicode="&#x117;" horiz-adv-x="451" 
d="M213 -10q-78 0 -129.5 52t-51.5 148q0 127 67 211t167 84q72 0 108.5 -41.5t36.5 -109.5q0 -56 -20 -101l-303 -3q-2 -22 -2 -33q0 -74 35.5 -116.5t95.5 -42.5q64 0 128 39l16 -42q-67 -45 -148 -45zM96 276l251 3q9 30 9 59q0 99 -95 99q-59 0 -105.5 -47t-59.5 -114z
M280 593q-34 0 -34 33q0 20 13.5 33.5t31.5 13.5q34 0 34 -33q0 -20 -13.5 -33.5t-31.5 -13.5z" />
    <glyph glyph-name="Eogonek" unicode="&#x118;" horiz-adv-x="441" 
d="M14 0l138 659h284l-19 -46h-223l-52 -252h217l-10 -46h-217l-56 -269h248l-10 -46h-16q-141 -66 -141 -135q0 -35 35 -35q15 0 39 8l6 -40q-33 -10 -58 -10q-38 0 -55 19t-17 48q0 81 115 145h-208z" />
    <glyph glyph-name="eogonek" unicode="&#x119;" horiz-adv-x="451" 
d="M227 -212q-38 0 -55 19t-17 48q0 69 85 135v2q-91 -11 -149.5 42.5t-58.5 153.5q0 128 67 212.5t167 84.5q72 0 108.5 -41.5t36.5 -109.5q0 -56 -20 -101l-303 -3q-2 -16 -2 -34q0 -74 35.5 -116t95.5 -42q64 0 128 39l15 -41q-55 -32 -105 -82t-50 -89q0 -35 35 -35
q15 0 39 8l6 -40q-26 -10 -58 -10zM96 276l251 3q9 30 9 59q0 99 -95 99q-59 0 -105.5 -47t-59.5 -114z" />
    <glyph glyph-name="Ecaron" unicode="&#x11a;" horiz-adv-x="448" 
d="M14 0l138 659h284l-19 -46h-223l-52 -252h217l-10 -46h-217l-56 -269h248l-10 -46h-300zM268 697l-78 147h50l59 -109l91 109h53l-118 -147h-57z" />
    <glyph glyph-name="ecaron" unicode="&#x11b;" horiz-adv-x="451" 
d="M213 -10q-78 0 -129.5 52t-51.5 148q0 127 67 211t167 84q72 0 108.5 -41.5t36.5 -109.5q0 -56 -20 -101l-303 -3q-2 -22 -2 -33q0 -74 35.5 -116.5t95.5 -42.5q64 0 128 39l16 -42q-67 -45 -148 -45zM96 276l251 3q9 30 9 59q0 99 -95 99q-59 0 -105.5 -47t-59.5 -114z
M243 532l-78 147h50l59 -109l91 109h53l-118 -147h-57z" />
    <glyph glyph-name="Gcircumflex" unicode="&#x11c;" horiz-adv-x="631" 
d="M301 -10q-106 0 -181 68.5t-75 199.5q0 168 105.5 287t269.5 119q90 0 171 -37l-12 -48q-74 38 -155 38q-137 0 -230 -99.5t-93 -250.5q0 -115 57 -172t147 -57q95 0 150 32l50 238h52l-56 -266q-29 -21 -84.5 -36.5t-115.5 -15.5zM273 696l118 147h57l78 -147h-50
l-59 109l-91 -109h-53z" />
    <glyph glyph-name="gcircumflex" unicode="&#x11d;" horiz-adv-x="472" 
d="M-9 -201l21 45q55 -34 118 -34q74 0 112.5 42.5t58.5 136.5l19 87h-2q-67 -85 -154 -85q-63 0 -97.5 40.5t-34.5 115.5q0 87 30.5 162t97.5 125.5t159 50.5q76 0 133 -22l-104 -500q-9 -44 -23 -76.5t-38.5 -62.5t-65 -45.5t-94.5 -15.5q-73 0 -136 36zM170 38
q52 0 107.5 53.5t80.5 170.5l35 165q-33 10 -77 10q-104 0 -166 -83t-62 -197q0 -119 82 -119zM179 531l118 147h57l78 -147h-50l-59 109l-91 -109h-53z" />
    <glyph glyph-name="Gbreve" unicode="&#x11e;" horiz-adv-x="631" 
d="M301 -10q-106 0 -181 68.5t-75 199.5q0 168 105.5 287t269.5 119q90 0 171 -37l-12 -48q-74 38 -155 38q-137 0 -230 -99.5t-93 -250.5q0 -115 57 -172t147 -57q95 0 150 32l50 238h52l-56 -266q-29 -21 -84.5 -36.5t-115.5 -15.5zM399 708q-52 0 -78 30.5t-22 83.5h42
q0 -71 62 -71t87 71h43q-11 -52 -46.5 -83t-87.5 -31z" />
    <glyph glyph-name="gbreve" unicode="&#x11f;" horiz-adv-x="472" 
d="M-9 -201l21 45q55 -34 118 -34q74 0 112.5 42.5t58.5 136.5l19 87h-2q-67 -85 -154 -85q-63 0 -97.5 40.5t-34.5 115.5q0 87 30.5 162t97.5 125.5t159 50.5q76 0 133 -22l-104 -500q-9 -44 -23 -76.5t-38.5 -62.5t-65 -45.5t-94.5 -15.5q-73 0 -136 36zM170 38
q52 0 107.5 53.5t80.5 170.5l35 165q-33 10 -77 10q-104 0 -166 -83t-62 -197q0 -119 82 -119zM308 546q-52 0 -78 30.5t-22 83.5h42q0 -71 62 -71t87 71h43q-11 -52 -46.5 -83t-87.5 -31z" />
    <glyph glyph-name="Gdotaccent" unicode="&#x120;" horiz-adv-x="631" 
d="M301 -10q-106 0 -181 68.5t-75 199.5q0 168 105.5 287t269.5 119q90 0 171 -37l-12 -48q-74 38 -155 38q-137 0 -230 -99.5t-93 -250.5q0 -115 57 -172t147 -57q95 0 150 32l50 238h52l-56 -266q-29 -21 -84.5 -36.5t-115.5 -15.5zM401 723q-34 0 -34 33q0 20 13.5 33.5
t31.5 13.5q34 0 34 -33q0 -20 -13.5 -33.5t-31.5 -13.5z" />
    <glyph glyph-name="gdotaccent" unicode="&#x121;" horiz-adv-x="472" 
d="M-9 -201l21 45q55 -34 118 -34q74 0 112.5 42.5t58.5 136.5l19 87h-2q-67 -85 -154 -85q-63 0 -97.5 40.5t-34.5 115.5q0 87 30.5 162t97.5 125.5t159 50.5q76 0 133 -22l-104 -500q-9 -44 -23 -76.5t-38.5 -62.5t-65 -45.5t-94.5 -15.5q-73 0 -136 36zM170 38
q52 0 107.5 53.5t80.5 170.5l35 165q-33 10 -77 10q-104 0 -166 -83t-62 -197q0 -119 82 -119zM311 593q-34 0 -34 33q0 20 13.5 33.5t31.5 13.5q34 0 34 -33q0 -20 -13.5 -33.5t-31.5 -13.5z" />
    <glyph glyph-name="Gcommaaccent" unicode="&#x122;" horiz-adv-x="631" 
d="M301 -10q-106 0 -181 68.5t-75 199.5q0 168 105.5 287t269.5 119q90 0 171 -37l-12 -48q-74 38 -155 38q-137 0 -230 -99.5t-93 -250.5q0 -115 57 -172t147 -57q95 0 150 32l50 238h52l-56 -266q-29 -21 -84.5 -36.5t-115.5 -15.5zM191 -237l-15 39q89 27 89 91
q0 24 -13 55h50q14 -21 14 -58q0 -44 -31.5 -77t-93.5 -50z" />
    <glyph glyph-name="gcommaaccent" unicode="&#x123;" horiz-adv-x="472" 
d="M273 531q-14 21 -14 49q0 104 130 136l14 -37q-93 -28 -93 -93q0 -24 13 -55h-50zM-9 -201l21 45q55 -34 118 -34q74 0 112.5 42.5t58.5 136.5l19 87h-2q-67 -85 -154 -85q-63 0 -97.5 42.5t-34.5 122.5q0 83 30.5 156t97.5 123t159 50q76 0 133 -22l-104 -500
q-9 -44 -23 -76.5t-38.5 -62.5t-65 -45.5t-94.5 -15.5q-73 0 -136 36zM170 38q52 0 107.5 53.5t80.5 170.5l35 165q-33 10 -77 10q-103 0 -165.5 -81.5t-62.5 -188.5q0 -129 82 -129z" />
    <glyph glyph-name="Hcircumflex" unicode="&#x124;" horiz-adv-x="621" 
d="M14 0l138 659h52l-63 -301h351l63 301h52l-138 -659h-52l65 312h-351l-65 -312h-52zM258 696l118 147h57l78 -147h-50l-59 109l-91 -109h-53z" />
    <glyph glyph-name="hcircumflex" unicode="&#x125;" horiz-adv-x="468" 
d="M10 0l148 708h52l-50 -240q-9 -45 -24 -91h2q31 48 80 78t97 30q46 0 74.5 -28t28.5 -84q0 -33 -11 -88l-59 -285h-52l59 286q10 46 10 79q0 71 -62 71q-34 0 -73 -22.5t-69 -63.5q-35 -47 -53 -129l-46 -221h-52zM59 726l118 147h57l78 -147h-50l-59 109l-91 -109h-53z
" />
    <glyph glyph-name="Hbar" unicode="&#x126;" horiz-adv-x="621" 
d="M14 0l100 478h-74l10 46h73l29 135h52l-29 -135h351l29 135h52l-29 -135h76l-10 -46h-75l-100 -478h-52l65 312h-351l-65 -312h-52zM141 358h351l25 120h-351z" />
    <glyph glyph-name="hbar" unicode="&#x127;" horiz-adv-x="468" 
d="M10 0l118 566h-67l10 46h67l20 96h52l-20 -96h123l-10 -46h-123l-20 -98q-9 -45 -24 -91h2q31 48 80 78t97 30q46 0 74.5 -28t28.5 -84q0 -33 -11 -88l-59 -285h-52l59 286q10 46 10 79q0 71 -62 71q-34 0 -73 -22.5t-69 -63.5q-35 -47 -53 -129l-46 -221h-52z" />
    <glyph glyph-name="Itilde" unicode="&#x128;" horiz-adv-x="218" 
d="M14 0l138 659h52l-138 -659h-52zM54 729q4 44 25 66.5t52 22.5q29 0 67 -25t54 -25q29 0 36 44h44q-4 -44 -25 -66.5t-52 -22.5q-29 0 -67 25t-54 25q-29 0 -36 -44h-44z" />
    <glyph glyph-name="itilde" unicode="&#x129;" horiz-adv-x="203" 
d="M15 557q4 44 25 66.5t52 22.5q29 0 67 -25t54 -25q29 0 36 44h44q-4 -44 -25 -66.5t-52 -22.5q-29 0 -67 25t-54 25q-29 0 -36 -44h-44zM11 0l99 473h52l-99 -473h-52z" />
    <glyph glyph-name="imacron" unicode="&#x12b;" horiz-adv-x="203" 
d="M35 576l10 46h232l-10 -46h-232zM11 0l99 473h52l-99 -473h-52z" />
    <glyph glyph-name="Ibreve" unicode="&#x12c;" horiz-adv-x="218" 
d="M14 0l138 659h52l-138 -659h-52zM188 708q-52 0 -78 30.5t-22 83.5h42q0 -71 62 -71t87 71h43q-11 -52 -46.5 -83t-87.5 -31z" />
    <glyph glyph-name="Iogonek" unicode="&#x12e;" horiz-adv-x="218" 
d="M17 14l135 645h52l-138 -659q-92 -85 -92 -135q0 -35 35 -35q15 0 39 8l6 -40q-33 -10 -58 -10q-38 0 -55 19.5t-17 49.5q0 28 17.5 60.5t33 50.5t42.5 46z" />
    <glyph glyph-name="iogonek" unicode="&#x12f;" horiz-adv-x="203" 
d="M-8 -212q-38 0 -55 19.5t-17 49.5q0 28 17.5 60.5t33 50.5t42.5 46l96 459h52l-99 -473q-92 -85 -92 -135q0 -35 35 -35q15 0 39 8l6 -40q-33 -10 -58 -10zM162 593q-34 0 -34 33q0 20 13 33.5t31 13.5q35 0 35 -35q0 -19 -13.5 -32t-31.5 -13z" />
    <glyph glyph-name="Idotaccent" unicode="&#x130;" horiz-adv-x="218" 
d="M14 0l138 659h52l-138 -659h-52zM192 723q-34 0 -34 33q0 20 13.5 33.5t31.5 13.5q34 0 34 -33q0 -20 -13.5 -33.5t-31.5 -13.5z" />
    <glyph glyph-name="dotlessi" unicode="&#x131;" horiz-adv-x="203" 
d="M11 0l99 473h52l-99 -473h-52z" />
    <glyph glyph-name="IJ" unicode="&#x132;" horiz-adv-x="472" 
d="M14 0l138 659h52l-138 -659h-52zM72 -167l18 45q27 -11 63 -11q61 0 87 48q17 31 28 85l138 659h52l-136 -649q-17 -80 -38 -119q-40 -72 -138 -72q-40 0 -74 14z" />
    <glyph glyph-name="ij" unicode="&#x133;" horiz-adv-x="389" 
d="M10 0l99 473h52l-99 -473h-52zM162 593q-34 0 -34 33q0 20 13.5 33.5t31.5 13.5q34 0 34 -33q0 -20 -13.5 -33.5t-31.5 -13.5zM42 -226l15 46q20 -9 44 -9q40 0 60.5 24.5t33.5 85.5l116 552h52l-125 -593q-25 -117 -139 -117q-32 0 -57 11zM364 593q-34 0 -34 33
q0 20 13.5 33.5t31.5 13.5q34 0 34 -33q0 -20 -13.5 -33.5t-31.5 -13.5z" />
    <glyph glyph-name="Jcircumflex" unicode="&#x134;" horiz-adv-x="260" 
d="M-140 -167l18 45q27 -11 63 -11q61 0 87 48q17 31 28 85l138 659h52l-136 -649q-17 -80 -38 -119q-40 -72 -138 -72q-40 0 -74 14zM94 696l118 147h57l78 -147h-50l-59 109l-91 -109h-53z" />
    <glyph glyph-name="jcircumflex" unicode="&#x135;" horiz-adv-x="222" 
d="M-141 -226l15 46q20 -9 44 -9q40 0 60.5 24.5t33.5 85.5l116 552h52l-125 -593q-25 -117 -139 -117q-32 0 -57 11zM31 531l118 147h57l78 -147h-50l-59 109l-91 -109h-53z" />
    <glyph glyph-name="Kcommaaccent" unicode="&#x136;" horiz-adv-x="507" 
d="M14 0l138 659h52l-66 -317h3l302 317h64l-327 -341l230 -318h-65l-214 300h-2l-63 -300h-52zM100 -237l-15 39q89 27 89 91q0 24 -13 55h50q14 -21 14 -58q0 -44 -31.5 -77t-93.5 -50z" />
    <glyph glyph-name="kcommaaccent" unicode="&#x137;" horiz-adv-x="404" 
d="M10 0l148 708h52l-88 -421h2l216 186h68l-241 -206l180 -267h-63l-167 252h-2l-53 -252h-52zM74 -237l-15 39q89 27 89 91q0 24 -13 55h50q14 -21 14 -58q0 -44 -31.5 -77t-93.5 -50z" />
    <glyph glyph-name="Lacute" unicode="&#x139;" horiz-adv-x="414" 
d="M14 0l138 659h52l-128 -613h248l-10 -46h-300zM167 696l77 147h67l-100 -147h-44z" />
    <glyph glyph-name="lacute" unicode="&#x13a;" horiz-adv-x="235" 
d="M170 732l65 127h64l-85 -127h-44zM97 -5q-67 0 -67 63q0 14 6 43l127 607h52l-127 -610q-4 -16 -4 -29q0 -26 27 -26q17 0 39 9v-46q-22 -11 -53 -11z" />
    <glyph glyph-name="Lcommaaccent" unicode="&#x13b;" horiz-adv-x="414" 
d="M14 0l138 659h52l-128 -613h248l-10 -46h-300zM66 -237l-15 39q89 27 89 91q0 24 -13 55h50q14 -21 14 -58q0 -44 -31.5 -77t-93.5 -50z" />
    <glyph glyph-name="lcommaaccent" unicode="&#x13c;" horiz-adv-x="235" 
d="M97 -5q-67 0 -67 63q0 14 6 43l127 607h52l-127 -610q-4 -16 -4 -29q0 -26 27 -26q17 0 39 9v-46q-22 -11 -53 -11zM-29 -237l-15 39q89 27 89 91q0 24 -13 55h50q14 -21 14 -58q0 -44 -31.5 -77t-93.5 -50z" />
    <glyph glyph-name="Lcaron" unicode="&#x13d;" horiz-adv-x="414" 
d="M14 0l138 659h52l-128 -613h248l-10 -46h-300zM276 513l61 195h57l-76 -195h-42z" />
    <glyph glyph-name="lcaron" unicode="&#x13e;" horiz-adv-x="235" 
d="M97 -5q-67 0 -67 63q0 14 6 43l127 607h52l-127 -610q-4 -16 -4 -29q0 -26 27 -26q17 0 39 9v-46q-22 -11 -53 -11zM227 513l61 195h57l-76 -195h-42z" />
    <glyph glyph-name="Ldot" unicode="&#x13f;" horiz-adv-x="414" 
d="M14 0l138 659h52l-128 -613h248l-10 -46h-300zM308 301q-16 0 -26 11.5t-10 26.5q0 19 12 31.5t30 12.5q16 0 26 -11.5t10 -26.5q0 -19 -12 -31.5t-30 -12.5z" />
    <glyph glyph-name="ldot" unicode="&#x140;" horiz-adv-x="249" 
d="M97 -5q-67 0 -67 63q0 14 6 43l127 607h52l-127 -610q-4 -16 -4 -29q0 -26 27 -26q17 0 39 9v-46q-22 -11 -53 -11zM229 295q-16 0 -26 11.5t-10 26.5q0 19 12 31.5t30 12.5q16 0 26 -11.5t10 -26.5q0 -19 -12 -31.5t-30 -12.5z" />
    <glyph glyph-name="Lslash" unicode="&#x141;" horiz-adv-x="414" 
d="M15 0l54 257l-63 -34l12 54l63 34l72 348h52l-66 -319l174 93l-12 -54l-173 -92l-51 -241h248l-10 -46h-300z" />
    <glyph glyph-name="lslash" unicode="&#x142;" horiz-adv-x="235" 
d="M97 -5q-67 0 -67 63q0 14 6 43l40 194l-62 -32l12 56l62 32l75 357h52l-68 -327l73 38l-12 -56l-73 -39l-47 -226q-4 -16 -4 -29q0 -26 27 -26q17 0 39 9v-46q-22 -11 -53 -11z" />
    <glyph glyph-name="Nacute" unicode="&#x143;" horiz-adv-x="659" 
d="M14 0l138 659h48l230 -471q29 -60 45 -98h2q11 62 21 111l95 458h52l-138 -659h-39l-237 485q-34 71 -44 96h-2q-5 -40 -19 -105l-100 -476h-52zM368 696l77 147h67l-100 -147h-44z" />
    <glyph glyph-name="nacute" unicode="&#x144;" horiz-adv-x="468" 
d="M10 0l99 473h45l-18 -96h2q31 48 80 78t97 30q46 0 74.5 -28t28.5 -84q0 -33 -11 -88l-59 -285h-52l59 286q10 46 10 79q0 71 -62 71q-34 0 -73 -22.5t-69 -63.5q-35 -47 -53 -129l-46 -221h-52zM250 531l77 147h67l-100 -147h-44z" />
    <glyph glyph-name="Ncommaaccent" unicode="&#x145;" horiz-adv-x="659" 
d="M14 0l138 659h48l230 -471q29 -60 45 -98h2q11 62 21 111l95 458h52l-138 -659h-39l-237 485q-34 71 -44 96h-2q-5 -40 -19 -105l-100 -476h-52zM173 -237l-15 39q89 27 89 91q0 24 -13 55h50q14 -21 14 -58q0 -44 -31.5 -77t-93.5 -50z" />
    <glyph glyph-name="ncommaaccent" unicode="&#x146;" horiz-adv-x="468" 
d="M10 0l99 473h45l-18 -96h2q31 48 80 78t97 30q46 0 74.5 -28t28.5 -84q0 -33 -11 -88l-59 -285h-52l59 286q10 46 10 79q0 71 -62 71q-34 0 -73 -22.5t-69 -63.5q-35 -47 -53 -129l-46 -221h-52zM80 -237l-15 39q89 27 89 91q0 24 -13 55h50q14 -21 14 -58
q0 -44 -31.5 -77t-93.5 -50z" />
    <glyph glyph-name="Ncaron" unicode="&#x147;" horiz-adv-x="659" 
d="M14 0l138 659h48l230 -471q29 -60 45 -98h2q11 62 21 111l95 458h52l-138 -659h-39l-237 485q-34 71 -44 96h-2q-5 -40 -19 -105l-100 -476h-52zM379 697l-78 147h50l59 -109l91 109h53l-118 -147h-57z" />
    <glyph glyph-name="ncaron" unicode="&#x148;" horiz-adv-x="468" 
d="M10 0l99 473h45l-18 -96h2q31 48 80 78t97 30q46 0 74.5 -28t28.5 -84q0 -33 -11 -88l-59 -285h-52l59 286q10 46 10 79q0 71 -62 71q-34 0 -73 -22.5t-69 -63.5q-35 -47 -53 -129l-46 -221h-52zM246 532l-78 147h50l59 -109l91 109h53l-118 -147h-57z" />
    <glyph glyph-name="Eng" unicode="&#x14a;" horiz-adv-x="659" 
d="M14 0l138 659h48l230 -471q29 -60 45 -98h2q11 62 21 111l95 458h52l-155 -737q-25 -117 -139 -117q-32 0 -57 11l15 46q20 -9 44 -9q40 0 60 24t34 86l12 56l-228 466q-34 71 -44 96h-2q-5 -40 -19 -105l-100 -476h-52z" />
    <glyph glyph-name="eng" unicode="&#x14b;" horiz-adv-x="468" 
d="M10 0l99 473h45l-18 -96h2q31 48 80 78t97 30q46 0 74.5 -28t28.5 -84q0 -33 -11 -88l-76 -363q-25 -117 -139 -117q-32 0 -57 11l15 46q20 -9 44 -9q40 0 60.5 24.5t33.5 85.5l67 323q10 46 10 79q0 71 -62 71q-34 0 -73 -22.5t-69 -63.5q-35 -47 -53 -129l-46 -221h-52
z" />
    <glyph glyph-name="Omacron" unicode="&#x14c;" horiz-adv-x="698" 
d="M304 -10q-119 0 -189 71.5t-70 206.5q0 101 41 190.5t122.5 147.5t185.5 58q119 0 189 -70.5t70 -205.5q0 -101 -41 -191t-122.5 -148.5t-185.5 -58.5zM307 38q68 0 124.5 31.5t91.5 82.5t54.5 112.5t19.5 125.5q0 108 -52 167t-152 59q-68 0 -125 -31t-92.5 -81.5
t-55 -112t-19.5 -124.5q0 -108 52 -168.5t154 -60.5zM289 722l10 46h232l-10 -46h-232z" />
    <glyph glyph-name="omacron" unicode="&#x14d;" horiz-adv-x="488" 
d="M197 -10q-82 0 -123.5 48.5t-41.5 123.5q0 142 73.5 232.5t173.5 90.5q82 0 123.5 -48.5t41.5 -123.5q0 -142 -73.5 -232.5t-173.5 -90.5zM199 38q85 0 137 81.5t52 187.5q0 130 -111 130q-85 0 -137 -81.5t-52 -187.5q0 -130 111 -130zM187 576l10 46h232l-10 -46h-232z
" />
    <glyph glyph-name="Obreve" unicode="&#x14e;" horiz-adv-x="698" 
d="M304 -10q-119 0 -189 71.5t-70 206.5q0 101 41 190.5t122.5 147.5t185.5 58q119 0 189 -70.5t70 -205.5q0 -101 -41 -191t-122.5 -148.5t-185.5 -58.5zM307 38q68 0 124.5 31.5t91.5 82.5t54.5 112.5t19.5 125.5q0 108 -52 167t-152 59q-68 0 -125 -31t-92.5 -81.5
t-55 -112t-19.5 -124.5q0 -108 52 -168.5t154 -60.5zM412 708q-52 0 -78 30.5t-22 83.5h42q0 -71 62 -71t87 71h43q-11 -52 -46.5 -83t-87.5 -31z" />
    <glyph glyph-name="obreve" unicode="&#x14f;" horiz-adv-x="488" 
d="M197 -10q-82 0 -123.5 48.5t-41.5 123.5q0 142 73.5 232.5t173.5 90.5q82 0 123.5 -48.5t41.5 -123.5q0 -142 -73.5 -232.5t-173.5 -90.5zM199 38q85 0 137 81.5t52 187.5q0 130 -111 130q-85 0 -137 -81.5t-52 -187.5q0 -130 111 -130zM297 546q-52 0 -78 30.5t-22 83.5
h42q0 -71 62 -71t87 71h43q-11 -52 -46.5 -83t-87.5 -31z" />
    <glyph glyph-name="Ohungarumlaut" unicode="&#x150;" horiz-adv-x="698" 
d="M304 -10q-119 0 -189 71.5t-70 206.5q0 101 41 190.5t122.5 147.5t185.5 58q119 0 189 -70.5t70 -205.5q0 -101 -41 -191t-122.5 -148.5t-185.5 -58.5zM307 38q68 0 124.5 31.5t91.5 82.5t54.5 112.5t19.5 125.5q0 108 -52 167t-152 59q-68 0 -125 -31t-92.5 -81.5
t-55 -112t-19.5 -124.5q0 -108 52 -168.5t154 -60.5zM307 696l77 147h67l-100 -147h-44zM462 696l77 147h67l-100 -147h-44z" />
    <glyph glyph-name="ohungarumlaut" unicode="&#x151;" horiz-adv-x="488" 
d="M197 -10q-82 0 -123.5 48.5t-41.5 123.5q0 142 73.5 232.5t173.5 90.5q82 0 123.5 -48.5t41.5 -123.5q0 -142 -73.5 -232.5t-173.5 -90.5zM199 38q85 0 137 81.5t52 187.5q0 130 -111 130q-85 0 -137 -81.5t-52 -187.5q0 -130 111 -130zM196 531l77 147h67l-100 -147h-44
zM351 531l77 147h67l-100 -147h-44z" />
    <glyph glyph-name="OE" unicode="&#x152;" horiz-adv-x="823" 
d="M45 264q0 166 103 283t283 117q26 0 89 -2.5t100 -2.5h198l-19 -46h-223l-52 -252h217l-10 -46h-217l-56 -269h248l-10 -46h-212q-29 0 -89 -4.5t-84 -4.5q-122 0 -194 71t-72 202zM101 271q0 -109 54.5 -171t165.5 -62q34 0 84 5l119 571q-51 3 -95 3q-82 0 -146.5 -30
t-103 -80.5t-58.5 -110.5t-20 -125z" />
    <glyph glyph-name="oe" unicode="&#x153;" horiz-adv-x="799" 
d="M197 -10q-82 0 -123.5 48.5t-41.5 123.5q0 142 73.5 232.5t173.5 90.5q120 0 150 -111h2q29 53 77.5 82t105.5 29q72 0 108.5 -41.5t36.5 -109.5q0 -56 -20 -101l-303 -3q-2 -20 -2 -34q0 -74 35.5 -116t95.5 -42q64 0 128 39l16 -42q-67 -45 -149 -45q-60 0 -105 32.5
t-61 93.5h-2q-33 -59 -85 -92.5t-110 -33.5zM199 38q85 0 137 81.5t52 187.5q0 130 -111 130q-85 0 -137 -81.5t-52 -187.5q0 -130 111 -130zM444 276l251 3q9 30 9 59q0 99 -98 99q-57 0 -103 -47t-59 -114z" />
    <glyph glyph-name="Racute" unicode="&#x154;" horiz-adv-x="504" 
d="M14 0l138 659h105q95 0 144 -47t49 -113q0 -164 -184 -197v-2q21 -38 47 -94l94 -206h-59l-73 164q-33 72 -62 129h-86l-61 -293h-52zM137 339h65q92 0 142.5 39.5t50.5 115.5q0 53 -34 86t-109 33h-58zM251 696l77 147h67l-100 -147h-44z" />
    <glyph glyph-name="racute" unicode="&#x155;" horiz-adv-x="293" 
d="M10 0l99 473h45l-18 -96h2q23 52 60.5 80t78.5 28q28 0 46 -10l-22 -51q-14 7 -36 7q-48 0 -93 -58.5t-67 -165.5l-43 -207h-52zM187 531l77 147h67l-100 -147h-44z" />
    <glyph glyph-name="Rcommaaccent" unicode="&#x156;" horiz-adv-x="504" 
d="M14 0l138 659h105q95 0 144 -47t49 -113q0 -164 -184 -197v-2q21 -38 47 -94l94 -206h-59l-73 164q-33 72 -62 129h-86l-61 -293h-52zM137 339h65q92 0 142.5 39.5t50.5 115.5q0 53 -34 86t-109 33h-58zM97 -237l-15 39q89 27 89 91q0 24 -13 55h50q14 -21 14 -58
q0 -44 -31.5 -77t-93.5 -50z" />
    <glyph glyph-name="rcommaaccent" unicode="&#x157;" horiz-adv-x="293" 
d="M10 0l99 473h45l-18 -96h2q23 52 60.5 80t78.5 28q28 0 46 -10l-22 -51q-14 7 -36 7q-48 0 -93 -58.5t-67 -165.5l-43 -207h-52zM-54 -237l-15 39q89 27 89 91q0 24 -13 55h50q14 -21 14 -58q0 -44 -31.5 -77t-93.5 -50z" />
    <glyph glyph-name="Rcaron" unicode="&#x158;" horiz-adv-x="504" 
d="M14 0l138 659h105q95 0 144 -47t49 -113q0 -164 -184 -197v-2q21 -38 47 -94l94 -206h-59l-73 164q-33 72 -62 129h-86l-61 -293h-52zM137 339h65q92 0 142.5 39.5t50.5 115.5q0 53 -34 86t-109 33h-58zM262 697l-78 147h50l59 -109l91 109h53l-118 -147h-57z" />
    <glyph glyph-name="rcaron" unicode="&#x159;" horiz-adv-x="293" 
d="M10 0l99 473h45l-18 -96h2q23 52 60.5 80t78.5 28q28 0 46 -10l-22 -51q-14 7 -36 7q-48 0 -93 -58.5t-67 -165.5l-43 -207h-52zM181 532l-78 147h50l59 -109l91 109h53l-118 -147h-57z" />
    <glyph glyph-name="Sacute" unicode="&#x15a;" horiz-adv-x="453" 
d="M8 30l21 44q53 -36 125 -36q63 0 107 32.5t44 101.5q0 44 -21.5 78.5t-52.5 58.5t-61.5 48.5t-52 60t-21.5 81.5q0 75 53 120t136 45q72 0 132 -30l-11 -47q-56 30 -122 30q-54 0 -93.5 -29t-39.5 -83q0 -32 15.5 -59t38.5 -45.5t50.5 -41t50.5 -45t38.5 -58t15.5 -79.5
q0 -94 -60 -140.5t-148 -46.5q-81 0 -144 40zM256 696l77 147h67l-100 -147h-44z" />
    <glyph glyph-name="sacute" unicode="&#x15b;" horiz-adv-x="338" 
d="M-18 22l20 44q47 -28 102 -28q45 0 76.5 22t31.5 63q0 27 -15 49.5t-37 39.5t-44 35.5t-37 45.5t-15 61q0 57 38.5 94t109.5 37q55 0 98 -16l-8 -46q-45 15 -87 15q-43 0 -70 -20t-27 -60q0 -26 15 -48t37 -38.5t44 -35t37 -47t15 -64.5q0 -62 -46 -98.5t-117 -36.5
q-70 0 -121 32zM186 531l77 147h67l-100 -147h-44z" />
    <glyph glyph-name="Scircumflex" unicode="&#x15c;" horiz-adv-x="453" 
d="M8 30l21 44q53 -36 125 -36q63 0 107 32.5t44 101.5q0 44 -21.5 78.5t-52.5 58.5t-61.5 48.5t-52 60t-21.5 81.5q0 75 53 120t136 45q72 0 132 -30l-11 -47q-56 30 -122 30q-54 0 -93.5 -29t-39.5 -83q0 -32 15.5 -59t38.5 -45.5t50.5 -41t50.5 -45t38.5 -58t15.5 -79.5
q0 -94 -60 -140.5t-148 -46.5q-81 0 -144 40zM155 696l118 147h57l78 -147h-50l-59 109l-91 -109h-53z" />
    <glyph glyph-name="scircumflex" unicode="&#x15d;" horiz-adv-x="338" 
d="M-18 22l20 44q47 -28 102 -28q45 0 76.5 22t31.5 63q0 27 -15 49.5t-37 39.5t-44 35.5t-37 45.5t-15 61q0 57 38.5 94t109.5 37q55 0 98 -16l-8 -46q-45 15 -87 15q-43 0 -70 -20t-27 -60q0 -26 15 -48t37 -38.5t44 -35t37 -47t15 -64.5q0 -62 -46 -98.5t-117 -36.5
q-70 0 -121 32zM90 531l118 147h57l78 -147h-50l-59 109l-91 -109h-53z" />
    <glyph glyph-name="Scedilla" unicode="&#x15e;" horiz-adv-x="453" 
d="M38 -198l17 36q19 -11 47 -11t46 12t18 34q0 40 -81 36l38 83q-66 7 -115 38l21 44q53 -36 125 -36q63 0 107 32.5t44 101.5q0 44 -21.5 78.5t-52.5 58.5t-61.5 48.5t-52 60t-21.5 81.5q0 75 53 120t136 45q72 0 132 -30l-11 -47q-56 30 -122 30q-54 0 -93.5 -29
t-39.5 -83q0 -32 15.5 -59t38.5 -45.5t50.5 -41t50.5 -45t38.5 -58t15.5 -79.5q0 -89 -54 -135.5t-137 -50.5l-21 -47q32 -2 50 -20.5t18 -45.5q0 -44 -32.5 -67t-79.5 -23q-35 0 -66 14z" />
    <glyph glyph-name="scedilla" unicode="&#x15f;" horiz-adv-x="338" 
d="M-14 -198l17 36q19 -11 47 -11t46 12t18 34q0 40 -81 36l38 83q-52 6 -89 30l20 44q47 -28 102 -28q45 0 76.5 22t31.5 63q0 27 -15 49t-37 39.5t-44 35.5t-37 45.5t-15 61.5q0 57 38.5 94t109.5 37q55 0 98 -16l-8 -46q-45 15 -87 15q-43 0 -70 -20t-27 -60
q0 -22 11 -41t27.5 -32t35.5 -29.5t35.5 -32.5t27.5 -41.5t11 -56.5q0 -59 -41.5 -94.5t-107.5 -39.5l-21 -47q32 -2 50 -20.5t18 -45.5q0 -44 -32.5 -67t-79.5 -23q-35 0 -66 14z" />
    <glyph glyph-name="Scaron" unicode="&#x160;" horiz-adv-x="453" 
d="M8 30l21 44q53 -36 125 -36q63 0 107 32.5t44 101.5q0 44 -21.5 78.5t-52.5 58.5t-61.5 48.5t-52 60t-21.5 81.5q0 75 53 120t136 45q72 0 132 -30l-11 -47q-56 30 -122 30q-54 0 -93.5 -29t-39.5 -83q0 -32 15.5 -59t38.5 -45.5t50.5 -41t50.5 -45t38.5 -58t15.5 -79.5
q0 -94 -60 -140.5t-148 -46.5q-81 0 -144 40zM253 697l-78 147h50l59 -109l91 109h53l-118 -147h-57z" />
    <glyph glyph-name="scaron" unicode="&#x161;" horiz-adv-x="338" 
d="M-18 22l20 44q47 -28 102 -28q45 0 76.5 22t31.5 63q0 27 -15 49.5t-37 39.5t-44 35.5t-37 45.5t-15 61q0 57 38.5 94t109.5 37q55 0 98 -16l-8 -46q-45 15 -87 15q-43 0 -70 -20t-27 -60q0 -26 15 -48t37 -38.5t44 -35t37 -47t15 -64.5q0 -62 -46 -98.5t-117 -36.5
q-70 0 -121 32zM188 532l-78 147h50l59 -109l91 109h53l-118 -147h-57z" />
    <glyph glyph-name="Tcommaaccent" unicode="&#x162;" horiz-adv-x="454" 
d="M131 0l128 613h-193l10 46h440l-19 -46h-186l-128 -613h-52zM64 -237l-15 39q89 27 89 91q0 24 -13 55h50q14 -21 14 -58q0 -44 -31.5 -77t-93.5 -50z" />
    <glyph glyph-name="tcommaaccent" unicode="&#x163;" horiz-adv-x="310" 
d="M143 -10q-45 0 -68 22.5t-23 59.5q0 18 6 50l64 305h-75l10 46h75l23 106l56 19l-27 -125h130l-19 -46h-120l-65 -308q-4 -19 -4 -36q0 -45 46 -45q37 0 79 27l15 -42q-46 -33 -103 -33zM19 -237l-15 39q89 27 89 91q0 24 -13 55h50q14 -21 14 -58q0 -44 -31.5 -77
t-93.5 -50z" />
    <glyph glyph-name="Tcaron" unicode="&#x164;" horiz-adv-x="454" 
d="M131 0l128 613h-193l10 46h440l-19 -46h-186l-128 -613h-52zM278 697l-78 147h50l59 -109l91 109h53l-118 -147h-57z" />
    <glyph glyph-name="tcaron" unicode="&#x165;" horiz-adv-x="310" 
d="M143 -10q-45 0 -68 22.5t-23 59.5q0 18 6 50l64 305h-75l10 46h75l23 106l56 19l-27 -125h130l-19 -46h-120l-65 -308q-4 -19 -4 -36q0 -45 46 -45q37 0 79 27l15 -42q-46 -33 -103 -33zM239 513l61 195h57l-76 -195h-42z" />
    <glyph glyph-name="Tbar" unicode="&#x166;" horiz-adv-x="454" 
d="M131 0l64 309h-114l10 46h114l54 258h-193l10 46h440l-19 -46h-186l-54 -258h116l-10 -46h-116l-64 -309h-52z" />
    <glyph glyph-name="tbar" unicode="&#x167;" horiz-adv-x="310" 
d="M143 -10q-45 0 -68 22.5t-23 59.5q0 18 6 50l27 129h-71l10 46h70l28 130h-75l10 46h75l23 108l55 13l-26 -121h130l-19 -46h-120l-28 -130h94l-10 -46h-93l-28 -132q-4 -19 -4 -36q0 -45 46 -45q37 0 79 27l15 -42q-46 -33 -103 -33z" />
    <glyph glyph-name="Utilde" unicode="&#x168;" horiz-adv-x="614" 
d="M252 -10q-91 0 -142.5 47.5t-51.5 134.5q0 32 11 85l84 402h52l-83 -397q-11 -55 -11 -86q0 -68 39 -103.5t108 -35.5q93 0 142 51q41 42 60 132l92 439h52l-94 -451q-21 -102 -73 -154q-64 -64 -185 -64zM257 729q4 44 25 66.5t52 22.5q29 0 67 -25t54 -25q29 0 36 44
h44q-4 -44 -25 -66.5t-52 -22.5q-29 0 -67 25t-54 25q-29 0 -36 -44h-44z" />
    <glyph glyph-name="utilde" unicode="&#x169;" horiz-adv-x="475" 
d="M143 -10q-49 0 -78.5 27t-29.5 83q0 33 11 88l59 285h52l-59 -286q-10 -46 -10 -79q0 -70 62 -70q69 0 120.5 59t66.5 131l51 245h52l-56 -269q-18 -90 -18 -137q0 -29 7 -61l-45 -10q-13 47 -9 100h-2q-31 -47 -79.5 -76.5t-94.5 -29.5zM159 557q4 44 25 66.5t52 22.5
q29 0 67 -25t54 -25q29 0 36 44h44q-4 -44 -25 -66.5t-52 -22.5q-29 0 -67 25t-54 25q-29 0 -36 -44h-44z" />
    <glyph glyph-name="Umacron" unicode="&#x16a;" horiz-adv-x="614" 
d="M252 -10q-91 0 -142.5 47.5t-51.5 134.5q0 32 11 85l84 402h52l-83 -397q-11 -55 -11 -86q0 -68 39 -103.5t108 -35.5q93 0 142 51q41 42 60 132l92 439h52l-94 -451q-21 -102 -73 -154q-64 -64 -185 -64zM273 722l10 46h232l-10 -46h-232z" />
    <glyph glyph-name="umacron" unicode="&#x16b;" horiz-adv-x="475" 
d="M143 -10q-49 0 -78.5 27t-29.5 83q0 33 11 88l59 285h52l-59 -286q-10 -46 -10 -79q0 -70 62 -70q69 0 120.5 59t66.5 131l51 245h52l-56 -269q-18 -90 -18 -137q0 -29 7 -61l-45 -10q-13 47 -9 100h-2q-31 -47 -79.5 -76.5t-94.5 -29.5zM174 576l10 46h232l-10 -46h-232
z" />
    <glyph glyph-name="Ubreve" unicode="&#x16c;" horiz-adv-x="614" 
d="M252 -10q-91 0 -142.5 47.5t-51.5 134.5q0 32 11 85l84 402h52l-83 -397q-11 -55 -11 -86q0 -68 39 -103.5t108 -35.5q93 0 142 51q41 42 60 132l92 439h52l-94 -451q-21 -102 -73 -154q-64 -64 -185 -64zM388 708q-52 0 -78 30.5t-22 83.5h42q0 -71 62 -71t87 71h43
q-11 -52 -46.5 -83t-87.5 -31z" />
    <glyph glyph-name="ubreve" unicode="&#x16d;" horiz-adv-x="475" 
d="M143 -10q-49 0 -78.5 27t-29.5 83q0 33 11 88l59 285h52l-59 -286q-10 -46 -10 -79q0 -70 62 -70q69 0 120.5 59t66.5 131l51 245h52l-56 -269q-18 -90 -18 -137q0 -29 7 -61l-45 -10q-13 47 -9 100h-2q-31 -47 -79.5 -76.5t-94.5 -29.5zM284 546q-52 0 -78 30.5
t-22 83.5h42q0 -71 62 -71t87 71h43q-11 -52 -46.5 -83t-87.5 -31z" />
    <glyph glyph-name="Uring" unicode="&#x16e;" horiz-adv-x="614" 
d="M252 -10q-91 0 -142.5 47.5t-51.5 134.5q0 32 11 85l84 402h52l-83 -397q-11 -55 -11 -86q0 -68 39 -103.5t108 -35.5q93 0 142 51q41 42 60 132l92 439h52l-94 -451q-21 -102 -73 -154q-64 -64 -185 -64zM378 653q-40 0 -65 23.5t-25 62.5q0 46 30 74t74 28
q40 0 65 -23.5t25 -62.5q0 -46 -30 -74t-74 -28zM379 689q26 0 42.5 18.5t16.5 47.5q0 23 -12.5 36.5t-34.5 13.5q-26 0 -42.5 -18.5t-16.5 -47.5q0 -23 12.5 -36.5t34.5 -13.5z" />
    <glyph glyph-name="uring" unicode="&#x16f;" horiz-adv-x="475" 
d="M143 -10q-49 0 -78.5 27t-29.5 83q0 33 11 88l59 285h52l-59 -286q-10 -46 -10 -79q0 -70 62 -70q69 0 120.5 59t66.5 131l51 245h52l-56 -269q-18 -90 -18 -137q0 -29 7 -61l-45 -10q-13 47 -9 100h-2q-31 -47 -79.5 -76.5t-94.5 -29.5zM282 524q-40 0 -65 23.5
t-25 62.5q0 46 30 74t74 28q40 0 65 -23.5t25 -62.5q0 -46 -30 -74t-74 -28zM283 560q26 0 42.5 18.5t16.5 47.5q0 23 -12.5 36.5t-34.5 13.5q-26 0 -42.5 -18.5t-16.5 -47.5q0 -23 12.5 -36.5t34.5 -13.5z" />
    <glyph glyph-name="Uhungarumlaut" unicode="&#x170;" horiz-adv-x="614" 
d="M252 -10q-91 0 -142.5 47.5t-51.5 134.5q0 32 11 85l84 402h52l-83 -397q-11 -55 -11 -86q0 -68 39 -103.5t108 -35.5q93 0 142 51q41 42 60 132l92 439h52l-94 -451q-21 -102 -73 -154q-64 -64 -185 -64zM280 696l77 147h67l-100 -147h-44zM435 696l77 147h67l-100 -147
h-44z" />
    <glyph glyph-name="uhungarumlaut" unicode="&#x171;" horiz-adv-x="475" 
d="M143 -10q-49 0 -78.5 27t-29.5 83q0 33 11 88l59 285h52l-59 -286q-10 -46 -10 -79q0 -70 62 -70q69 0 120.5 59t66.5 131l51 245h52l-56 -269q-18 -90 -18 -137q0 -29 7 -61l-45 -10q-13 47 -9 100h-2q-31 -47 -79.5 -76.5t-94.5 -29.5zM180 531l77 147h67l-100 -147
h-44zM335 531l77 147h67l-100 -147h-44z" />
    <glyph glyph-name="Uogonek" unicode="&#x172;" horiz-adv-x="614" 
d="M222 -212q-38 0 -55 19t-17 48q0 76 95 133v2q-88 2 -137.5 49t-49.5 133q0 32 11 85l84 402h52l-83 -397q-11 -55 -11 -86q0 -68 38.5 -103.5t107.5 -35.5q90 0 137 45.5t66 137.5l92 439h52l-94 -451q-33 -162 -149 -202q-64 -22 -112.5 -61.5t-48.5 -79.5
q0 -35 35 -35q15 0 39 8l6 -40q-33 -10 -58 -10z" />
    <glyph glyph-name="uogonek" unicode="&#x173;" horiz-adv-x="475" 
d="M252 -212q-38 0 -55 19t-17 48q0 90 142 169q-6 41 -4 72h-2q-31 -48 -79.5 -77t-93.5 -29q-49 0 -78.5 27t-29.5 83q0 33 11 88l59 285h52l-59 -286q-10 -46 -10 -79q0 -70 62 -70q69 0 120.5 59t66.5 131l51 245h52l-56 -269q-18 -90 -18 -137q0 -29 7 -61
q-61 -29 -102 -65.5t-41 -75.5q0 -35 35 -35q15 0 39 8l6 -40q-26 -10 -58 -10z" />
    <glyph glyph-name="Wcircumflex" unicode="&#x174;" horiz-adv-x="784" 
d="M157 -3l-87 662h58l49 -421q9 -71 16 -155h2q34 86 62 145l155 321l-14 110h56l49 -421q7 -60 15 -155h2q25 69 61 145l203 431h60l-321 -662h-41l-41 324q-12 95 -16 143h-2q-28 -64 -69 -150l-153 -317h-44zM335 696l118 147h57l78 -147h-50l-59 109l-91 -109h-53z" />
    <glyph glyph-name="wcircumflex" unicode="&#x175;" horiz-adv-x="640" 
d="M111 -3l-70 476h51l38 -262q10 -67 16 -134h2q16 41 50 114l133 282h46l30 -261q8 -73 13 -135h2q21 51 49 113l126 283h58l-224 -476h-47l-29 263q-7 61 -13 128h-2q-25 -60 -58 -130l-125 -261h-46zM233 531l118 147h57l78 -147h-50l-59 109l-91 -109h-53z" />
    <glyph glyph-name="Ycircumflex" unicode="&#x176;" horiz-adv-x="469" 
d="M157 0l52 253l-139 406h57l114 -346h2l226 346h60l-267 -406l-53 -253h-52zM169 696l118 147h57l78 -147h-50l-59 109l-91 -109h-53z" />
    <glyph glyph-name="ycircumflex" unicode="&#x177;" horiz-adv-x="414" 
d="M-127 -224l18 46q24 -11 52 -11q56 0 101.5 39.5t94.5 143.5l-103 479h56l57 -276q11 -52 27 -132h2q20 49 55 122l137 286h60l-245 -497q-60 -123 -116.5 -168t-132.5 -45q-40 0 -63 13zM112 531l118 147h57l78 -147h-50l-59 109l-91 -109h-53z" />
    <glyph glyph-name="Ydieresis" unicode="&#x178;" horiz-adv-x="469" 
d="M157 0l52 253l-139 406h57l114 -346h2l226 346h60l-267 -406l-53 -253h-52zM223 708q-31 0 -31 31q0 18 11.5 29.5t27.5 11.5q31 0 31 -31q0 -18 -11.5 -29.5t-27.5 -11.5zM393 708q-31 0 -31 31q0 18 11.5 29.5t27.5 11.5q31 0 31 -31q0 -18 -11.5 -29.5t-27.5 -11.5z
" />
    <glyph glyph-name="Zacute" unicode="&#x179;" 
d="M-20 0l436 613h-306l-7 46h405l-435 -613h341l-10 -46h-424zM269 696l77 147h67l-100 -147h-44z" />
    <glyph glyph-name="zacute" unicode="&#x17a;" horiz-adv-x="354" 
d="M-23 0l281 427h-199l-7 46h295l-282 -427h220l-9 -46h-299zM169 531l77 147h67l-100 -147h-44z" />
    <glyph glyph-name="Zdotaccent" unicode="&#x17b;" 
d="M-20 0l436 613h-306l-7 46h405l-435 -613h341l-10 -46h-424zM297 723q-34 0 -34 33q0 20 13.5 33.5t31.5 13.5q34 0 34 -33q0 -20 -13.5 -33.5t-31.5 -13.5z" />
    <glyph glyph-name="zdotaccent" unicode="&#x17c;" horiz-adv-x="354" 
d="M-23 0l281 427h-199l-7 46h295l-282 -427h220l-9 -46h-299zM222 593q-34 0 -34 33q0 20 13.5 33.5t31.5 13.5q34 0 34 -33q0 -20 -13.5 -33.5t-31.5 -13.5z" />
    <glyph glyph-name="Zcaron" unicode="&#x17d;" 
d="M-20 0l436 613h-306l-7 46h405l-435 -613h341l-10 -46h-424zM267 697l-78 147h50l59 -109l91 109h53l-118 -147h-57z" />
    <glyph glyph-name="zcaron" unicode="&#x17e;" horiz-adv-x="354" 
d="M-23 0l281 427h-199l-7 46h295l-282 -427h220l-9 -46h-299zM180 532l-78 147h50l59 -109l91 109h53l-118 -147h-57z" />
    <glyph glyph-name="florin" unicode="&#x192;" 
d="M-75 -149l19 44q28 -17 74 -17q47 0 77 32t47 109l69 310h-99l7 46h102l35 156q21 93 64.5 135t114.5 42q52 0 92 -21l-19 -44q-28 17 -74 17q-47 0 -77 -32t-47 -109l-32 -144h126l-17 -46h-120l-71 -322q-21 -93 -64.5 -135t-114.5 -42q-52 0 -92 21z" />
    <glyph glyph-name="Aringacute" unicode="&#x1fa;" horiz-adv-x="537" 
d="M-33 0l330 656q-30 7 -47.5 29t-17.5 54q0 46 29.5 73.5t72.5 28.5l57 112h67l-83 -119q51 -21 51 -79q0 -42 -25.5 -69t-63.5 -32l114 -654h-55l-31 182h-250l-90 -182h-58zM139 228h217l-37 232q-2 11 -7.5 46.5t-8.5 58.5h-2q-41 -90 -52 -113zM323 689
q26 0 42.5 18.5t16.5 47.5q0 23 -12.5 36.5t-34.5 13.5q-26 0 -42.5 -18.5t-16.5 -47.5q0 -23 12.5 -36.5t34.5 -13.5z" />
    <glyph glyph-name="aringacute" unicode="&#x1fb;" horiz-adv-x="449" 
d="M263 517q-40 0 -65 23.5t-25 62.5q0 45 29 72.5t71 29.5l71 138h67l-98 -144q54 -20 54 -80q0 -46 -30 -74t-74 -28zM264 553q26 0 42.5 18.5t16.5 47.5q0 23 -12.5 36.5t-34.5 13.5q-26 0 -42.5 -18.5t-16.5 -47.5q0 -23 12.5 -36.5t34.5 -13.5zM131 -10q-55 0 -88 34
t-33 88q0 82 60 128q58 44 174 46l82 1q8 34 8 69q0 81 -92 81q-68 0 -144 -39l-8 47q78 40 156 40q61 0 100.5 -31t39.5 -97q0 -36 -18 -119l-7 -34q-19 -91 -19 -140q0 -28 7 -58l-45 -10q-11 42 -11 83q-71 -89 -162 -89zM141 38q53 0 103 45.5t62 111.5l10 45h-45
q-117 0 -162 -33q-43 -31 -43 -88q0 -81 75 -81z" />
    <glyph glyph-name="AEacute" unicode="&#x1fc;" horiz-adv-x="723" 
d="M-67 0l452 659h297l-16 -46h-219l-33 -252h214l-7 -46h-213l-35 -269h245l-7 -46h-296l24 182h-222l-123 -182h-61zM148 228h197l49 360h-2q-71 -107 -95 -143zM462 696l77 147h67l-100 -147h-44z" />
    <glyph glyph-name="aeacute" unicode="&#x1fd;" horiz-adv-x="730" 
d="M135 -10q-58 0 -91.5 34.5t-33.5 91.5q0 76 60 119t176 44l77 1q9 43 9 75q0 43 -22 62.5t-70 19.5q-66 0 -142 -39l-8 47q78 40 153 40q117 0 135 -88h2q28 42 71.5 65t93.5 23q72 0 108.5 -41.5t36.5 -109.5q0 -59 -20 -97l-303 -3q-2 -24 -2 -36q0 -75 35.5 -117.5
t95.5 -42.5q64 0 128 39l16 -42q-67 -45 -149 -45q-60 0 -104.5 32.5t-57.5 94.5h-2q-30 -60 -82 -93.5t-110 -33.5zM141 38q56 0 105 45.5t63 122.5l5 27l-63 -1q-89 -2 -137 -30.5t-48 -82.5q0 -38 19 -59.5t56 -21.5zM375 281l251 3q9 23 9 54q0 99 -98 99
q-57 0 -103 -46t-59 -110zM372 531l77 147h67l-100 -147h-44z" />
    <glyph glyph-name="Oslashacute" unicode="&#x1fe;" horiz-adv-x="698" 
d="M304 -10q-115 0 -183 65l-58 -62l-34 32l62 66q-46 70 -46 177q0 101 41 190.5t122.5 147.5t185.5 58q112 0 179 -61l62 65l34 -32l-65 -69q49 -70 49 -179q0 -101 -41 -191t-122.5 -148.5t-185.5 -58.5zM307 38q68 0 124.5 31.5t91.5 82.5t54.5 112.5t19.5 125.5
q0 84 -31 137l-409 -434q53 -55 150 -55zM101 267q0 -83 29 -135l407 433q-53 51 -144 51q-68 0 -125 -31t-92.5 -81.5t-55 -112t-19.5 -124.5zM373 696l77 147h67l-100 -147h-44z" />
    <glyph glyph-name="oslashacute" unicode="&#x1ff;" horiz-adv-x="488" 
d="M262 531l77 147h67l-100 -147h-44zM51 -17l-33 29l40 47q-26 42 -26 103q0 142 73.5 232.5t173.5 90.5q65 0 106 -33l34 41l33 -29l-37 -45q29 -44 29 -106q0 -142 -73.5 -232.5t-173.5 -90.5q-69 0 -111 36zM199 38q85 0 137 81.5t52 187.5q0 41 -11 67l-257 -308
q26 -28 79 -28zM88 168q0 -38 8 -62l256 306q-28 25 -75 25q-85 0 -137 -81.5t-52 -187.5z" />
    <glyph glyph-name="Scommaaccent" unicode="&#x218;" horiz-adv-x="453" 
d="M8 30l21 44q53 -36 125 -36q63 0 107 32.5t44 101.5q0 44 -21.5 78.5t-52.5 58.5t-61.5 48.5t-52 60t-21.5 81.5q0 75 53 120t136 45q72 0 132 -30l-11 -47q-56 30 -122 30q-54 0 -93.5 -29t-39.5 -83q0 -32 15.5 -59t38.5 -45.5t50.5 -41t50.5 -45t38.5 -58t15.5 -79.5
q0 -94 -60 -140.5t-148 -46.5q-81 0 -144 40zM53 -237l-15 39q89 27 89 91q0 24 -13 55h50q14 -21 14 -58q0 -44 -31.5 -77t-93.5 -50z" />
    <glyph glyph-name="scommaaccent" unicode="&#x219;" horiz-adv-x="338" 
d="M-18 22l20 44q47 -28 102 -28q45 0 76.5 22t31.5 63q0 27 -15 49.5t-37 39.5t-44 35.5t-37 45.5t-15 61q0 57 38.5 94t109.5 37q55 0 98 -16l-8 -46q-45 15 -87 15q-43 0 -70 -20t-27 -60q0 -26 15 -48t37 -38.5t44 -35t37 -47t15 -64.5q0 -62 -46 -98.5t-117 -36.5
q-70 0 -121 32zM4 -237l-15 39q89 27 89 91q0 24 -13 55h50q14 -21 14 -58q0 -44 -31.5 -77t-93.5 -50z" />
    <glyph glyph-name="circumflex" unicode="&#x2c6;" horiz-adv-x="350" 
d="M48 531l118 147h57l78 -147h-50l-59 109l-91 -109h-53z" />
    <glyph glyph-name="caron" unicode="&#x2c7;" horiz-adv-x="350" 
d="M146 532l-78 147h50l59 -109l91 109h53l-118 -147h-57z" />
    <glyph glyph-name="breve" unicode="&#x2d8;" horiz-adv-x="350" 
d="M174 546q-52 0 -78 30.5t-22 83.5h42q0 -71 62 -71t87 71h43q-11 -52 -46.5 -83t-87.5 -31z" />
    <glyph glyph-name="dotaccent" unicode="&#x2d9;" horiz-adv-x="350" 
d="M185 593q-34 0 -34 33q0 20 13.5 33.5t31.5 13.5q34 0 34 -33q0 -20 -13.5 -33.5t-31.5 -13.5z" />
    <glyph glyph-name="ring" unicode="&#x2da;" horiz-adv-x="350" 
d="M180 524q-40 0 -65 23.5t-25 62.5q0 46 30 74t74 28q40 0 65 -23.5t25 -62.5q0 -46 -30 -74t-74 -28zM181 560q26 0 42.5 18.5t16.5 47.5q0 23 -12.5 36.5t-34.5 13.5q-26 0 -42.5 -18.5t-16.5 -47.5q0 -23 12.5 -36.5t34.5 -13.5z" />
    <glyph glyph-name="ogonek" unicode="&#x2db;" horiz-adv-x="350" 
d="M151 -212q-38 0 -55 19t-17 48q0 91 136 158l55 -13q-141 -66 -141 -135q0 -35 35 -35q15 0 39 8l6 -40q-33 -10 -58 -10z" />
    <glyph glyph-name="tilde" unicode="&#x2dc;" horiz-adv-x="350" 
d="M38 557q4 44 25 66.5t52 22.5q29 0 67 -25t54 -25q29 0 36 44h44q-4 -44 -25 -66.5t-52 -22.5q-29 0 -67 25t-54 25q-29 0 -36 -44h-44z" />
    <glyph glyph-name="hungarumlaut" unicode="&#x2dd;" horiz-adv-x="350" 
d="M69 531l77 147h67l-100 -147h-44zM224 531l77 147h67l-100 -147h-44z" />
    <glyph glyph-name="uni0315" unicode="&#x315;" horiz-adv-x="350" 
d="M119 513l61 195h57l-76 -195h-42z" />
    <glyph glyph-name="uni0326" unicode="&#x326;" horiz-adv-x="350" 
d="M120 -237l-15 39q89 27 89 91q0 24 -13 55h50q14 -21 14 -58q0 -44 -31.5 -77t-93.5 -50z" />
    <glyph glyph-name="Alphatonos" unicode="&#x386;" horiz-adv-x="545" 
d="M46 473l72 186h60l-83 -186h-49zM-29 0l333 661h36l115 -661h-55l-31 182h-250l-90 -182h-58zM143 228h217l-37 232q-2 11 -7.5 46.5t-8.5 58.5h-2q-40 -90 -52 -113z" />
    <glyph glyph-name="Epsilontonos" unicode="&#x388;" horiz-adv-x="450" 
d="M4 473l72 186h60l-83 -186h-49zM48 0l138 659h284l-19 -46h-223l-52 -252h217l-10 -46h-217l-56 -269h248l-10 -46h-300z" />
    <glyph glyph-name="Etatonos" unicode="&#x389;" horiz-adv-x="659" 
d="M4 473l72 186h60l-83 -186h-49zM48 0l138 659h52l-63 -301h351l63 301h52l-138 -659h-52l65 312h-351l-65 -312h-52z" />
    <glyph glyph-name="Iotatonos" unicode="&#x38a;" horiz-adv-x="256" 
d="M4 473l72 186h60l-83 -186h-49zM48 0l138 659h52l-138 -659h-52z" />
    <glyph glyph-name="Omicrontonos" unicode="&#x38c;" horiz-adv-x="750" 
d="M4 473l72 186h60l-83 -186h-49zM352 -10q-119 0 -189 72.5t-70 208.5q0 159 96.5 276t252.5 117q119 0 189 -72t70 -207q0 -159 -96.5 -277t-252.5 -118zM355 38q68 0 124.5 30.5t92 80.5t54.5 111t19 125q0 108 -52 169.5t-152 61.5q-55 0 -103 -20t-82.5 -53.5
t-58.5 -77.5t-36 -93.5t-12 -99.5q0 -109 52 -171.5t154 -62.5z" />
    <glyph glyph-name="Upsilontonos" unicode="&#x38e;" horiz-adv-x="609" 
d="M4 473l72 186h60l-83 -186h-49zM239 0l41 196q10 44 10 83q0 147 -121 380h57q91 -187 106 -320h2q54 123 239 320h68q-136 -140 -211 -245.5t-97 -212.5l-42 -201h-52z" />
    <glyph glyph-name="Omegatonos" unicode="&#x38f;" horiz-adv-x="738" 
d="M4 473l72 186h60l-83 -186h-49zM33 0l9 46h72q47 0 83 -4v2q-46 39 -74.5 102.5t-28.5 135.5q0 159 94 270.5t248 111.5q119 0 185.5 -74t66.5 -181q0 -227 -226 -367v-2q38 6 83 6h65l-9 -46h-229l8 38q117 64 185 156.5t68 207.5q0 90 -51.5 152t-151.5 62
q-121 0 -201 -96t-80 -240q0 -73 31 -137.5t90 -104.5l-8 -38h-229z" />
    <glyph glyph-name="iotadieresistonos" unicode="&#x390;" horiz-adv-x="228" 
d="M111 -5q-35 0 -55.5 18.5t-20.5 50.5q0 13 4 33l79 376h52l-79 -376q-3 -14 -3 -24q0 -30 33 -30q16 0 37 7v-47q-22 -8 -47 -8zM124 531l66 167h71l-89 -167h-48zM89 568q-31 0 -31 31q0 18 11.5 29.5t27.5 11.5q31 0 31 -31q0 -18 -11.5 -29.5t-27.5 -11.5zM272 568
q-31 0 -31 31q0 18 11.5 29.5t27.5 11.5q31 0 31 -31q0 -18 -11.5 -29.5t-27.5 -11.5z" />
    <glyph glyph-name="Alpha" unicode="&#x391;" horiz-adv-x="545" 
d="M-29 0l333 661h36l115 -661h-55l-31 182h-250l-90 -182h-58zM143 228h217l-37 232q-2 11 -7.5 46.5t-8.5 58.5h-2q-40 -90 -52 -113z" />
    <glyph glyph-name="Beta" unicode="&#x392;" horiz-adv-x="510" 
d="M18 0l138 659h123q88 0 130 -44t42 -106q0 -122 -118 -167v-2q43 -11 74 -46t31 -86q0 -87 -71 -147.5t-207 -60.5h-142zM146 361h98q77 0 114.5 47t37.5 99q0 47 -28.5 76.5t-90.5 29.5h-79zM80 46h98q96 0 150 45t54 114q0 52 -34 81t-95 29h-117z" />
    <glyph glyph-name="Gamma" unicode="&#x393;" horiz-adv-x="436" 
d="M18 0l138 659h290l-19 -46h-229l-128 -613h-52z" />
    <glyph glyph-name="Epsilon" unicode="&#x395;" horiz-adv-x="420" 
d="M18 0l138 659h284l-19 -46h-223l-52 -252h217l-10 -46h-217l-56 -269h248l-10 -46h-300z" />
    <glyph glyph-name="Zeta" unicode="&#x396;" horiz-adv-x="500" 
d="M-16 0l436 613h-306l-7 46h405l-435 -613h341l-10 -46h-424z" />
    <glyph glyph-name="Eta" unicode="&#x397;" horiz-adv-x="629" 
d="M18 0l138 659h52l-63 -301h351l63 301h52l-138 -659h-52l65 312h-351l-65 -312h-52z" />
    <glyph glyph-name="Theta" unicode="&#x398;" horiz-adv-x="706" 
d="M308 -10q-119 0 -189 71.5t-70 206.5q0 101 41 190.5t122.5 147.5t185.5 58q119 0 189 -70.5t70 -205.5q0 -101 -41 -191t-122.5 -148.5t-185.5 -58.5zM311 38q68 0 124.5 31.5t91.5 82.5t54.5 112.5t19.5 125.5q0 108 -52 167t-152 59q-68 0 -125 -31t-92.5 -81.5
t-55 -112t-19.5 -124.5q0 -108 52 -168.5t154 -60.5zM186 313l11 48h320l-11 -48h-320z" />
    <glyph glyph-name="Iota" unicode="&#x399;" horiz-adv-x="226" 
d="M18 0l138 659h52l-138 -659h-52z" />
    <glyph glyph-name="Kappa" unicode="&#x39a;" horiz-adv-x="490" 
d="M18 0l138 659h52l-66 -317h3l302 317h64l-327 -341l230 -318h-65l-214 300h-2l-63 -300h-52z" />
    <glyph glyph-name="Lambda" unicode="&#x39b;" horiz-adv-x="545" 
d="M-29 0l332 662h36l116 -662h-55l-77 460q-2 9 -16 105h-2q-40 -90 -52 -113l-224 -452h-58z" />
    <glyph glyph-name="Mu" unicode="&#x39c;" horiz-adv-x="764" 
d="M18 0l138 659h53l107 -312q43 -126 46 -136h2q36 53 74 106l251 342h57l-138 -659h-52l75 358q21 104 48 206h-2q-65 -92 -91 -127l-216 -291h-36l-100 285q-31 86 -44 133h-2q-7 -30 -21 -99.5t-16 -76.5l-81 -388h-52z" />
    <glyph glyph-name="Nu" unicode="&#x39d;" horiz-adv-x="667" 
d="M18 0l138 659h48l230 -471q29 -60 45 -98h2q11 62 21 111l95 458h52l-138 -659h-39l-237 485q-34 71 -44 96h-2q-5 -40 -19 -105l-100 -476h-52z" />
    <glyph glyph-name="Xi" unicode="&#x39e;" horiz-adv-x="513" 
d="M-13 0l10 46h410l-10 -46h-410zM109 315l10 46h300l-10 -46h-300zM128 613l10 46h386l-19 -46h-377z" />
    <glyph glyph-name="Omicron" unicode="&#x39f;" horiz-adv-x="706" 
d="M308 -10q-119 0 -189 71.5t-70 206.5q0 101 41 190.5t122.5 147.5t185.5 58q119 0 189 -70.5t70 -205.5q0 -101 -41 -191t-122.5 -148.5t-185.5 -58.5zM311 38q68 0 124.5 31.5t91.5 82.5t54.5 112.5t19.5 125.5q0 108 -52 167t-152 59q-68 0 -125 -31t-92.5 -81.5
t-55 -112t-19.5 -124.5q0 -108 52 -168.5t154 -60.5z" />
    <glyph glyph-name="Pi" unicode="&#x3a0;" horiz-adv-x="616" 
d="M18 0l138 659h442l-138 -659h-52l128 613h-338l-128 -613h-52z" />
    <glyph glyph-name="Rho" unicode="&#x3a1;" horiz-adv-x="466" 
d="M18 0l138 659h69q58 0 97 -12q59 -19 91 -63.5t32 -107.5q0 -79 -48 -138t-131 -78q-43 -10 -101 -10h-43l-52 -250h-52zM132 296h40q52 0 85 9q64 17 98.5 63.5t34.5 110.5q0 95 -87 124q-30 10 -78 10h-27z" />
    <glyph glyph-name="Sigma" unicode="&#x3a3;" horiz-adv-x="464" 
d="M-35 0l266 354l-121 305h365l-19 -46h-272l105 -266l-228 -301h311l-10 -46h-397z" />
    <glyph glyph-name="Tau" unicode="&#x3a4;" horiz-adv-x="462" 
d="M135 0l128 613h-193l10 46h440l-19 -46h-186l-128 -613h-52z" />
    <glyph glyph-name="Upsilon" unicode="&#x3a5;" horiz-adv-x="545" 
d="M175 0l41 196q10 44 10 83q0 147 -121 380h57q91 -187 106 -320h2q54 123 239 320h68q-136 -140 -211 -245.5t-97 -212.5l-42 -201h-52z" />
    <glyph glyph-name="Phi" unicode="&#x3a6;" horiz-adv-x="726" 
d="M259 -20l13 64q-102 7 -165.5 66t-63.5 158q0 150 96.5 247t252.5 99l13 60h52l-13 -61q101 -8 164.5 -67t63.5 -157q0 -149 -96.5 -246t-251.5 -100l-13 -63h-52zM282 92l100 474q-127 -4 -205 -86.5t-78 -207.5q0 -82 47 -127.5t136 -52.5zM334 91q126 4 204 86.5
t78 207.5q0 81 -46.5 126.5t-135.5 52.5z" />
    <glyph glyph-name="Chi" unicode="&#x3a7;" horiz-adv-x="570" 
d="M-25 0l272 336l-149 323h59l129 -283l230 283h65l-270 -335l149 -324h-57l-132 285l-231 -285h-65z" />
    <glyph glyph-name="Psi" unicode="&#x3a8;" horiz-adv-x="666" 
d="M235 0l47 227q-95 8 -143 55t-48 151q0 90 38 226h52q-38 -143 -38 -227q0 -83 36 -118.5t113 -39.5l81 385h52l-81 -385q80 3 131 38t86.5 118t57.5 229h53q-21 -162 -68 -258.5t-111 -134t-159 -40.5l-47 -226h-52z" />
    <glyph glyph-name="uni03A9" unicode="&#x3a9;" horiz-adv-x="711" 
d="M6 0l9 46h72q47 0 83 -4v2q-46 39 -74.5 102.5t-28.5 135.5q0 159 94 270.5t248 111.5q119 0 185.5 -74t66.5 -181q0 -227 -226 -367v-2q38 6 83 6h65l-9 -46h-229l8 38q117 64 185 156.5t68 207.5q0 90 -51.5 152t-151.5 62q-121 0 -201 -96t-80 -240q0 -73 31 -137.5
t90 -104.5l-8 -38h-229z" />
    <glyph glyph-name="Iotadieresis" unicode="&#x3aa;" horiz-adv-x="226" 
d="M18 0l138 659h52l-138 -659h-52zM104 708q-31 0 -31 31q0 18 11.5 29.5t27.5 11.5q31 0 31 -31q0 -18 -11.5 -29.5t-27.5 -11.5zM274 708q-31 0 -31 31q0 18 11.5 29.5t27.5 11.5q31 0 31 -31q0 -18 -11.5 -29.5t-27.5 -11.5z" />
    <glyph glyph-name="Upsilondieresis" unicode="&#x3ab;" horiz-adv-x="545" 
d="M175 0l41 196q10 44 10 83q0 147 -121 380h57q91 -187 106 -320h2q54 123 239 320h68q-136 -140 -211 -245.5t-97 -212.5l-42 -201h-52zM256 708q-31 0 -31 31q0 18 11.5 29.5t27.5 11.5q31 0 31 -31q0 -18 -11.5 -29.5t-27.5 -11.5zM426 708q-31 0 -31 31
q0 18 11.5 29.5t27.5 11.5q31 0 31 -31q0 -18 -11.5 -29.5t-27.5 -11.5z" />
    <glyph glyph-name="alphatonos" unicode="&#x3ac;" horiz-adv-x="545" 
d="M164 -10q-62 0 -95 47.5t-33 122.5q0 122 64.5 223.5t155.5 101.5q61 0 90 -40.5t37 -118.5h2q51 104 76 151l41 -23q-46 -84 -109 -215q-1 -110 8 -152.5t47 -42.5q11 0 23 4v-48q-13 -5 -29 -5q-52 0 -72 38.5t-19 116.5h-2q-79 -160 -185 -160zM169 38q38 0 74.5 36.5
t59 79.5t41.5 94q-3 44 -7 71.5t-13 58t-26 45t-42 14.5q-67 0 -115.5 -90.5t-48.5 -188.5q0 -120 77 -120zM309 531h-48l98 167h72z" />
    <glyph glyph-name="epsilontonos" unicode="&#x3ad;" horiz-adv-x="424" 
d="M283 531h-48l98 167h72zM188 -10q-74 0 -120 36.5t-46 92.5q0 52 34 85.5t88 42.5v2q-72 23 -72 95q0 61 49.5 101t128.5 40q74 0 130 -27l-10 -48q-48 27 -116 27q-52 0 -89 -24.5t-37 -66.5q0 -77 117 -77q39 0 56 1l-10 -48q-22 1 -52 1q-70 0 -115.5 -25.5
t-45.5 -73.5q0 -44 33 -65t82 -21q82 0 155 39l13 -41q-75 -46 -173 -46z" />
    <glyph glyph-name="etatonos" unicode="&#x3ae;" horiz-adv-x="496" 
d="M34 0l78 372q6 26 6 40q0 25 -23 25q-14 0 -30 -6v45q21 9 46 9q57 0 57 -62q0 -19 -6 -43h2q32 48 79.5 76.5t95.5 28.5q46 0 74.5 -28t28.5 -84q0 -33 -11 -88l-107 -522h-52l107 523q10 46 10 79q0 71 -62 71q-34 0 -73 -22.5t-69 -63.5q-35 -47 -53 -129l-46 -221
h-52zM335 531h-48l98 167h72z" />
    <glyph glyph-name="iotatonos" unicode="&#x3af;" horiz-adv-x="228" 
d="M111 -5q-35 0 -55.5 18.5t-20.5 50.5q0 13 4 33l79 376h52l-79 -376q-3 -14 -3 -24q0 -30 33 -30q16 0 37 7v-47q-22 -8 -47 -8zM178 531h-48l98 167h72z" />
    <glyph glyph-name="upsilondieresistonos" unicode="&#x3b0;" 
d="M201 -10q-64 0 -104.5 37t-40.5 104q0 48 31 144.5t31 131.5q0 30 -28 30q-15 0 -29 -6v45q22 9 46 9q29 0 47.5 -18.5t18.5 -52.5q0 -45 -30.5 -139.5t-30.5 -139.5q0 -97 93 -97q61 0 107 47.5t67.5 118t21.5 149.5q-2 76 -20 120h57q18 -48 19 -124q0 -90 -28 -170
t-87.5 -134.5t-140.5 -54.5zM244 531l66 167h71l-89 -167h-48zM209 568q-31 0 -31 31q0 18 11.5 29.5t27.5 11.5q31 0 31 -31q0 -18 -11.5 -29.5t-27.5 -11.5zM392 568q-31 0 -31 31q0 18 11.5 29.5t27.5 11.5q31 0 31 -31q0 -18 -11.5 -29.5t-27.5 -11.5z" />
    <glyph glyph-name="alpha" unicode="&#x3b1;" horiz-adv-x="545" 
d="M164 -10q-62 0 -95 47.5t-33 122.5q0 122 64.5 223.5t155.5 101.5q61 0 90 -40.5t37 -118.5h2q51 104 76 151l41 -23q-46 -84 -109 -215q-1 -110 8 -152.5t47 -42.5q11 0 23 4v-48q-13 -5 -29 -5q-52 0 -72 38.5t-19 116.5h-2q-79 -160 -185 -160zM169 38q38 0 74.5 36.5
t59 79.5t41.5 94q-3 44 -7 71.5t-13 58t-26 45t-42 14.5q-67 0 -115.5 -90.5t-48.5 -188.5q0 -120 77 -120z" />
    <glyph glyph-name="beta" unicode="&#x3b2;" horiz-adv-x="503" 
d="M223 -10q-165 0 -165 212q0 70 20 154.5t56 164.5t97 133.5t133 53.5q59 0 90 -33t31 -87q0 -126 -150 -212v-2q50 -8 77 -46.5t27 -97.5q0 -91 -59.5 -165.5t-156.5 -74.5zM227 37q68 0 112 57.5t44 135.5q0 49 -25.5 79t-68.5 30q-38 0 -168 -47q-7 -42 -7 -89
q0 -85 26.5 -125.5t86.5 -40.5zM131 345q298 81 298 242q0 31 -16.5 52t-50.5 22q-73 1 -137 -92.5t-94 -223.5z" />
    <glyph glyph-name="gamma" unicode="&#x3b3;" horiz-adv-x="476" 
d="M75 -237q12 63 36 159q35 186 35 288q0 226 -100 226q-13 0 -23 -2v48q15 3 33 3q42 0 72 -25t43.5 -66t19 -77.5t5.5 -75.5q0 -86 -17 -163h2q106 243 256 404l38 -34q-160 -175 -276 -432q-28 -61 -49 -161l-20 -92h-55z" />
    <glyph glyph-name="delta" unicode="&#x3b4;" horiz-adv-x="509" 
d="M212 -10q-83 0 -129.5 48.5t-46.5 131.5q0 98 60.5 171.5t166.5 97.5v2q-26 22 -43 39.5t-31.5 46t-14.5 57.5q0 57 43.5 90.5t111.5 33.5q90 0 175 -45l-17 -44q-76 41 -151 42q-52 1 -79.5 -20.5t-27.5 -58.5q0 -30 23 -58.5t55.5 -54t65 -55.5t55.5 -75t23 -99
q0 -102 -68 -176t-171 -74zM216 38q76 0 127.5 58.5t51.5 144.5q0 54 -22.5 90.5t-65.5 72.5q-99 -18 -157 -80t-58 -153q0 -66 32.5 -99.5t91.5 -33.5z" />
    <glyph glyph-name="epsilon" unicode="&#x3b5;" horiz-adv-x="424" 
d="M188 -10q-74 0 -120 36.5t-46 92.5q0 52 34 85.5t88 42.5v2q-72 23 -72 95q0 61 49.5 101t128.5 40q74 0 130 -27l-10 -48q-48 27 -116 27q-52 0 -89 -24.5t-37 -66.5q0 -77 117 -77q39 0 56 1l-10 -48q-22 1 -52 1q-70 0 -115.5 -25.5t-45.5 -73.5q0 -44 33 -65t82 -21
q82 0 155 39l13 -41q-75 -46 -173 -46z" />
    <glyph glyph-name="zeta" unicode="&#x3b6;" horiz-adv-x="424" 
d="M273 -175l-40 28q61 65 61 101q0 21 -18 36t-45.5 23t-59 21.5t-59 30t-45.5 49t-18 78.5q0 77 32 152.5t84 134t108 103t113 73.5v3q-99 -20 -210 -21l-4 47q162 0 291 22v-45q-72 -41 -132.5 -88.5t-113 -106t-82 -128.5t-29.5 -143q0 -45 25 -73.5t61 -42t72.5 -25.5
t61.5 -33.5t25 -55.5q0 -59 -78 -140z" />
    <glyph glyph-name="eta" unicode="&#x3b7;" horiz-adv-x="496" 
d="M34 0l78 372q6 26 6 40q0 25 -23 25q-14 0 -30 -6v45q21 9 46 9q57 0 57 -62q0 -19 -6 -43h2q32 48 79.5 76.5t95.5 28.5q46 0 74.5 -28t28.5 -84q0 -33 -11 -88l-107 -522h-52l107 523q10 46 10 79q0 71 -62 71q-34 0 -73 -22.5t-69 -63.5q-35 -47 -53 -129l-46 -221
h-52z" />
    <glyph glyph-name="theta" unicode="&#x3b8;" horiz-adv-x="501" 
d="M173 -10q-63 0 -100.5 33.5t-37.5 91.5q0 34 22 95.5t22 93.5q0 19 -8 43h54q8 -24 8 -44q0 -35 -21.5 -95.5t-21.5 -92.5q0 -77 88 -77q58 0 104 45t71 107t39 140q-53 9 -94.5 22t-81.5 36t-61.5 60.5t-21.5 87.5q0 74 45 123t115 49q83 0 125 -65.5t42 -188.5
q0 -53 -9.5 -112.5t-31.5 -123t-54 -113.5t-82 -82.5t-110 -32.5zM189 540q0 -34 14 -60.5t33.5 -42.5t50.5 -28.5t55.5 -18t56.5 -10.5q6 48 6 90q0 83 -26.5 136.5t-85.5 53.5q-46 0 -75 -32.5t-29 -87.5z" />
    <glyph glyph-name="iota" unicode="&#x3b9;" horiz-adv-x="228" 
d="M111 -5q-35 0 -55.5 18.5t-20.5 50.5q0 13 4 33l79 376h52l-79 -376q-3 -14 -3 -24q0 -30 33 -30q16 0 37 7v-47q-22 -8 -47 -8z" />
    <glyph glyph-name="kappa" unicode="&#x3ba;" horiz-adv-x="457" 
d="M14 0l99 473h52l-35 -167q-8 -37 -17 -70h2q60 77 152.5 140t175.5 104l24 -43q-145 -68 -254 -164l161 -273h-61l-137 238q-76 -72 -90 -141l-20 -97h-52z" />
    <glyph glyph-name="lambda" unicode="&#x3bb;" horiz-adv-x="464" 
d="M-20 0l256 477q-14 110 -36 147t-60 37q-22 0 -49 -9l-10 43q34 13 65 13q64 0 94.5 -51.5t48.5 -190.5q22 -165 48.5 -273.5t73.5 -192.5h-62q-70 128 -101 391h-2l-206 -391h-60z" />
    <glyph glyph-name="uni03BC" unicode="&#x3bc;" horiz-adv-x="510" 
d="M-36 -237l149 710h52l-59 -284q-10 -46 -10 -75q0 -39 19 -57t48 -18q61 0 112.5 51t70.5 146l50 237h52l-71 -341q-9 -44 -9 -60q0 -29 29 -29q17 0 32 6v-47q-18 -7 -42 -7q-65 0 -65 67q0 14 2 26h-2q-32 -45 -76 -71.5t-90 -26.5q-63 0 -84 48h-2q-6 -50 -21 -123
l-32 -152h-53z" />
    <glyph glyph-name="nu" unicode="&#x3bd;" horiz-adv-x="445" 
d="M133 -3l-88 476h52l74 -408h2q89 89 133.5 172t44.5 184q0 28 -4 52h56q4 -21 4 -49q0 -119 -59 -216t-180 -211h-35z" />
    <glyph glyph-name="xi" unicode="&#x3be;" horiz-adv-x="404" 
d="M212 -147q2 2 10.5 11.5t13.5 15t13 16t13 19t8.5 18.5t3.5 19q0 20 -17 35t-42.5 24t-55 22t-55 28t-42.5 44.5t-17 69.5q0 67 45.5 113.5t110.5 60.5v2q-65 28 -65 99q0 128 198 201v3q-106 -17 -183 -17l-4 47q139 0 295 20v-39q-50 -21 -79 -34t-66 -34t-56.5 -40
t-33.5 -45t-14 -56q0 -45 30.5 -65.5t94.5 -20.5q16 0 34 1l-10 -45q-12 1 -24 1q-55 0 -102 -13.5t-81 -48t-34 -84.5q0 -39 23.5 -65t57.5 -39t68 -25t57.5 -33t23.5 -54q0 -58 -79 -140z" />
    <glyph glyph-name="omicron" unicode="&#x3bf;" horiz-adv-x="496" 
d="M201 -10q-82 0 -123.5 48.5t-41.5 123.5q0 142 73.5 232.5t173.5 90.5q82 0 123.5 -48.5t41.5 -123.5q0 -142 -73.5 -232.5t-173.5 -90.5zM203 38q85 0 137 81.5t52 187.5q0 130 -111 130q-85 0 -137 -81.5t-52 -187.5q0 -130 111 -130z" />
    <glyph glyph-name="pi" unicode="&#x3c0;" horiz-adv-x="534" 
d="M43 0l89 427h-76l10 46h460l-19 -46h-82l-68 -329q-4 -16 -4 -29q0 -26 27 -26q12 0 29 5v-47q-19 -6 -43 -6q-67 0 -67 63q0 14 6 43l68 326h-189l-89 -427h-52z" />
    <glyph glyph-name="rho" unicode="&#x3c1;" horiz-adv-x="498" 
d="M-35 -237l104 503q23 110 73.5 164.5t136.5 54.5q74 0 122.5 -49.5t48.5 -141.5q0 -77 -28.5 -145.5t-86 -113.5t-131.5 -45q-81 0 -129 43h-2l-56 -270h-52zM203 38q86 0 138.5 78t52.5 185q0 68 -32.5 102t-84.5 34q-66 0 -103 -48.5t-56 -138.5l-34 -165
q48 -47 119 -47z" />
    <glyph glyph-name="sigmafinal" unicode="&#x3c2;" horiz-adv-x="389" 
d="M175 -145q1 1 9.5 10t10.5 11.5t9.5 11.5t10 13t8 12.5t7.5 14t4 13t2 14.5q0 24 -15 43.5t-37 31.5t-48 29.5t-48 36t-37 52t-15 76.5q0 103 64 182t168 79q67 0 114 -22l-10 -48q-47 22 -100 22q-82 0 -131 -63t-49 -149q0 -44 20.5 -75t50 -49t59 -35t50 -42.5
t20.5 -61.5q0 -26 -14 -54t-27.5 -43.5t-36.5 -39.5z" />
    <glyph glyph-name="sigma" unicode="&#x3c3;" horiz-adv-x="530" 
d="M205 -10q-75 0 -122 48t-47 132q0 135 79.5 219t200.5 84h246l-19 -48h-78q-11 0 -71 3v-2q48 -70 48 -159q0 -105 -65.5 -191t-171.5 -86zM209 38q79 0 128 73.5t49 165.5q0 86 -51 148h-10q-109 0 -171 -71.5t-62 -177.5q0 -66 30.5 -102t86.5 -36z" />
    <glyph glyph-name="tau" unicode="&#x3c4;" horiz-adv-x="393" 
d="M195 -10q-45 0 -70 22.5t-25 59.5q0 18 6 50l64 305h-132l10 46h369l-19 -46h-175l-65 -308q-4 -19 -4 -35q0 -46 50 -46q43 0 80 24l15 -42q-44 -30 -104 -30z" />
    <glyph glyph-name="upsilon" unicode="&#x3c5;" 
d="M201 -10q-64 0 -104.5 37t-40.5 104q0 48 31 144.5t31 131.5q0 30 -28 30q-15 0 -29 -6v45q22 9 46 9q29 0 47.5 -18.5t18.5 -52.5q0 -45 -30.5 -139.5t-30.5 -139.5q0 -97 93 -97q61 0 107 47.5t67.5 118t21.5 149.5q-2 76 -20 120h57q18 -48 19 -124q0 -90 -28 -170
t-87.5 -134.5t-140.5 -54.5z" />
    <glyph glyph-name="phi" unicode="&#x3c6;" horiz-adv-x="631" 
d="M173 -237l48 229q-90 9 -137.5 58.5t-47.5 133.5q0 92 42.5 171t107.5 125l57 -13q-151 -115 -151 -275q0 -72 34 -109t105 -44l64 305q15 69 52.5 105t88.5 36q69 0 108 -49.5t39 -121.5q0 -137 -84 -228.5t-227 -94.5l-47 -228h-52zM282 38q109 2 177 78.5t68 202.5
q0 52 -23.5 85t-65.5 33q-72 0 -94 -105z" />
    <glyph glyph-name="chi" unicode="&#x3c7;" horiz-adv-x="413" 
d="M-113 -237l254 378q-13 183 -26 237.5t-53 54.5q-12 0 -23 -3v46q18 7 36 7q57 0 79 -61t32 -230h2l184 281h58l-236 -357q14 -195 26.5 -251t53.5 -56q12 0 23 3v-46q-17 -7 -36 -7q-58 0 -80 64t-31 242h-2l-202 -302h-59z" />
    <glyph glyph-name="psi" unicode="&#x3c8;" horiz-adv-x="640" 
d="M182 -237l47 228q-89 5 -137 50.5t-48 118.5q0 54 31 138t31 129q0 23 -6 46h54q6 -21 6 -48q0 -48 -30.5 -129.5t-30.5 -134.5q0 -117 140 -123l141 670h52l-141 -670q82 7 139.5 54.5t81.5 112t24 138.5q0 81 -27 130h57q26 -52 26 -136q0 -49 -11 -96t-36 -91
t-60.5 -78t-88 -56t-115.5 -25l-47 -228h-52z" />
    <glyph glyph-name="omega" unicode="&#x3c9;" horiz-adv-x="715" 
d="M173 -10q-65 0 -101 45.5t-36 119.5q0 96 47.5 182.5t125.5 141.5l56 -10q-82 -60 -127.5 -140t-45.5 -171q0 -120 88 -120q69 0 110.5 78t50.5 231h58q-23 -81 -23 -170q0 -139 94 -139q66 0 103.5 62t37.5 145q0 127 -91 224l57 10q90 -92 90 -230q0 -106 -52 -182.5
t-146 -76.5q-60 0 -92.5 37t-37.5 99h-2q-19 -61 -63 -98.5t-101 -37.5z" />
    <glyph glyph-name="iotadieresis" unicode="&#x3ca;" horiz-adv-x="228" 
d="M111 -5q-35 0 -55.5 18.5t-20.5 50.5q0 13 4 33l79 376h52l-79 -376q-3 -14 -3 -24q0 -30 33 -30q16 0 37 7v-47q-22 -8 -47 -8zM79 568q-31 0 -31 31q0 18 11.5 29.5t27.5 11.5q31 0 31 -31q0 -18 -11.5 -29.5t-27.5 -11.5zM249 568q-31 0 -31 31q0 18 11.5 29.5
t27.5 11.5q31 0 31 -31q0 -18 -11.5 -29.5t-27.5 -11.5z" />
    <glyph glyph-name="upsilondieresis" unicode="&#x3cb;" 
d="M201 -10q-64 0 -104.5 37t-40.5 104q0 48 31 144.5t31 131.5q0 30 -28 30q-15 0 -29 -6v45q22 9 46 9q29 0 47.5 -18.5t18.5 -52.5q0 -45 -30.5 -139.5t-30.5 -139.5q0 -97 93 -97q61 0 107 47.5t67.5 118t21.5 149.5q-2 76 -20 120h57q18 -48 19 -124q0 -90 -28 -170
t-87.5 -134.5t-140.5 -54.5zM201 568q-31 0 -31 31q0 18 11.5 29.5t27.5 11.5q31 0 31 -31q0 -18 -11.5 -29.5t-27.5 -11.5zM371 568q-31 0 -31 31q0 18 11.5 29.5t27.5 11.5q31 0 31 -31q0 -18 -11.5 -29.5t-27.5 -11.5z" />
    <glyph glyph-name="omicrontonos" unicode="&#x3cc;" horiz-adv-x="496" 
d="M201 -10q-82 0 -123.5 48.5t-41.5 123.5q0 142 73.5 232.5t173.5 90.5q82 0 123.5 -48.5t41.5 -123.5q0 -142 -73.5 -232.5t-173.5 -90.5zM203 38q85 0 137 81.5t52 187.5q0 130 -111 130q-85 0 -137 -81.5t-52 -187.5q0 -130 111 -130zM325 531h-48l98 167h72z" />
    <glyph glyph-name="upsilontonos" unicode="&#x3cd;" 
d="M297 531h-48l98 167h72zM201 -10q-64 0 -104.5 37t-40.5 104q0 48 31 144.5t31 131.5q0 30 -28 30q-15 0 -29 -6v45q22 9 46 9q29 0 47.5 -18.5t18.5 -52.5q0 -45 -30.5 -139.5t-30.5 -139.5q0 -97 93 -97q61 0 107 47.5t67.5 118t21.5 149.5q-2 76 -20 120h57
q18 -48 19 -124q0 -90 -28 -170t-87.5 -134.5t-140.5 -54.5z" />
    <glyph glyph-name="omegatonos" unicode="&#x3ce;" horiz-adv-x="715" 
d="M173 -10q-65 0 -101 45.5t-36 119.5q0 96 47.5 182.5t125.5 141.5l56 -10q-82 -60 -127.5 -140t-45.5 -171q0 -120 88 -120q69 0 110.5 78t50.5 231h58q-23 -81 -23 -170q0 -139 94 -139q66 0 103.5 62t37.5 145q0 127 -91 224l57 10q90 -92 90 -230q0 -106 -52 -182.5
t-146 -76.5q-60 0 -92.5 37t-37.5 99h-2q-19 -61 -63 -98.5t-101 -37.5zM427 531h-48l98 167h72z" />
    <glyph glyph-name="uni0400" unicode="&#x400;" horiz-adv-x="420" 
d="M18 0l138 659h284l-19 -46h-223l-52 -252h217l-10 -46h-217l-56 -269h248l-10 -46h-300zM291 696l-73 147h67l50 -147h-44z" />
    <glyph glyph-name="afii10023" unicode="&#x401;" horiz-adv-x="435" 
d="M18 0l138 659h284l-19 -46h-223l-52 -252h217l-10 -46h-217l-56 -269h248l-10 -46h-300zM218 708q-31 0 -31 31q0 18 11.5 29.5t27.5 11.5q31 0 31 -31q0 -18 -11.5 -29.5t-27.5 -11.5zM388 708q-31 0 -31 31q0 18 11.5 29.5t27.5 11.5q31 0 31 -31q0 -18 -11.5 -29.5
t-27.5 -11.5z" />
    <glyph glyph-name="afii10051" unicode="&#x402;" horiz-adv-x="693" 
d="M135 0l128 613h-193l10 46h469l-19 -46h-215l-51 -244q43 8 88 8q111 0 171.5 -47t60.5 -134t-54.5 -144t-140.5 -57q-47 0 -81 15l18 44q28 -12 61 -12q62 0 102 41t40 114q0 132 -178 132q-45 0 -97 -9l-67 -320h-52z" />
    <glyph glyph-name="afii10052" unicode="&#x403;" horiz-adv-x="405" 
d="M18 0l138 659h290l-19 -46h-229l-128 -613h-52zM277 696l77 147h67l-100 -147h-44z" />
    <glyph glyph-name="afii10053" unicode="&#x404;" horiz-adv-x="572" 
d="M302 -10q-116 0 -184.5 69t-68.5 199q0 173 103 289.5t264 116.5q86 0 160 -37l-12 -48q-65 37 -145 37q-114 0 -195.5 -70t-108.5 -185h340l-10 -46h-339q-3 -27 -3 -53q0 -99 48.5 -161.5t151.5 -62.5q90 0 176 46l12 -45q-86 -49 -189 -49z" />
    <glyph glyph-name="afii10054" unicode="&#x405;" horiz-adv-x="454" 
d="M12 30l21 44q53 -36 125 -36q63 0 107 32.5t44 101.5q0 44 -21.5 78.5t-52.5 58.5t-61.5 48.5t-52 60t-21.5 81.5q0 75 53 120t136 45q72 0 132 -30l-11 -47q-56 30 -122 30q-54 0 -93.5 -29t-39.5 -83q0 -32 15.5 -59t38.5 -45.5t50.5 -41t50.5 -45t38.5 -58t15.5 -79.5
q0 -94 -60 -140.5t-148 -46.5q-81 0 -144 40z" />
    <glyph glyph-name="afii10055" unicode="&#x406;" horiz-adv-x="226" 
d="M18 0l138 659h52l-138 -659h-52z" />
    <glyph glyph-name="afii10056" unicode="&#x407;" horiz-adv-x="226" 
d="M18 0l138 659h52l-138 -659h-52zM104 708q-31 0 -31 31q0 18 11.5 29.5t27.5 11.5q31 0 31 -31q0 -18 -11.5 -29.5t-27.5 -11.5zM274 708q-31 0 -31 31q0 18 11.5 29.5t27.5 11.5q31 0 31 -31q0 -18 -11.5 -29.5t-27.5 -11.5z" />
    <glyph glyph-name="afii10057" unicode="&#x408;" horiz-adv-x="268" 
d="M-136 -167l18 45q27 -11 63 -11q61 0 87 48q17 31 28 85l138 659h52l-136 -649q-17 -80 -38 -119q-40 -72 -138 -72q-40 0 -74 14z" />
    <glyph glyph-name="afii10058" unicode="&#x409;" horiz-adv-x="822" 
d="M-56 -3l14 49q5 -1 14 -1q52 0 96 62q77 110 208 552h254l-59 -279h46q94 0 140 -23q81 -40 81 -134q0 -106 -71.5 -164.5t-202.5 -58.5h-124l129 613h-154q-120 -415 -204 -537q-57 -82 -141 -82q-14 0 -26 3zM402 46h69q99 0 155.5 44.5t56.5 134.5q0 65 -51 90
q-37 19 -113 19h-57z" />
    <glyph glyph-name="afii10059" unicode="&#x40a;" horiz-adv-x="904" 
d="M18 0l138 659h52l-63 -301h342l63 301h52l-59 -279h56q94 0 140 -23q81 -40 81 -134q0 -106 -71.5 -164.5t-202.5 -58.5h-134l65 312h-342l-65 -312h-52zM474 46h79q99 0 155.5 44.5t56.5 134.5q0 65 -51 90q-37 19 -113 19h-67z" />
    <glyph glyph-name="afii10060" unicode="&#x40b;" horiz-adv-x="692" 
d="M135 0l128 613h-193l10 46h457l-19 -46h-203l-50 -239q63 12 117 12q93 0 146.5 -41t53.5 -118q0 -28 -11 -81l-30 -146h-51l29 134q12 57 12 88q0 56 -39 86t-113 30q-56 0 -124 -14l-68 -324h-52z" />
    <glyph glyph-name="afii10061" unicode="&#x40c;" horiz-adv-x="543" 
d="M310 696l77 147h67l-100 -147h-44zM18 0l138 659h52l-64 -307h84q30 0 57.5 29t45 66t43 86.5t47.5 77.5q42 53 101 53q24 0 37 -6l-10 -49q-13 4 -27 4q-33 0 -63 -38q-19 -25 -47 -83t-56 -101.5t-59 -56.5v-2q16 -5 28 -22t18 -31.5t19 -49.5l81 -229h-55l-82 236
q-24 70 -54 70h-118l-64 -306h-52z" />
    <glyph glyph-name="uni040D" unicode="&#x40d;" horiz-adv-x="664" 
d="M18 0l138 659h52l-94 -447q-10 -50 -26 -114h2q31 40 127 144l381 417h48l-138 -659h-52l95 455q6 30 27 114h-2q-23 -29 -121 -136l-396 -433h-41zM377 696l-73 147h67l50 -147h-44z" />
    <glyph glyph-name="afii10062" unicode="&#x40e;" horiz-adv-x="480" 
d="M18 1l14 49q13 -5 30 -5q35 0 66 32t78 111l-117 471h55l98 -406h2l237 406h59l-297 -506q-50 -85 -92 -122t-88 -37q-24 0 -45 7zM194 822l46 10q9 -80 74 -80q73 0 121 94l40 -21q-62 -117 -162 -117q-105 0 -119 114z" />
    <glyph glyph-name="afii10145" unicode="&#x40f;" horiz-adv-x="604" 
d="M18 0l138 659h52l-129 -613h327l128 613h52l-138 -659h-188l-38 -180h-52l38 180h-190z" />
    <glyph glyph-name="afii10017" unicode="&#x410;" horiz-adv-x="545" 
d="M-29 0l333 661h36l115 -661h-55l-31 182h-250l-90 -182h-58zM143 228h217l-37 232q-2 11 -7.5 46.5t-8.5 58.5h-2q-40 -90 -52 -113z" />
    <glyph glyph-name="afii10018" unicode="&#x411;" horiz-adv-x="523" 
d="M18 0l138 659h312l-19 -46h-251l-49 -233h64q94 0 140 -23q81 -40 81 -134q0 -106 -71.5 -164.5t-202.5 -58.5h-142zM80 46h87q99 0 155.5 44.5t56.5 134.5q0 65 -51 90q-37 19 -113 19h-75z" />
    <glyph glyph-name="afii10019" unicode="&#x412;" horiz-adv-x="516" 
d="M18 0l138 659h123q88 0 130 -44t42 -106q0 -122 -118 -167v-2q43 -11 74 -46t31 -86q0 -87 -71 -147.5t-207 -60.5h-142zM146 361h98q77 0 114.5 47t37.5 99q0 47 -28.5 76.5t-90.5 29.5h-79zM80 46h98q96 0 150 45t54 114q0 52 -34 81t-95 29h-117z" />
    <glyph glyph-name="afii10020" unicode="&#x413;" horiz-adv-x="405" 
d="M18 0l138 659h290l-19 -46h-229l-128 -613h-52z" />
    <glyph glyph-name="afii10021" unicode="&#x414;" horiz-adv-x="585" 
d="M-81 -180l47 226h30q93 93 163 244.5t132 368.5h264l-128 -613h70l-47 -226h-52l38 180h-427l-38 -180h-52zM375 46l119 567h-164q-113 -405 -266 -565v-2h311z" />
    <glyph glyph-name="afii10022" unicode="&#x415;" horiz-adv-x="435" 
d="M18 0l138 659h284l-19 -46h-223l-52 -252h217l-10 -46h-217l-56 -269h248l-10 -46h-300z" />
    <glyph glyph-name="afii10024" unicode="&#x416;" horiz-adv-x="828" 
d="M-26 0l152 242q52 84 102 95v2q-27 26 -40.5 127t-25.5 124t-37 23q-12 0 -29 -5l11 51q12 5 30 5q49 0 72 -46q14 -28 22.5 -77.5t12 -89t18 -69.5t40.5 -30h79l65 307h52l-64 -307h84q30 0 56.5 29t43.5 66t41.5 86.5t46.5 77.5q42 53 101 53q23 0 37 -6l-10 -49
q-13 4 -27 4q-33 0 -63 -38q-20 -25 -46 -82.5t-53 -101.5t-58 -57v-2q16 -5 28 -21t19 -32.5t18 -49.5l76 -229h-55l-77 236q-23 70 -54 70h-118l-64 -306h-52l64 306h-99q-46 0 -93 -74l-146 -232h-60z" />
    <glyph glyph-name="afii10025" unicode="&#x417;" horiz-adv-x="503" 
d="M178 -10q-97 0 -161 39l10 49q59 -40 150 -40q73 0 122.5 37t49.5 117q0 59 -41.5 90.5t-117.5 31.5q-27 0 -42 -1l10 48q16 -1 43 -1q187 0 187 144q0 51 -35.5 81.5t-96.5 30.5q-71 0 -141 -35l-14 43q74 40 157 40q90 0 138 -46t48 -113q0 -63 -34.5 -109.5
t-106.5 -62.5v-2q102 -33 102 -144q0 -87 -60 -142t-167 -55z" />
    <glyph glyph-name="afii10026" unicode="&#x418;" horiz-adv-x="664" 
d="M18 0l138 659h52l-94 -447q-10 -50 -26 -114h2q31 40 127 144l381 417h48l-138 -659h-52l95 455q6 30 27 114h-2q-23 -29 -121 -136l-396 -433h-41z" />
    <glyph glyph-name="afii10027" unicode="&#x419;" horiz-adv-x="664" 
d="M18 0l138 659h52l-94 -447q-10 -50 -26 -114h2q31 40 127 144l381 417h48l-138 -659h-52l95 455q6 30 27 114h-2q-23 -29 -121 -136l-396 -433h-41zM281 822l46 10q9 -80 74 -80q73 0 121 94l40 -21q-62 -117 -162 -117q-105 0 -119 114z" />
    <glyph glyph-name="afii10028" unicode="&#x41a;" horiz-adv-x="543" 
d="M18 0l138 659h52l-64 -307h84q30 0 57.5 29t45 66t43 86.5t47.5 77.5q42 53 101 53q24 0 37 -6l-10 -49q-13 4 -27 4q-33 0 -63 -38q-19 -25 -47 -83t-56 -101.5t-59 -56.5v-2q16 -5 28 -22t18 -31.5t19 -49.5l81 -229h-55l-82 236q-24 70 -54 70h-118l-64 -306h-52z" />
    <glyph glyph-name="afii10029" unicode="&#x41b;" horiz-adv-x="555" 
d="M-56 -3l14 49q5 -1 14 -1q52 0 96 62q77 110 208 552h261l-138 -659h-52l129 613h-161q-120 -415 -204 -537q-57 -82 -141 -82q-14 0 -26 3z" />
    <glyph glyph-name="afii10030" unicode="&#x41c;" horiz-adv-x="764" 
d="M18 0l138 659h53l107 -312q43 -126 46 -136h2q36 53 74 106l251 342h57l-138 -659h-52l75 358q21 104 48 206h-2q-65 -92 -91 -127l-216 -291h-36l-100 285q-31 86 -44 133h-2q-7 -30 -21 -99.5t-16 -76.5l-81 -388h-52z" />
    <glyph glyph-name="afii10031" unicode="&#x41d;" horiz-adv-x="629" 
d="M18 0l138 659h52l-63 -301h351l63 301h52l-138 -659h-52l65 312h-351l-65 -312h-52z" />
    <glyph glyph-name="afii10032" unicode="&#x41e;" horiz-adv-x="706" 
d="M308 -10q-119 0 -189 71.5t-70 206.5q0 101 41 190.5t122.5 147.5t185.5 58q119 0 189 -70.5t70 -205.5q0 -101 -41 -191t-122.5 -148.5t-185.5 -58.5zM311 38q68 0 124.5 31.5t91.5 82.5t54.5 112.5t19.5 125.5q0 108 -52 167t-152 59q-68 0 -125 -31t-92.5 -81.5
t-55 -112t-19.5 -124.5q0 -108 52 -168.5t154 -60.5z" />
    <glyph glyph-name="afii10033" unicode="&#x41f;" horiz-adv-x="616" 
d="M18 0l138 659h442l-138 -659h-52l128 613h-338l-128 -613h-52z" />
    <glyph glyph-name="afii10034" unicode="&#x420;" horiz-adv-x="466" 
d="M18 0l138 659h69q58 0 97 -12q59 -19 91 -63.5t32 -107.5q0 -79 -48 -138t-131 -78q-43 -10 -101 -10h-43l-52 -250h-52zM132 296h40q52 0 85 9q64 17 98.5 63.5t34.5 110.5q0 95 -87 124q-30 10 -78 10h-27z" />
    <glyph glyph-name="afii10035" unicode="&#x421;" horiz-adv-x="573" 
d="M306 -10q-111 0 -184 67t-73 198q0 173 103.5 291t264.5 118q86 0 160 -37l-12 -48q-65 37 -145 37q-138 0 -226.5 -102.5t-88.5 -253.5q0 -100 52.5 -161t146.5 -61q90 0 176 46l12 -45q-86 -49 -186 -49z" />
    <glyph glyph-name="afii10036" unicode="&#x422;" horiz-adv-x="454" 
d="M131 0l128 613h-193l10 46h440l-19 -46h-186l-128 -613h-52z" />
    <glyph glyph-name="afii10037" unicode="&#x423;" horiz-adv-x="480" 
d="M14 1l14 49q13 -5 30 -5q35 0 66 32t78 111l-117 471h55l98 -406h2l237 406h59l-297 -506q-50 -85 -92 -122t-88 -37q-24 0 -45 7z" />
    <glyph glyph-name="afii10038" unicode="&#x424;" horiz-adv-x="703" 
d="M252 -18l19 93q-108 9 -165 61t-57 142q0 135 85.5 222t244.5 89l18 85h52l-18 -87q109 -9 166.5 -61t57.5 -142q0 -136 -86 -223t-246 -88l-19 -91h-52zM333 120q121 -1 194 70.5t73 191.5q0 147 -179 159zM281 121l88 421q-120 0 -192.5 -71.5t-72.5 -190.5
q0 -145 177 -159z" />
    <glyph glyph-name="afii10039" unicode="&#x425;" horiz-adv-x="570" 
d="M-25 0l272 336l-149 323h59l129 -283l230 283h65l-270 -335l149 -324h-57l-132 285l-231 -285h-65z" />
    <glyph glyph-name="afii10040" unicode="&#x426;" horiz-adv-x="613" 
d="M18 0l138 659h52l-129 -613h324l128 613h52l-128 -613h70l-47 -226h-52l38 180h-446z" />
    <glyph glyph-name="afii10041" unicode="&#x427;" horiz-adv-x="563" 
d="M355 0l60 285q-63 -12 -117 -12q-93 0 -146.5 41t-53.5 118q0 28 11 81l30 146h51l-29 -134q-12 -57 -12 -88q0 -56 39 -86t113 -30q56 0 124 14l68 324h52l-138 -659h-52z" />
    <glyph glyph-name="afii10042" unicode="&#x428;" horiz-adv-x="791" 
d="M18 0l138 659h52l-129 -613h231l129 613h52l-129 -613h231l128 613h52l-138 -659h-617z" />
    <glyph glyph-name="afii10043" unicode="&#x429;" horiz-adv-x="793" 
d="M18 0l138 659h52l-129 -613h226l129 613h52l-129 -613h226l128 613h52l-128 -613h70l-47 -226h-52l38 180h-626z" />
    <glyph glyph-name="afii10044" unicode="&#x42a;" horiz-adv-x="638" 
d="M146 0l128 613h-188l-7 46h257l-59 -279h56q94 0 140 -23q81 -40 81 -134q0 -106 -71.5 -164.5t-202.5 -58.5h-134zM208 46h79q99 0 155.5 44.5t56.5 134.5q0 65 -51 90q-37 19 -113 19h-67z" />
    <glyph glyph-name="afii10045" unicode="&#x42b;" horiz-adv-x="669" 
d="M18 0l138 659h52l-59 -279h50q94 0 140 -23q81 -40 81 -134q0 -106 -71.5 -164.5t-202.5 -58.5h-128zM80 46h73q99 0 155.5 44.5t56.5 134.5q0 65 -51 90q-37 19 -113 19h-61zM461 0l138 659h52l-138 -659h-52z" />
    <glyph glyph-name="afii10046" unicode="&#x42c;" horiz-adv-x="518" 
d="M18 0l138 659h52l-59 -279h64q94 0 140 -23q81 -40 81 -134q0 -106 -71.5 -164.5t-202.5 -58.5h-142zM80 46h87q99 0 155.5 44.5t56.5 134.5q0 65 -51 90q-37 19 -113 19h-75z" />
    <glyph glyph-name="afii10047" unicode="&#x42d;" horiz-adv-x="567" 
d="M7 29l10 49q59 -40 159 -40q122 0 195.5 75t87.5 202h-314l10 46h307q8 111 -51 183t-163 72q-67 0 -137 -30l-14 42q70 36 152 36q127 0 198 -81.5t71 -207.5q0 -166 -91 -275.5t-251 -109.5q-105 0 -169 39z" />
    <glyph glyph-name="afii10048" unicode="&#x42e;" horiz-adv-x="889" 
d="M18 0l138 659h52l-62 -298h130q27 131 112 217t210 86q110 0 176 -69.5t66 -198.5q0 -105 -38.5 -196.5t-116 -150.5t-177.5 -59q-110 0 -176 69.5t-66 198.5q0 28 3 57h-133l-66 -315h-52zM511 38q87 0 151 55t93 134.5t29 167.5q0 103 -49 162t-140 59q-87 0 -151 -55
t-93 -134.5t-29 -167.5q0 -103 49 -162t140 -59z" />
    <glyph glyph-name="afii10049" unicode="&#x42f;" horiz-adv-x="509" 
d="M-34 0l142 226q42 65 79 85v2q-39 21 -62 57.5t-23 82.5q0 95 64 150.5t158 55.5h167l-138 -659h-52l61 290h-107q-46 0 -93 -74l-136 -216h-60zM282 336h89l58 277h-86q-84 1 -134.5 -42t-50.5 -118q0 -55 36.5 -86t87.5 -31z" />
    <glyph glyph-name="afii10065" unicode="&#x430;" horiz-adv-x="457" 
d="M135 -10q-55 0 -88 34t-33 88q0 82 60 128q58 44 174 46l82 1q8 34 8 69q0 81 -92 81q-68 0 -144 -39l-8 47q78 40 156 40q61 0 100.5 -31t39.5 -97q0 -36 -18 -119l-7 -34q-19 -91 -19 -140q0 -28 7 -58l-45 -10q-11 42 -11 83q-71 -89 -162 -89zM145 38q53 0 103 45.5
t62 111.5l10 45h-45q-117 0 -162 -33q-43 -31 -43 -88q0 -81 75 -81z" />
    <glyph glyph-name="afii10066" unicode="&#x431;" horiz-adv-x="485" 
d="M208 -10q-76 0 -119.5 52.5t-43.5 145.5q0 95 35 212t88 173q17 18 35 31.5t49 27t51.5 21t73.5 26t85 29.5l19 -50q-23 -8 -61 -21.5t-55.5 -19.5t-44 -15.5t-39.5 -15.5t-29.5 -14.5t-27 -16.5t-19.5 -17q-60 -61 -95 -195h2q28 51 74 78t95 27q73 0 113 -48t40 -123
q0 -115 -63 -201t-163 -86zM211 38q77 0 122 71.5t45 167.5q0 52 -24.5 87.5t-73.5 35.5q-77 0 -130 -69t-53 -158q0 -67 31.5 -101t82.5 -34z" />
    <glyph glyph-name="afii10067" unicode="&#x432;" horiz-adv-x="468" 
d="M26 23l92 438q62 24 135 24q86 0 126.5 -33.5t39.5 -84.5t-37 -83.5t-91 -41.5v-2q48 -9 71.5 -36t23.5 -61q0 -64 -51.5 -108.5t-150.5 -44.5q-82 0 -158 33zM86 53q42 -18 98 -18q71 0 109.5 29.5t38.5 75.5q0 78 -131 78h-82zM128 263h65q83 0 126.5 26t45.5 74
q1 36 -28.5 56.5t-87.5 20.5q-49 0 -87 -15z" />
    <glyph glyph-name="afii10068" unicode="&#x433;" horiz-adv-x="384" 
d="M166 -10q-67 0 -107 32.5t-40 87.5q0 49 28.5 82.5t69.5 51t82 33t69.5 39t28.5 57.5t-26 49.5t-63 15.5q-52 0 -108 -23l-12 45q60 25 120 25q68 0 105 -30t37 -82q0 -45 -28.5 -76.5t-69.5 -48.5t-82 -32.5t-69.5 -40t-28.5 -60.5q0 -35 25 -56t71 -21q57 0 106 27
l19 -42q-56 -33 -127 -33z" />
    <glyph glyph-name="afii10069" unicode="&#x434;" horiz-adv-x="492" 
d="M193 -10q-78 0 -117.5 50t-39.5 128q0 115 68 197.5t166 82.5q68 0 124 -34h2q-3 246 -165 246q-41 0 -84 -17l-15 44q46 21 101 21q76 0 125.5 -41.5t69.5 -106.5t20 -151q0 -80 -15 -153t-45 -133.5t-80.5 -96.5t-114.5 -36zM195 38q59 0 103.5 47.5t67 118.5t27.5 156
q-52 40 -116 40q-84 0 -134.5 -68.5t-50.5 -161.5q0 -132 103 -132z" />
    <glyph glyph-name="afii10070" unicode="&#x435;" horiz-adv-x="459" 
d="M217 -10q-78 0 -129.5 52t-51.5 148q0 127 67 211t167 84q72 0 108.5 -41.5t36.5 -109.5q0 -56 -20 -101l-303 -3q-2 -22 -2 -33q0 -74 35.5 -116.5t95.5 -42.5q64 0 128 39l16 -42q-67 -45 -148 -45zM100 276l251 3q9 30 9 59q0 99 -95 99q-59 0 -105.5 -47t-59.5 -114z
" />
    <glyph glyph-name="afii10072" unicode="&#x436;" horiz-adv-x="686" 
d="M-30 -2l15 46q11 -4 23 -4q22 0 40 23q11 13 37 59.5t52.5 81t53.5 42.5v2q-22 17 -37 78l-38 147h53l36 -145q15 -65 52 -65h61l44 210h51l-44 -210h69q31 0 54.5 29t47.5 80t40 72q28 38 76 38q21 0 35 -6l-10 -46q-11 4 -23 4q-23 0 -41 -23q-11 -14 -31 -55.5
t-42.5 -72.5t-50.5 -42v-2q28 -20 46 -84l42 -155h-53l-40 153q-8 30 -20 47.5t-24 17.5h-82l-46 -218h-51l45 218h-76q-23 0 -48 -31t-56 -84t-48 -74q-29 -37 -77 -37q-21 0 -35 6z" />
    <glyph glyph-name="afii10073" unicode="&#x437;" horiz-adv-x="396" 
d="M133 -10q-76 0 -133 35l10 45q50 -34 120 -34q56 0 92.5 24.5t36.5 77.5q0 41 -33.5 63t-94.5 22q-19 0 -37 -1l10 48q18 -1 49 -1q69 0 105 28t36 67q0 40 -29 57.5t-68 17.5q-51 0 -103 -23l-12 44q60 25 119 25q66 0 107.5 -30t41.5 -85q0 -49 -33.5 -82t-84.5 -46v-2
q83 -24 83 -103q0 -64 -51 -105.5t-131 -41.5z" />
    <glyph glyph-name="afii10074" unicode="&#x438;" horiz-adv-x="483" 
d="M147 -10q-49 0 -78.5 27t-29.5 83q0 33 11 88l59 285h52l-59 -286q-10 -46 -10 -79q0 -70 62 -70q69 0 120.5 59t66.5 131l51 245h52l-56 -269q-18 -90 -18 -137q0 -29 7 -61l-45 -10q-12 47 -9 100h-2q-31 -47 -79.5 -76.5t-94.5 -29.5z" />
    <glyph glyph-name="afii10075" unicode="&#x439;" horiz-adv-x="483" 
d="M147 -10q-49 0 -78.5 27t-29.5 83q0 33 11 88l59 285h52l-59 -286q-10 -46 -10 -79q0 -70 62 -70q69 0 120.5 59t66.5 131l51 245h52l-56 -269q-18 -90 -18 -137q0 -29 7 -61l-45 -10q-12 47 -9 100h-2q-31 -47 -79.5 -76.5t-94.5 -29.5zM168 660l45 9q9 -80 75 -80
q74 0 122 94l39 -20q-62 -117 -162 -117q-105 0 -119 114z" />
    <glyph glyph-name="afii10076" unicode="&#x43a;" horiz-adv-x="428" 
d="M14 0l99 473h51l-44 -210h67q31 0 52 31t41 81.5t37 73.5q27 36 75 36q22 0 36 -6l-10 -47q-11 4 -23 4q-24 0 -41 -22q-13 -16 -28.5 -56.5t-35 -73t-46.5 -43.5v-2q29 -20 49 -84l49 -155h-54l-47 153q-20 65 -46 65h-84l-46 -218h-51z" />
    <glyph glyph-name="afii10077" unicode="&#x43b;" horiz-adv-x="508" 
d="M-30 -2l12 48q10 -3 21 -3q35 0 57 29q25 34 81 173.5t86 178.5q48 61 130 61q56 0 102 -16l-55 -265q-19 -93 -19 -126q0 -34 11 -71l-51 -11q-12 36 -12 78q0 38 14 108l52 250q-20 5 -46 5q-53 0 -85 -42q-27 -35 -82 -173t-88 -184q-33 -45 -92 -45q-19 0 -36 5z" />
    <glyph glyph-name="afii10078" unicode="&#x43c;" horiz-adv-x="614" 
d="M-30 -2l10 46q10 -3 22 -3q34 0 57 30q31 42 53 130t54 272h49q55 -116 97 -277h2q33 47 65 87l150 190h56l-56 -269q-19 -93 -19 -126q0 -34 11 -71l-51 -11q-12 36 -12 78q0 60 57 306h-2q-30 -41 -62 -80l-135 -168h-33q-53 181 -81 249h-2q-23 -134 -44.5 -211.5
t-57.5 -129.5q-33 -47 -92 -47q-19 0 -36 5z" />
    <glyph glyph-name="afii10079" unicode="&#x43d;" horiz-adv-x="482" 
d="M14 0l99 473h52l-41 -196h236l41 196h52l-99 -473h-52l48 231h-236l-48 -231h-52z" />
    <glyph glyph-name="afii10080" unicode="&#x43e;" horiz-adv-x="496" 
d="M201 -10q-82 0 -123.5 48.5t-41.5 123.5q0 142 73.5 232.5t173.5 90.5q82 0 123.5 -48.5t41.5 -123.5q0 -142 -73.5 -232.5t-173.5 -90.5zM203 38q85 0 137 81.5t52 187.5q0 130 -111 130q-85 0 -137 -81.5t-52 -187.5q0 -130 111 -130z" />
    <glyph glyph-name="afii10081" unicode="&#x43f;" horiz-adv-x="476" 
d="M14 0l99 473h45l-18 -96h2q31 48 80 78t97 30q46 0 74.5 -28t28.5 -84q0 -33 -11 -88l-59 -285h-52l59 286q10 46 10 79q0 71 -62 71q-34 0 -73 -22.5t-69 -63.5q-35 -47 -53 -129l-46 -221h-52z" />
    <glyph glyph-name="afii10082" unicode="&#x440;" horiz-adv-x="490" 
d="M-35 -237l147 703q68 19 128 19q100 0 151 -55t51 -138q0 -140 -84 -221t-194 -81q-50 0 -97 13l-50 -240h-52zM78 52q32 -14 82 -14q101 0 163.5 71t62.5 179q0 72 -38.5 110.5t-112.5 38.5q-39 0 -79 -11z" />
    <glyph glyph-name="afii10083" unicode="&#x441;" horiz-adv-x="438" 
d="M218 -10q-79 0 -130.5 51t-51.5 142q0 129 77.5 215.5t185.5 86.5q60 0 109 -22l-10 -48q-47 22 -100 22q-86 0 -146 -71.5t-60 -174.5q0 -69 33 -111t97 -42t128 39l13 -41q-65 -46 -145 -46z" />
    <glyph glyph-name="afii10084" unicode="&#x442;" horiz-adv-x="738" 
d="M14 0l99 473h45l-18 -96h2q32 50 75 79t90 29q46 0 74 -28.5t27 -86.5h2q32 52 77 83.5t94 31.5q46 0 74.5 -28t28.5 -84q0 -33 -11 -88l-59 -285h-52l59 286q10 46 10 79q0 71 -62 71q-66 0 -130 -86q-35 -47 -53 -129l-46 -221h-52l59 286q10 46 10 79q0 71 -62 71
q-65 0 -130 -86q-35 -47 -53 -129l-46 -221h-52z" />
    <glyph glyph-name="afii10085" unicode="&#x443;" horiz-adv-x="422" 
d="M-123 -224l18 46q24 -11 52 -11q56 0 101.5 39.5t94.5 143.5l-103 479h56l57 -276q11 -52 27 -132h2q20 49 55 122l137 286h60l-245 -497q-60 -123 -116.5 -168t-132.5 -45q-40 0 -63 13z" />
    <glyph glyph-name="afii10086" unicode="&#x444;" horiz-adv-x="625" 
d="M66 -228l15 44q15 -6 32 -6q32 0 52 21q16 18 27.5 46t25.5 80t20 72h-2q-30 -43 -84 -43q-52 0 -85.5 46t-33.5 124q0 74 26 147t79.5 125.5t121.5 52.5q34 0 66 -15l16 75q17 83 44.5 125t84.5 42q27 0 50 -10l-14 -43q-17 6 -34 6q-30 0 -46 -22.5t-29 -74.5
q-2 -6 -13 -57t-15 -64h2q29 42 83 42q52 0 85.5 -46t33.5 -124q0 -74 -26 -147t-79.5 -125.5t-121.5 -52.5q-36 0 -68 15q-37 -158 -75 -202q-34 -40 -91 -40q-24 0 -47 9zM163 34q68 0 94 106l59 279q-26 14 -55 14q-51 0 -91 -44.5t-60 -106t-21 -123.5
q-1 -58 17.5 -91.5t56.5 -33.5zM346 38q51 0 91 44.5t60 106t21 123.5q1 58 -17.5 91.5t-56.5 33.5q-68 0 -94 -106l-59 -280q28 -13 55 -13z" />
    <glyph glyph-name="afii10087" unicode="&#x445;" horiz-adv-x="418" 
d="M-32 0l199 241l-116 232h55l98 -194l159 194h59l-194 -235l121 -238h-57l-101 201l-166 -201h-57z" />
    <glyph glyph-name="afii10088" unicode="&#x446;" horiz-adv-x="504" 
d="M147 -10q-49 0 -78.5 27t-29.5 83q0 33 11 88l59 285h52l-59 -286q-10 -46 -10 -79q0 -70 64 -70q68 0 118.5 57t65.5 128l52 250h52l-56 -269q-18 -90 -18 -122q0 -34 17.5 -43t68.5 -3l-40 -196h-52l32 155q-84 6 -72 101h-2q-69 -106 -175 -106z" />
    <glyph glyph-name="afii10089" unicode="&#x447;" horiz-adv-x="459" 
d="M279 0l31 147q12 56 18 80h-2q-58 -41 -143 -41q-58 0 -88 26t-30 69q0 19 9 61l28 131h51l-32 -147q-5 -24 -5 -40q0 -54 78 -54q55 0 98.5 20.5t47.5 38.5l38 182h52l-99 -473h-52z" />
    <glyph glyph-name="afii10090" unicode="&#x448;" horiz-adv-x="698" 
d="M143 -10q-47 0 -75.5 28t-28.5 87q0 28 11 83l59 285h52l-59 -286q-10 -46 -10 -74q0 -75 59 -75q55 0 98 58.5t58 131.5l51 245h52l-59 -286q-10 -46 -10 -79q0 -70 59 -70q55 0 98 58.5t58 131.5l51 245h52l-56 -269q-18 -90 -18 -137q0 -29 7 -61l-45 -10
q-11 41 -9 92h-2q-62 -98 -144 -98q-45 0 -71 26t-27 75h-2q-66 -101 -149 -101z" />
    <glyph glyph-name="afii10091" unicode="&#x449;" horiz-adv-x="719" 
d="M143 -10q-47 0 -75.5 28t-28.5 87q0 28 11 83l59 285h52l-59 -286q-10 -46 -10 -74q0 -75 59 -75q55 0 98 58.5t58 131.5l51 245h52l-59 -286q-10 -46 -10 -79q0 -70 59 -70q55 0 98 58.5t58 131.5l51 245h52l-56 -269q-18 -90 -18 -122q0 -34 17.5 -43t68.5 -3l-40 -196
h-52l32 155q-80 5 -73 93h-2q-62 -98 -144 -98q-45 0 -71 26t-27 75h-2q-66 -101 -149 -101z" />
    <glyph glyph-name="afii10092" unicode="&#x44a;" horiz-adv-x="556" 
d="M121 23l85 404h-158l-4 46h224l-42 -197q49 7 81 7q88 0 133.5 -34.5t45.5 -91.5q0 -70 -55 -118.5t-154 -48.5q-85 0 -156 33zM181 52q42 -16 96 -16q69 0 111.5 32t42.5 87q0 82 -134 82q-46 0 -81 -8z" />
    <glyph glyph-name="afii10093" unicode="&#x44b;" horiz-adv-x="600" 
d="M26 23l95 450h52l-42 -197q35 7 73 7q86 0 131 -35t45 -91q0 -70 -51.5 -118.5t-149.5 -48.5q-79 0 -153 33zM86 52q42 -16 96 -16q64 0 103.5 32t39.5 86q0 83 -127 83q-37 0 -77 -8zM420 0l99 473h52l-99 -473h-52z" />
    <glyph glyph-name="afii10094" unicode="&#x44c;" horiz-adv-x="460" 
d="M26 23l95 450h52l-42 -197q49 7 81 7q88 0 133.5 -34.5t45.5 -91.5q0 -70 -55 -118.5t-154 -48.5q-85 0 -156 33zM86 52q42 -16 96 -16q70 0 112 32t42 87q0 82 -134 82q-46 0 -81 -8z" />
    <glyph glyph-name="afii10095" unicode="&#x44d;" horiz-adv-x="425" 
d="M11 24l10 46q45 -33 117 -33t121 49t61 135h-216l10 46h209q1 82 -38.5 126.5t-106.5 44.5q-50 0 -94 -23l-13 42q51 28 111 28q94 0 144.5 -60.5t50.5 -162.5q0 -114 -64.5 -193t-174.5 -79q-72 0 -127 34z" />
    <glyph glyph-name="afii10096" unicode="&#x44e;" horiz-adv-x="672" 
d="M14 0l99 473h52l-43 -206h103q27 98 94 158t144 60q81 0 121 -47.5t40 -119.5q0 -141 -75.5 -234.5t-176.5 -93.5q-81 0 -121 47.5t-40 119.5q0 34 5 64h-104l-46 -221h-52zM375 38q84 0 138.5 86.5t54.5 189.5q0 123 -108 123q-84 0 -138.5 -86.5t-54.5 -189.5
q0 -123 108 -123z" />
    <glyph glyph-name="afii10097" unicode="&#x44f;" horiz-adv-x="473" 
d="M-20 0l15 46q11 -4 23 -4q22 0 40 23q3 4 42 68.5t66 80.5v2q-66 33 -66 108q0 68 51.5 114.5t134.5 46.5q72 0 152 -28l-96 -457h-51l41 197h-101q-23 0 -44.5 -25.5t-49 -72.5t-43.5 -68q-29 -37 -79 -37q-21 0 -35 6zM242 242h100l37 182q-43 15 -89 15
q-64 0 -100 -33.5t-36 -83.5q0 -31 22.5 -55.5t65.5 -24.5z" />
    <glyph glyph-name="uni0450" unicode="&#x450;" horiz-adv-x="459" 
d="M217 -10q-78 0 -129.5 52t-51.5 148q0 127 67 211t167 84q72 0 108.5 -41.5t36.5 -109.5q0 -56 -20 -101l-303 -3q-2 -22 -2 -33q0 -74 35.5 -116.5t95.5 -42.5q64 0 128 39l16 -42q-67 -45 -148 -45zM100 276l251 3q9 30 9 59q0 99 -95 99q-59 0 -105.5 -47t-59.5 -114z
M257 531l-73 147h67l50 -147h-44z" />
    <glyph glyph-name="afii10071" unicode="&#x451;" horiz-adv-x="459" 
d="M217 -10q-78 0 -129.5 52t-51.5 148q0 127 67 211t167 84q72 0 108.5 -41.5t36.5 -109.5q0 -56 -20 -101l-303 -3q-2 -22 -2 -33q0 -74 35.5 -116.5t95.5 -42.5q64 0 128 39l16 -42q-67 -45 -148 -45zM100 276l251 3q9 30 9 59q0 99 -95 99q-59 0 -105.5 -47t-59.5 -114z
M190 568q-31 0 -31 31q0 18 11.5 29.5t27.5 11.5q31 0 31 -31q0 -18 -11.5 -29.5t-27.5 -11.5zM360 568q-31 0 -31 31q0 18 11.5 29.5t27.5 11.5q31 0 31 -31q0 -18 -11.5 -29.5t-27.5 -11.5z" />
    <glyph glyph-name="afii10099" unicode="&#x452;" horiz-adv-x="477" 
d="M14 0l118 566h-61l10 46h61l20 96h51l-20 -96h139l-10 -46h-139l-23 -114q-9 -45 -24 -91h2q70 108 162 108q64 0 96 -44t32 -119q0 -90 -30 -178t-95 -162.5t-153 -105.5l-17 43q114 42 177.5 159t63.5 247q0 111 -84 111q-63 0 -127 -84q-37 -49 -55 -131l-43 -205h-51
z" />
    <glyph glyph-name="afii10100" unicode="&#x453;" horiz-adv-x="384" 
d="M199 531l77 147h67l-100 -147h-44zM166 -10q-67 0 -107 32.5t-40 87.5q0 49 28.5 82.5t69.5 51t82 33t69.5 39t28.5 57.5t-26 49.5t-63 15.5q-52 0 -108 -23l-12 45q60 25 120 25q68 0 105 -30t37 -82q0 -45 -28.5 -76.5t-69.5 -48.5t-82 -32.5t-69.5 -40t-28.5 -60.5
q0 -35 25 -56t71 -21q57 0 106 27l19 -42q-56 -33 -127 -33z" />
    <glyph glyph-name="afii10101" unicode="&#x454;" horiz-adv-x="436" 
d="M219 -10q-77 0 -130 50.5t-53 145.5q0 127 75.5 213t183.5 86q62 0 111 -22l-10 -48q-47 22 -100 22q-69 0 -124 -48.5t-72 -121.5h219l-10 -46h-217q-2 -14 -2 -31q0 -71 33.5 -111.5t96.5 -40.5q64 0 128 39l15 -41q-69 -46 -144 -46z" />
    <glyph glyph-name="afii10102" unicode="&#x455;" horiz-adv-x="346" 
d="M-14 22l20 44q47 -28 102 -28q45 0 76.5 22t31.5 63q0 27 -15 49.5t-37 39.5t-44 35.5t-37 45.5t-15 61q0 57 38.5 94t109.5 37q55 0 98 -16l-8 -46q-45 15 -87 15q-43 0 -70 -20t-27 -60q0 -26 15 -48t37 -38.5t44 -35t37 -47t15 -64.5q0 -62 -46 -98.5t-117 -36.5
q-70 0 -121 32z" />
    <glyph glyph-name="afii10103" unicode="&#x456;" horiz-adv-x="211" 
d="M14 0l99 473h52l-99 -473h-52zM166 593q-34 0 -34 33q0 20 13.5 33.5t31.5 13.5q34 0 34 -33q0 -20 -13.5 -33.5t-31.5 -13.5z" />
    <glyph glyph-name="afii10104" unicode="&#x457;" horiz-adv-x="211" 
d="M69 568q-31 0 -31 31q0 18 11.5 29.5t27.5 11.5q31 0 31 -31q0 -18 -11.5 -29.5t-27.5 -11.5zM239 568q-31 0 -31 31q0 18 11.5 29.5t27.5 11.5q31 0 31 -31q0 -18 -11.5 -29.5t-27.5 -11.5zM14 0l99 473h52l-99 -473h-52z" />
    <glyph glyph-name="afii10105" unicode="&#x458;" horiz-adv-x="230" 
d="M-137 -226l15 46q20 -9 44 -9q40 0 60.5 24.5t33.5 85.5l116 552h52l-125 -593q-25 -117 -139 -117q-32 0 -57 11zM185 593q-34 0 -34 33q0 20 13.5 33.5t31.5 13.5q34 0 34 -33q0 -20 -13.5 -33.5t-31.5 -13.5z" />
    <glyph glyph-name="afii10106" unicode="&#x459;" horiz-adv-x="731" 
d="M-30 -2l12 48q10 -3 21 -3q35 0 57 29q25 34 81 173.5t86 178.5q48 61 130 61q51 0 97 -16l-41 -193q42 7 76 7q84 0 128 -34.5t44 -91.5q0 -70 -52 -118.5t-149 -48.5q-83 0 -152 33l86 409q-20 5 -41 5q-53 0 -85 -42q-27 -35 -82 -173t-88 -184q-33 -45 -92 -45
q-19 0 -36 5zM367 51q45 -15 95 -15q64 0 104 32t40 86q0 83 -125 83q-36 0 -78 -8z" />
    <glyph glyph-name="afii10107" unicode="&#x45a;" horiz-adv-x="711" 
d="M14 0l99 473h52l-41 -196h217l42 196h52l-42 -197q42 7 76 7q84 0 128 -34.5t44 -91.5q0 -70 -52 -118.5t-149 -48.5q-83 0 -152 33l44 208h-218l-48 -231h-52zM347 51q45 -15 95 -15q64 0 104 32t40 86q0 83 -125 83q-36 0 -78 -8z" />
    <glyph glyph-name="afii10108" unicode="&#x45b;" horiz-adv-x="477" 
d="M14 0l118 566h-67l10 46h67l20 96h52l-20 -96h123l-10 -46h-123l-24 -114q-9 -45 -24 -91h2q31 49 77 78.5t93 29.5q49 0 82 -28t33 -84q0 -33 -11 -88l-55 -269h-52l55 270q10 46 10 79q0 37 -19.5 54t-50.5 17q-75 0 -139 -86q-35 -47 -53 -129l-42 -205h-52z" />
    <glyph glyph-name="afii10109" unicode="&#x45c;" horiz-adv-x="427" 
d="M236 531l77 147h67l-100 -147h-44zM14 0l99 473h51l-44 -210h67q31 0 52 31t41 81.5t37 73.5q27 36 75 36q22 0 36 -6l-10 -47q-11 4 -23 4q-24 0 -41 -22q-13 -16 -28.5 -56.5t-35 -73t-46.5 -43.5v-2q29 -20 49 -84l49 -155h-54l-47 153q-20 65 -46 65h-84l-46 -218
h-51z" />
    <glyph glyph-name="uni045D" unicode="&#x45d;" horiz-adv-x="483" 
d="M147 -10q-49 0 -78.5 27t-29.5 83q0 33 11 88l59 285h52l-59 -286q-10 -46 -10 -79q0 -70 62 -70q69 0 120.5 59t66.5 131l51 245h52l-56 -269q-18 -90 -18 -137q0 -29 7 -61l-45 -10q-12 47 -9 100h-2q-31 -47 -79.5 -76.5t-94.5 -29.5zM273 531l-73 147h67l50 -147h-44
z" />
    <glyph glyph-name="afii10110" unicode="&#x45e;" horiz-adv-x="422" 
d="M-123 -224l18 46q24 -11 52 -11q56 0 101.5 39.5t94.5 143.5l-103 479h56l57 -276q11 -52 27 -132h2q20 49 55 122l137 286h60l-245 -497q-60 -123 -116.5 -168t-132.5 -45q-40 0 -63 13zM123 660l45 9q9 -80 75 -80q74 0 122 94l39 -20q-62 -117 -162 -117
q-105 0 -119 114z" />
    <glyph glyph-name="afii10193" unicode="&#x45f;" horiz-adv-x="483" 
d="M113 -210l51 160h40l-33 -160h-58zM147 -10q-49 0 -78.5 27t-29.5 83q0 33 11 88l59 285h52l-59 -286q-10 -46 -10 -79q0 -70 62 -70q69 0 120.5 59t66.5 131l51 245h52l-56 -269q-18 -90 -18 -137q0 -29 7 -61l-45 -10q-12 47 -9 100h-2q-31 -47 -79.5 -76.5
t-94.5 -29.5z" />
    <glyph glyph-name="afii10146" unicode="&#x462;" horiz-adv-x="572" 
d="M72 0l106 508h-129l10 46h129l22 105h52l-23 -105h158l-19 -46h-148l-27 -128h64q94 0 140 -23q81 -40 81 -134q0 -106 -71.5 -164.5t-202.5 -58.5h-142zM134 46h87q99 0 155.5 44.5t56.5 134.5q0 65 -51 90q-37 19 -113 19h-75z" />
    <glyph glyph-name="afii10194" unicode="&#x463;" horiz-adv-x="484" 
d="M49 23l85 404h-118l10 46h118l27 129h52l-27 -129h155l-19 -46h-146l-32 -151q49 7 81 7q88 0 133.5 -34.5t45.5 -91.5q0 -70 -55 -118.5t-154 -48.5q-85 0 -156 33zM109 52q42 -16 96 -16q69 0 111.5 32t42.5 87q0 82 -134 82q-46 0 -81 -8z" />
    <glyph glyph-name="afii10147" unicode="&#x472;" horiz-adv-x="725" 
d="M323 -10q-131 0 -204.5 72.5t-73.5 206.5q0 106 41 194.5t123.5 144.5t192.5 56q131 0 204.5 -72.5t73.5 -206.5q0 -106 -41 -194.5t-123.5 -144.5t-192.5 -56zM320 38q124 0 201.5 79t96.5 198h-515q-2 -30 -2 -46q0 -106 54 -168.5t165 -62.5zM111 361h512q1 8 1 24
q0 106 -54 168.5t-165 62.5q-119 0 -195 -72.5t-99 -182.5z" />
    <glyph glyph-name="afii10195" unicode="&#x473;" horiz-adv-x="496" 
d="M201 -10q-86 0 -125.5 46.5t-39.5 125.5q0 147 71 235t176 88q86 0 125.5 -46.5t39.5 -125.5q0 -147 -71 -235t-176 -88zM203 38q71 0 117 51t63 133h-288q-3 -27 -3 -54q0 -66 24.5 -98t86.5 -32zM104 268h286q2 18 2 39q0 66 -24.5 98t-86.5 32q-68 0 -113.5 -46.5
t-63.5 -122.5z" />
    <glyph glyph-name="afii10148" unicode="&#x474;" horiz-adv-x="565" 
d="M173 -3l-99 662h56l59 -418q9 -63 17 -145h2q100 270 181 423q42 78 82.5 111.5t92.5 33.5q29 0 51 -8l-10 -50q-15 7 -38 7q-32 0 -61.5 -23.5t-65.5 -87.5q-62 -110 -225 -505h-42z" />
    <glyph glyph-name="afii10196" unicode="&#x475;" horiz-adv-x="436" 
d="M123 -3l-64 476h51l34 -272q5 -40 15 -126h2q65 176 125 299q31 64 62.5 87.5t70.5 23.5q27 0 47 -8l-10 -46q-14 6 -33 6q-47 0 -88 -80q-39 -75 -159 -360h-53z" />
    <glyph glyph-name="afii10050" unicode="&#x490;" horiz-adv-x="425" 
d="M18 0l138 659h257l35 165l53 15l-47 -226h-256l-128 -613h-52z" />
    <glyph glyph-name="afii10098" unicode="&#x491;" horiz-adv-x="362" 
d="M14 0l99 473h217l31 145l52 15l-43 -208h-215l-89 -425h-52z" />
    <glyph glyph-name="Wgrave" unicode="&#x1e80;" horiz-adv-x="784" 
d="M157 -3l-87 662h58l49 -421q9 -71 16 -155h2q34 86 62 145l155 321l-14 110h56l49 -421q7 -60 15 -155h2q25 69 61 145l203 431h60l-321 -662h-41l-41 324q-12 95 -16 143h-2q-28 -64 -69 -150l-153 -317h-44zM430 696l-73 147h67l50 -147h-44z" />
    <glyph glyph-name="wgrave" unicode="&#x1e81;" horiz-adv-x="640" 
d="M111 -3l-70 476h51l38 -262q10 -67 16 -134h2q16 41 50 114l133 282h46l30 -261q8 -73 13 -135h2q21 51 49 113l126 283h58l-224 -476h-47l-29 263q-7 61 -13 128h-2q-25 -60 -58 -130l-125 -261h-46zM350 531l-73 147h67l50 -147h-44z" />
    <glyph glyph-name="Wacute" unicode="&#x1e82;" horiz-adv-x="784" 
d="M157 -3l-87 662h58l49 -421q9 -71 16 -155h2q34 86 62 145l155 321l-14 110h56l49 -421q7 -60 15 -155h2q25 69 61 145l203 431h60l-321 -662h-41l-41 324q-12 95 -16 143h-2q-28 -64 -69 -150l-153 -317h-44zM422 696l77 147h67l-100 -147h-44z" />
    <glyph glyph-name="wacute" unicode="&#x1e83;" horiz-adv-x="640" 
d="M111 -3l-70 476h51l38 -262q10 -67 16 -134h2q16 41 50 114l133 282h46l30 -261q8 -73 13 -135h2q21 51 49 113l126 283h58l-224 -476h-47l-29 263q-7 61 -13 128h-2q-25 -60 -58 -130l-125 -261h-46zM327 531l77 147h67l-100 -147h-44z" />
    <glyph glyph-name="Wdieresis" unicode="&#x1e84;" horiz-adv-x="784" 
d="M157 -3l-87 662h58l49 -421q9 -71 16 -155h2q34 86 62 145l155 321l-14 110h56l49 -421q7 -60 15 -155h2q25 69 61 145l203 431h60l-321 -662h-41l-41 324q-12 95 -16 143h-2q-28 -64 -69 -150l-153 -317h-44zM373 708q-31 0 -31 31q0 18 11.5 29.5t27.5 11.5
q31 0 31 -31q0 -18 -11.5 -29.5t-27.5 -11.5zM543 708q-31 0 -31 31q0 18 11.5 29.5t27.5 11.5q31 0 31 -31q0 -18 -11.5 -29.5t-27.5 -11.5z" />
    <glyph glyph-name="wdieresis" unicode="&#x1e85;" horiz-adv-x="640" 
d="M111 -3l-70 476h51l38 -262q10 -67 16 -134h2q16 41 50 114l133 282h46l30 -261q8 -73 13 -135h2q21 51 49 113l126 283h58l-224 -476h-47l-29 263q-7 61 -13 128h-2q-25 -60 -58 -130l-125 -261h-46zM283 568q-31 0 -31 31q0 18 11.5 29.5t27.5 11.5q31 0 31 -31
q0 -18 -11.5 -29.5t-27.5 -11.5zM453 568q-31 0 -31 31q0 18 11.5 29.5t27.5 11.5q31 0 31 -31q0 -18 -11.5 -29.5t-27.5 -11.5z" />
    <glyph glyph-name="Ygrave" unicode="&#x1ef2;" horiz-adv-x="469" 
d="M157 0l52 253l-139 406h57l114 -346h2l226 346h60l-267 -406l-53 -253h-52zM275 696l-73 147h67l50 -147h-44z" />
    <glyph glyph-name="ygrave" unicode="&#x1ef3;" horiz-adv-x="414" 
d="M-127 -224l18 46q24 -11 52 -11q56 0 101.5 39.5t94.5 143.5l-103 479h56l57 -276q11 -52 27 -132h2q20 49 55 122l137 286h60l-245 -497q-60 -123 -116.5 -168t-132.5 -45q-40 0 -63 13zM215 531l-73 147h67l50 -147h-44z" />
    <glyph glyph-name="endash" unicode="&#x2013;" horiz-adv-x="450" 
d="M0 231v47h450v-47h-450z" />
    <glyph glyph-name="emdash" unicode="&#x2014;" horiz-adv-x="800" 
d="M0 231v47h800v-47h-800z" />
    <glyph glyph-name="quoteleft" unicode="&#x2018;" horiz-adv-x="217" 
d="M130 462q-7 35 -7 71q0 95 76 174l23 -16q-43 -68 -43 -143q0 -37 7 -72z" />
    <glyph glyph-name="quoteright" unicode="&#x2019;" horiz-adv-x="226" 
d="M101 478q43 68 43 143q0 37 -7 72l56 14q7 -35 7 -71q0 -95 -76 -174z" />
    <glyph glyph-name="quotesinglbase" unicode="&#x201a;" horiz-adv-x="226" 
d="M-14 -113q43 68 43 143q0 37 -7 72l56 14q7 -35 7 -71q0 -95 -76 -174z" />
    <glyph glyph-name="quotedblleft" unicode="&#x201c;" horiz-adv-x="371" 
d="M130 462q-7 35 -7 71q0 95 76 174l23 -16q-43 -68 -43 -143q0 -37 7 -72zM284 462q-7 35 -7 71q0 95 76 174l23 -16q-43 -68 -43 -143q0 -37 7 -72z" />
    <glyph glyph-name="quotedblright" unicode="&#x201d;" horiz-adv-x="380" 
d="M278 462l-23 16q43 68 43 143q0 37 -7 72l56 14q7 -35 7 -71q0 -95 -76 -174zM124 462l-23 16q43 68 43 143q0 37 -7 72l56 14q7 -35 7 -71q0 -95 -76 -174z" />
    <glyph glyph-name="quotedblbase" unicode="&#x201e;" horiz-adv-x="380" 
d="M163 -129l-23 16q43 68 43 143q0 37 -7 72l56 14q7 -35 7 -71q0 -95 -76 -174zM9 -129l-23 16q43 68 43 143q0 37 -7 72l56 14q7 -35 7 -71q0 -95 -76 -174z" />
    <glyph glyph-name="dagger" unicode="&#x2020;" horiz-adv-x="476" 
d="M134 -44l30 146q24 116 48.5 216t26.5 108q-18 0 -75 -5t-81 -5l11 53q24 -1 79 -6t72 -6q5 24 13 81t13 81h52q-5 -26 -21 -83t-21 -79q19 1 76 6t81 6l-11 -53q-24 0 -79 5t-73 5q0 -2 -18 -104t-43 -220l-30 -146h-50z" />
    <glyph glyph-name="daggerdbl" unicode="&#x2021;" horiz-adv-x="476" 
d="M133 -44q5 26 21 83t21 79q-19 -1 -76 -6t-81 -6l11 53q24 0 79 -5t73 -5q1 7 8.5 55.5t16.5 91.5q8 36 19.5 78t13.5 52q-18 0 -75 -5t-81 -5l11 53q24 -1 79 -6t72 -6q5 24 13 81t13 81h52q-5 -26 -21 -83t-21 -79q19 1 76 6t81 6l-11 -53q-24 0 -79 5t-73 5
q-2 -10 -9 -56t-15 -86q-8 -39 -20 -83t-14 -52q18 0 75 5t81 5l-11 -53q-24 1 -79 6t-72 6q-5 -24 -13 -81t-13 -81h-52z" />
    <glyph glyph-name="bullet" unicode="&#x2022;" horiz-adv-x="285" 
d="M137 222q-39 0 -66 28t-27 68q0 41 26.5 69t66.5 28t67 -28t27 -69q0 -40 -27 -68t-67 -28z" />
    <glyph glyph-name="ellipsis" unicode="&#x2026;" horiz-adv-x="890" 
d="M98 -7q-16 0 -26 11.5t-10 26.5q0 19 12 31.5t30 12.5q16 0 26 -11.5t10 -26.5q0 -19 -12 -31.5t-30 -12.5zM384 -7q-16 0 -26 11.5t-10 26.5q0 19 12 31.5t30 12.5q16 0 26 -11.5t10 -26.5q0 -19 -12 -31.5t-30 -12.5zM670 -7q-16 0 -26 11.5t-10 26.5q0 19 12 31.5
t30 12.5q16 0 26 -11.5t10 -26.5q0 -19 -12 -31.5t-30 -12.5z" />
    <glyph glyph-name="perthousand" unicode="&#x2030;" horiz-adv-x="1155" 
d="M153 0l486 659h53l-486 -659h-53zM228 320q-53 0 -84 33t-31 96q0 93 46.5 154t119.5 61q53 0 84 -33t31 -96q0 -93 -46.5 -154t-119.5 -61zM232 363q49 0 81 48.5t32 117.5q0 92 -70 92q-49 0 -81 -48.5t-32 -117.5q0 -92 70 -92zM561 -10q-53 0 -84 33t-31 96
q0 93 46.5 154t119.5 61q53 0 84 -33t31 -96q0 -93 -46.5 -154t-119.5 -61zM565 33q49 0 81 48.5t32 117.5q0 92 -70 92q-49 0 -81 -48.5t-32 -117.5q0 -92 70 -92zM893 -10q-53 0 -84 33t-31 96q0 93 46.5 154t119.5 61q53 0 84 -33t31 -96q0 -93 -46.5 -154t-119.5 -61z
M897 33q49 0 81 48.5t32 117.5q0 92 -70 92q-49 0 -81 -48.5t-32 -117.5q0 -92 70 -92z" />
    <glyph glyph-name="guilsinglleft" unicode="&#x2039;" horiz-adv-x="308" 
d="M254 416l-167 -179l111 -177l-39 -26l-134 207l195 207z" />
    <glyph glyph-name="guilsinglright" unicode="&#x203a;" horiz-adv-x="308" 
d="M22 66l167 179l-111 177l39 26l134 -207l-195 -207z" />
    <glyph glyph-name="fraction" unicode="&#x2044;" horiz-adv-x="102" 
d="M-216 0l486 659h53l-486 -659h-53z" />
    <glyph glyph-name="zerosuperior" unicode="&#x2070;" horiz-adv-x="360" 
d="M204 397q-52 0 -81 38t-29 106q0 107 44.5 178.5t114.5 71.5q52 0 81 -38t29 -106q0 -107 -44.5 -178.5t-114.5 -71.5zM206 440q44 0 76 58.5t32 142.5q0 107 -63 107q-44 0 -76 -58.5t-32 -142.5q0 -107 63 -107z" />
    <glyph glyph-name="foursuperior" unicode="&#x2074;" horiz-adv-x="360" 
d="M234 405l18 89h-166l-7 36l237 260h47l-54 -254h53l-8 -42h-54l-18 -89h-48zM261 536l10 45q17 81 30 130l-160 -175h120z" />
    <glyph glyph-name="fivesuperior" unicode="&#x2075;" horiz-adv-x="323" 
d="M57 418l18 40q38 -18 84 -18t76 20.5t30 61.5t-34 57q-20 10 -62 10h-58l40 193h198l-10 -42h-148l-23 -110h11q47 0 74 -11q61 -27 61 -93q0 -61 -43.5 -95t-114.5 -34q-57 0 -99 21z" />
    <glyph glyph-name="sixsuperior" unicode="&#x2076;" horiz-adv-x="337" 
d="M204 397q-52 0 -83.5 35.5t-31.5 103.5q0 106 57.5 180.5t145.5 74.5q36 0 62 -12l-15 -40q-22 9 -49 9q-57 0 -95 -42.5t-52 -100.5h2q30 32 81 32q47 0 76.5 -29t29.5 -79q0 -55 -35.5 -93.5t-92.5 -38.5zM204 440q34 0 56.5 23.5t22.5 61.5q0 30 -16.5 49.5
t-47.5 19.5q-36 0 -58.5 -21.5t-22.5 -58.5q0 -31 16.5 -52.5t49.5 -21.5z" />
    <glyph glyph-name="sevensuperior" unicode="&#x2077;" horiz-adv-x="291" 
d="M96 405q42 180 178 335h-173l-7 42h242v-26q-144 -162 -190 -351h-50z" />
    <glyph glyph-name="eightsuperior" unicode="&#x2078;" horiz-adv-x="360" 
d="M211 397q-52 0 -85.5 26.5t-33.5 72.5q0 76 85 107v1q-47 28 -47 80q0 50 36 78.5t87 28.5q53 0 84 -25.5t31 -70.5q0 -71 -79 -96v-1q64 -24 64 -86q0 -54 -41 -84.5t-101 -30.5zM215 440q34 0 61.5 18t27.5 53q0 47 -80 70q-37 -9 -60 -30t-23 -49q0 -32 21 -47t53 -15
zM239 619q80 20 80 76q0 25 -18 39t-48 14q-31 0 -52.5 -16t-21.5 -46q0 -23 17 -40.5t43 -26.5z" />
    <glyph glyph-name="ninesuperior" unicode="&#x2079;" horiz-adv-x="341" 
d="M76 409l13 41q23 -10 53 -10q113 0 143 132h-2q-34 -27 -84 -27q-47 0 -76 28t-29 80q0 64 36.5 101t89.5 37q59 0 90 -38.5t31 -102.5q0 -119 -54 -186t-143 -67q-37 0 -68 12zM206 588q42 0 82 33q3 17 3 33q0 45 -20 69.5t-52 24.5t-54 -24.5t-22 -65.5
q0 -34 16.5 -52t46.5 -18z" />
    <glyph glyph-name="plussuperior" unicode="&#x207a;" horiz-adv-x="419" 
d="M232 434v140h-132v44h132v136h45v-136h132v-44h-132v-140h-45z" />
    <glyph glyph-name="minussuperior" unicode="&#x207b;" horiz-adv-x="419" 
d="M100 574v44h309v-44h-309z" />
    <glyph glyph-name="equalsuperior" unicode="&#x207c;" horiz-adv-x="419" 
d="M100 513v44h309v-44h-309zM100 635v44h309v-44h-309z" />
    <glyph glyph-name="parenleftsuperior" unicode="&#x207d;" horiz-adv-x="244" 
d="M158 356q-56 70 -56 180q0 173 154 300l26 -32q-131 -118 -131 -264q0 -98 42 -160z" />
    <glyph glyph-name="parenrightsuperior" unicode="&#x207e;" horiz-adv-x="244" 
d="M71 356l-26 32q131 118 131 264q0 98 -42 160l35 24q56 -70 56 -180q0 -173 -154 -300z" />
    <glyph glyph-name="n.superior" unicode="&#x207f;" horiz-adv-x="328" 
d="M31 270l70 332h44l-11 -59h1q48 68 115 68q33 0 54.5 -20.5t21.5 -61.5q0 -26 -9 -72l-39 -187h-48l42 201q6 32 6 53q0 42 -37 42q-36 0 -75.5 -36t-53.5 -102l-33 -158h-48z" />
    <glyph glyph-name="zeroinferior" unicode="&#x2080;" horiz-adv-x="360" 
d="M99 -188q-52 0 -81 38t-29 106q0 107 44.5 178.5t114.5 71.5q52 0 81 -38t29 -106q0 -107 -44.5 -178.5t-114.5 -71.5zM101 -145q44 0 76 58.5t32 142.5q0 107 -63 107q-44 0 -76 -58.5t-32 -142.5q0 -107 63 -107z" />
    <glyph glyph-name="oneinferior" unicode="&#x2081;" horiz-adv-x="277" 
d="M40 -180l69 329q-41 -23 -114 -42v42q64 16 133 56h41l-81 -385h-48z" />
    <glyph glyph-name="twoinferior" unicode="&#x2082;" horiz-adv-x="313" 
d="M-39 -180q6 56 32 97.5t58 65t63.5 42t52.5 40.5t21 49q0 22 -16 35.5t-45 13.5q-42 0 -95 -30l-19 37q61 36 118 36q50 0 78 -25t28 -65q0 -34 -19 -60.5t-47.5 -46t-58.5 -38.5t-56 -46t-35 -60h184l-4 -45h-240z" />
    <glyph glyph-name="threeinferior" unicode="&#x2083;" horiz-adv-x="329" 
d="M-43 -167l18 40q39 -18 84 -18q47 0 76.5 19.5t29.5 55.5q0 62 -103 62h-41l5 43h39q51 1 81 22.5t30 54.5q0 51 -64 51q-43 0 -89 -23l-17 37q54 29 112 29q50 0 78.5 -25t28.5 -65q0 -36 -23 -62.5t-58 -37.5v-2q31 -6 50.5 -28t19.5 -55q0 -53 -42 -86t-113 -33
q-60 0 -102 21z" />
    <glyph glyph-name="fourinferior" unicode="&#x2084;" horiz-adv-x="360" 
d="M129 -180l18 89h-166l-7 36l237 260h47l-54 -254h53l-8 -42h-54l-18 -89h-48zM156 -49l10 45q17 81 30 130l-160 -175h120z" />
    <glyph glyph-name="fiveinferior" unicode="&#x2085;" horiz-adv-x="323" 
d="M-46 -167l18 40q38 -18 84 -18t76 20.5t30 61.5t-34 57q-20 10 -62 10h-58l40 193h198l-10 -42h-148l-23 -110h11q47 0 74 -11q61 -27 61 -93q0 -61 -43.5 -95t-114.5 -34q-57 0 -99 21z" />
    <glyph glyph-name="sixinferior" unicode="&#x2086;" horiz-adv-x="337" 
d="M96 -188q-52 0 -83.5 35.5t-31.5 103.5q0 106 57.5 180.5t145.5 74.5q36 0 62 -12l-15 -40q-22 9 -49 9q-57 0 -95 -42.5t-52 -100.5h2q30 32 81 32q47 0 76.5 -29t29.5 -79q0 -55 -35.5 -93.5t-92.5 -38.5zM96 -145q34 0 56.5 23.5t22.5 61.5q0 30 -16.5 49.5
t-47.5 19.5q-36 0 -58.5 -21.5t-22.5 -58.5q0 -31 16.5 -52.5t49.5 -21.5z" />
    <glyph glyph-name="seveninferior" unicode="&#x2087;" horiz-adv-x="291" 
d="M-8 -180q42 180 178 335h-173l-7 42h242v-26q-144 -162 -190 -351h-50z" />
    <glyph glyph-name="eightinferior" unicode="&#x2088;" horiz-adv-x="360" 
d="M106 -188q-52 0 -85.5 26.5t-33.5 72.5q0 76 85 107v1q-47 28 -47 80q0 50 36 78.5t87 28.5q53 0 84 -25.5t31 -70.5q0 -71 -79 -96v-1q64 -24 64 -86q0 -54 -41 -84.5t-101 -30.5zM110 -145q34 0 61.5 18t27.5 53q0 47 -80 70q-37 -9 -60 -30t-23 -49q0 -32 21 -47
t53 -15zM134 34q80 20 80 76q0 25 -18 39t-48 14q-31 0 -52.5 -16t-21.5 -46q0 -23 17 -40.5t43 -26.5z" />
    <glyph glyph-name="nineinferior" unicode="&#x2089;" horiz-adv-x="341" 
d="M-29 -176l13 41q23 -10 53 -10q113 0 143 132h-2q-34 -27 -84 -27q-47 0 -76 28t-29 80q0 64 36.5 101t89.5 37q59 0 90 -38.5t31 -102.5q0 -119 -54 -186t-143 -67q-37 0 -68 12zM101 3q42 0 82 33q3 16 3 33q0 45 -20 69.5t-52 24.5t-54 -24.5t-22 -65.5
q0 -34 16.5 -52t46.5 -18z" />
    <glyph glyph-name="parenleftinferior" unicode="&#x208d;" horiz-adv-x="244" 
d="M58 -229q-56 70 -56 180q0 173 154 300l26 -32q-131 -118 -131 -264q0 -98 42 -160z" />
    <glyph glyph-name="parenrightinferior" unicode="&#x208e;" horiz-adv-x="244" 
d="M-29 -229l-26 32q131 118 131 264q0 98 -42 160l35 24q56 -70 56 -180q0 -173 -154 -300z" />
    <glyph glyph-name="Euro" unicode="&#x20ac;" horiz-adv-x="513" 
d="M14 218l8 46h68v7q0 64 13 119h-73l8 46h77q35 104 108.5 166t172.5 62q78 0 129 -37l-11 -48q-55 37 -116 37q-80 0 -138 -49t-88 -131h266l-18 -46h-262q-12 -52 -12 -109v-17h252l-18 -46h-231q19 -180 157 -180q72 0 137 45l14 -45q-73 -48 -155 -48q-190 0 -210 228
h-78z" />
    <glyph glyph-name="afii61289" unicode="&#x2113;" horiz-adv-x="438" 
d="M180 -10q-57 0 -87.5 33.5t-30.5 95.5q0 27 6 58q-36 -12 -70 -21l-5 48q47 13 85 28l32 152q29 136 88.5 208t138.5 72q49 0 76 -28t27 -73q0 -90 -87 -194t-227 -168q-8 -40 -8 -73q0 -89 69 -89q55 0 125 51l24 -38q-82 -62 -156 -62zM137 258q101 48 174 137t73 165
q0 57 -52 57q-51 0 -99 -62.5t-74 -189.5z" />
    <glyph glyph-name="afii61352" unicode="&#x2116;" horiz-adv-x="963" 
d="M14 0l138 659h48l188 -460q32 -83 38 -101h2q7 54 17 103l95 458h52l-138 -659h-39l-199 481q-16 37 -34 92h-2q-5 -56 -14 -97l-100 -476h-52zM578 143l9 43h289l-9 -43h-289zM748 263q-59 0 -88.5 35.5t-29.5 87.5q0 96 53 160.5t122 64.5q59 0 88.5 -36t29.5 -89
q0 -95 -53 -159t-122 -64zM749 307q54 0 89.5 53.5t35.5 120.5q0 86 -70 86q-54 0 -89.5 -54t-35.5 -121q0 -85 70 -85z" />
    <glyph glyph-name="uni2117" unicode="&#x2117;" horiz-adv-x="784" 
d="M387 -10q-142 0 -237 97.5t-95 239.5t95 239.5t237 97.5t237 -97.5t95 -239.5t-95 -239.5t-237 -97.5zM387 27q124 0 206 86t82 214t-82 213.5t-206 85.5t-206 -85.5t-82 -213.5t82 -214t206 -86zM335 133h-43v387h103q59 0 94 -32.5t35 -87.5q0 -58 -36 -91t-101 -33
h-52v-143zM335 314h55q89 0 89 84q0 83 -88 83h-56v-167z" />
    <glyph glyph-name="trademark" unicode="&#x2122;" horiz-adv-x="813" 
d="M193 264v358h-108v37h265l-11 -37h-104v-358h-42zM394 264v395h39l106 -161q28 -42 41 -70h2q13 28 41 70l106 161h39v-395h-42v242q0 59 4 88h-2q-15 -28 -37 -63l-97 -147h-26l-97 147q-22 35 -37 63h-2q4 -29 4 -88v-242h-42z" />
    <glyph glyph-name="estimated" unicode="&#x212e;" horiz-adv-x="754" 
d="M376 -10q-146 0 -248.5 84.5t-102.5 226.5q0 143 103 226.5t252 83.5q86 0 154.5 -28t110.5 -74.5t63.5 -104t19.5 -119.5h-556v-160q32 -46 88 -71.5t121 -25.5q134 0 209 91h90q-103 -129 -304 -129zM172 324h414v152q-68 97 -206 97q-139 0 -208 -97v-152z" />
    <glyph glyph-name="onethird" unicode="&#x2153;" horiz-adv-x="825" 
d="M113 0l486 659h53l-486 -659h-53zM132 270l69 329q-41 -23 -114 -42v42q64 16 133 56h41l-81 -385h-48zM496 13l18 40q39 -18 84 -18q47 0 76.5 19.5t29.5 55.5q0 62 -103 62h-41l5 43h39q51 1 81 22.5t30 54.5q0 51 -64 51q-43 0 -89 -23l-17 37q54 29 112 29
q50 0 78.5 -25t28.5 -65q0 -36 -23 -62.5t-58 -37.5v-2q31 -6 50.5 -28t19.5 -55q0 -53 -42 -86t-113 -33q-60 0 -102 21z" />
    <glyph glyph-name="twothirds" unicode="&#x2154;" horiz-adv-x="825" 
d="M161 0l486 659h53l-486 -659h-53zM43 270q6 56 32 97.5t58 65t63.5 42t52.5 40.5t21 49q0 22 -16 35.5t-45 13.5q-42 0 -95 -30l-19 37q61 36 118 36q50 0 78 -25t28 -65q0 -34 -19 -60.5t-47.5 -46t-58.5 -38.5t-56 -46t-35 -60h184l-4 -45h-240zM535 13l18 40
q39 -18 84 -18q47 0 76.5 19.5t29.5 55.5q0 62 -103 62h-41l5 43h39q51 1 81 22.5t30 54.5q0 51 -64 51q-43 0 -89 -23l-17 37q54 29 112 29q50 0 78.5 -25t28.5 -65q0 -36 -23 -62.5t-58 -37.5v-2q31 -6 50.5 -28t19.5 -55q0 -53 -42 -86t-113 -33q-60 0 -102 21z" />
    <glyph glyph-name="oneeighth" unicode="&#x215b;" horiz-adv-x="825" 
d="M117 0l486 659h53l-486 -659h-53zM125 270l69 329q-41 -23 -114 -42v42q64 16 133 56h41l-81 -385h-48zM615 -8q-52 0 -85.5 26.5t-33.5 72.5q0 76 85 107v1q-47 28 -47 80q0 50 36 78.5t87 28.5q53 0 84 -25.5t31 -70.5q0 -71 -79 -96v-1q64 -24 64 -86q0 -54 -41 -84.5
t-101 -30.5zM619 35q34 0 61.5 18t27.5 53q0 47 -80 70q-37 -9 -60 -30t-23 -49q0 -32 21 -47t53 -15zM643 214q80 20 80 76q0 25 -18 39t-48 14q-31 0 -52.5 -16t-21.5 -46q0 -23 17 -40.5t43 -26.5z" />
    <glyph glyph-name="threeeighths" unicode="&#x215c;" horiz-adv-x="825" 
d="M145 0l486 659h53l-486 -659h-53zM618 -8q-52 0 -85.5 26.5t-33.5 72.5q0 76 85 107v1q-47 28 -47 80q0 50 36 78.5t87 28.5q53 0 84 -25.5t31 -70.5q0 -71 -79 -96v-1q64 -24 64 -86q0 -54 -41 -84.5t-101 -30.5zM622 35q34 0 61.5 18t27.5 53q0 47 -80 70
q-37 -9 -60 -30t-23 -49q0 -32 21 -47t53 -15zM646 214q80 20 80 76q0 25 -18 39t-48 14q-31 0 -52.5 -16t-21.5 -46q0 -23 17 -40.5t43 -26.5zM52 284l18 40q39 -18 84 -18q47 0 76.5 19.5t29.5 55.5q0 62 -103 62h-41l5 43h39q51 1 81 22.5t30 54.5q0 51 -64 51
q-43 0 -89 -23l-17 37q54 29 112 29q50 0 78.5 -25t28.5 -65q0 -36 -23 -62.5t-58 -37.5v-2q31 -6 50.5 -28t19.5 -55q0 -53 -42 -86t-113 -33q-60 0 -102 21z" />
    <glyph glyph-name="fiveeighths" unicode="&#x215d;" horiz-adv-x="825" 
d="M144 0l486 659h53l-486 -659h-53zM41 284l18 40q38 -18 84 -18t76 20.5t30 61.5t-34 57q-20 10 -62 10h-58l40 193h198l-10 -42h-148l-23 -110h11q47 0 74 -11q61 -27 61 -93q0 -61 -43.5 -95t-114.5 -34q-57 0 -99 21zM629 -8q-52 0 -85.5 26.5t-33.5 72.5q0 76 85 107
v1q-47 28 -47 80q0 50 36 78.5t87 28.5q53 0 84 -25.5t31 -70.5q0 -71 -79 -96v-1q64 -24 64 -86q0 -54 -41 -84.5t-101 -30.5zM633 35q34 0 61.5 18t27.5 53q0 47 -80 70q-37 -9 -60 -30t-23 -49q0 -32 21 -47t53 -15zM657 214q80 20 80 76q0 25 -18 39t-48 14
q-31 0 -52.5 -16t-21.5 -46q0 -23 17 -40.5t43 -26.5z" />
    <glyph glyph-name="seveneighths" unicode="&#x215e;" horiz-adv-x="825" 
d="M115 0l486 659h53l-486 -659h-53zM607 -8q-52 0 -85.5 26.5t-33.5 72.5q0 76 85 107v1q-47 28 -47 80q0 50 36 78.5t87 28.5q53 0 84 -25.5t31 -70.5q0 -71 -79 -96v-1q64 -24 64 -86q0 -54 -41 -84.5t-101 -30.5zM611 35q34 0 61.5 18t27.5 53q0 47 -80 70
q-37 -9 -60 -30t-23 -49q0 -32 21 -47t53 -15zM635 214q80 20 80 76q0 25 -18 39t-48 14q-31 0 -52.5 -16t-21.5 -46q0 -23 17 -40.5t43 -26.5zM133 270q42 180 178 335h-173l-7 42h242v-26q-144 -162 -190 -351h-50z" />
    <glyph glyph-name="partialdiff" unicode="&#x2202;" horiz-adv-x="494" 
d="M176 -10q-76 0 -121 49.5t-45 129.5q0 110 70 177.5t175 67.5q79 0 147 -45h2q1 10 1 42q0 108 -45.5 157t-109.5 49t-133 -44l-24 40q80 51 155 51q98 0 155.5 -67t57.5 -187q0 -180 -81.5 -300t-203.5 -120zM181 38q77 0 137 77t79 198q-67 53 -142 53
q-79 0 -134 -52.5t-55 -138.5q0 -62 30.5 -99.5t84.5 -37.5z" />
    <glyph glyph-name="Delta" unicode="&#x2206;" horiz-adv-x="555" 
d="M-35 0l345 662h36l125 -662h-506zM45 46h365l-75 400q-10 55 -20 121h-2q-19 -43 -57 -115z" />
    <glyph glyph-name="product" unicode="&#x220f;" horiz-adv-x="613" 
d="M13 -180l164 793h-88l10 46h557l-19 -46h-87l-164 -793h-52l164 793h-269l-164 -793h-52z" />
    <glyph glyph-name="summation" unicode="&#x2211;" horiz-adv-x="558" 
d="M-39 -180l335 436l-159 403h476l-19 -46h-382l144 -363l-295 -384h391l-10 -46h-481z" />
    <glyph glyph-name="minus" unicode="&#x2212;" horiz-adv-x="511" 
d="M5 231v47h475v-47h-475z" />
    <glyph glyph-name="radical" unicode="&#x221a;" horiz-adv-x="641" 
d="M223 -122l-64 456l-93 -28l-15 51l155 47l44 -344q7 -52 12 -125h2q29 66 55 120l370 772h58l-458 -949h-66z" />
    <glyph glyph-name="infinity" unicode="&#x221e;" horiz-adv-x="768" 
d="M189 104q-71 0 -115 46.5t-44 113.5t44 113.5t115 46.5q56 0 100 -31.5t93 -90.5q47 58 92 90t105 32q71 0 115 -46.5t44 -113.5t-44 -113.5t-115 -46.5q-60 0 -105 31.5t-92 89.5q-49 -58 -93 -89.5t-100 -31.5zM191 153q45 0 81.5 28.5t79.5 82.5q-43 54 -79.5 82.5
t-81.5 28.5q-48 0 -77 -30.5t-29 -80.5t29 -80.5t77 -30.5zM577 153q48 0 77 30.5t29 80.5t-29 80.5t-77 30.5q-44 0 -80.5 -28t-82.5 -83q45 -55 81.5 -83t81.5 -28z" />
    <glyph glyph-name="integral" unicode="&#x222b;" horiz-adv-x="291" 
d="M-157 -221l17 43q24 -12 55 -12q84 0 107 111l129 623q10 54 28 86q44 78 133 78q44 0 72 -16l-17 -43q-24 12 -55 12q-84 0 -107 -111l-129 -623q-11 -57 -27 -86q-44 -78 -134 -78q-44 0 -72 16z" />
    <glyph glyph-name="approxequal" unicode="&#x2248;" horiz-adv-x="511" 
d="M53 143l-33 30q59 62 118 62q34 0 113 -31.5t105 -31.5q23 0 40.5 10t43.5 35l33 -30q-59 -62 -118 -62q-33 0 -114 31.5t-104 31.5t-40.5 -10t-43.5 -35zM53 298l-33 30q59 62 118 62q34 0 113 -31.5t105 -31.5q23 0 40.5 10t43.5 35l33 -30q-59 -62 -118 -62
q-33 0 -114 31.5t-104 31.5t-40.5 -10t-43.5 -35z" />
    <glyph glyph-name="notequal" unicode="&#x2260;" horiz-adv-x="511" 
d="M124 45l53 109h-164v47h187l53 108h-240v47h263l51 103h52l-51 -103h160v-47h-183l-53 -108h236v-47h-259l-53 -109h-52z" />
    <glyph glyph-name="lessequal" unicode="&#x2264;" horiz-adv-x="511" 
d="M5 0v47h475v-47h-475zM29 265v52l414 163v-51l-354 -137v-2l354 -137v-51z" />
    <glyph glyph-name="greaterequal" unicode="&#x2265;" horiz-adv-x="510" 
d="M-2 0v47h475v-47h-475zM35 102v51l354 137v2l-354 137v51l414 -163v-52z" />
    <glyph glyph-name="lozenge" unicode="&#x25ca;" horiz-adv-x="467" 
d="M145 0l-85 289l203 289h56l85 -289l-203 -289h-56zM112 286l68 -239h2l172 245l-68 239h-2z" />
    <glyph glyph-name="Imacron" horiz-adv-x="218" 
d="M14 0l138 659h52l-138 -659h-52zM70 722l10 46h232l-10 -46h-232z" />
    <glyph glyph-name="ibreve" horiz-adv-x="203" 
d="M147 546q-52 0 -78 30.5t-22 83.5h42q0 -71 62 -71t87 71h43q-11 -52 -46.5 -83t-87.5 -31zM11 0l99 473h52l-99 -473h-52z" />
    <glyph glyph-name="zero.numr" horiz-adv-x="360" 
d="M179 263q-52 0 -81 38t-29 106q0 107 44.5 178.5t114.5 71.5q52 0 81 -38t29 -106q0 -107 -44.5 -178.5t-114.5 -71.5zM181 306q44 0 76 58.5t32 142.5q0 107 -63 107q-44 0 -76 -58.5t-32 -142.5q0 -107 63 -107z" />
    <glyph glyph-name="Adieresis.small" horiz-adv-x="470" 
d="M-35 0l291 534h29l111 -534h-54l-27 138h-221l-74 -138h-55zM119 184h187l-28 143q-13 69 -19 115h-2q-18 -38 -59 -113zM189 593q-31 0 -31 31q0 18 11.5 29.5t27.5 11.5q31 0 31 -31q0 -18 -11.5 -29.5t-27.5 -11.5zM359 593q-31 0 -31 31q0 18 11.5 29.5t27.5 11.5
q31 0 31 -31q0 -18 -11.5 -29.5t-27.5 -11.5z" />
    <glyph glyph-name="Atilde.small" horiz-adv-x="470" 
d="M143 592q4 44 25 66.5t52 22.5q29 0 67 -25t54 -25q29 0 36 44h44q-4 -44 -25 -66.5t-52 -22.5q-29 0 -67 25t-54 25q-29 0 -36 -44h-44zM-35 0l291 534h29l111 -534h-54l-27 138h-221l-74 -138h-55zM119 184h187l-28 143q-13 69 -19 115h-2q-18 -38 -59 -113z" />
    <glyph glyph-name="Acircumflex.small" horiz-adv-x="470" 
d="M-35 0l291 534h29l111 -534h-54l-27 138h-221l-74 -138h-55zM119 184h187l-28 143q-13 69 -19 115h-2q-18 -38 -59 -113zM148 566l118 147h57l78 -147h-50l-59 109l-91 -109h-53z" />
    <glyph glyph-name="Aacute.small" horiz-adv-x="470" 
d="M252 566l77 147h67l-100 -147h-44zM-35 0l291 534h29l111 -534h-54l-27 138h-221l-74 -138h-55zM119 184h187l-28 143q-13 69 -19 115h-2q-18 -38 -59 -113z" />
    <glyph glyph-name="Agrave.small" horiz-adv-x="470" 
d="M247 566l-73 147h67l50 -147h-44zM-35 0l291 534h29l111 -534h-54l-27 138h-221l-74 -138h-55zM119 184h187l-28 143q-13 69 -19 115h-2q-18 -38 -59 -113z" />
    <glyph glyph-name="Z.small" horiz-adv-x="436" 
d="M-20 0l353 484h-251l-11 46h356l-353 -484h285l-10 -46h-369z" />
    <glyph glyph-name="Y.small" horiz-adv-x="403" 
d="M117 0l46 219l-100 311h52l80 -260h2l184 260h58l-224 -311l-46 -219h-52z" />
    <glyph glyph-name="X.small" horiz-adv-x="489" 
d="M-33 0l244 275l-137 255h58l119 -222l197 222h64l-236 -265l144 -265h-58l-126 233l-205 -233h-64z" />
    <glyph glyph-name="W.small" horiz-adv-x="690" 
d="M158 -2l-100 532h53l55 -304q11 -59 20 -131h2q24 53 61 125l101 196l-22 114h53l61 -313q12 -60 20 -122h2q20 44 58 124l148 311h56l-260 -532h-29l-52 267q-11 55 -16 82h-2q-6 -13 -20 -40t-21 -40l-138 -269h-30z" />
    <glyph glyph-name="V.small" horiz-adv-x="470" 
d="M168 -2l-107 532h54l61 -327q7 -36 20 -116h2q29 58 62 114l191 329h56l-309 -532h-30z" />
    <glyph glyph-name="U.small" horiz-adv-x="546" 
d="M222 -11q-74 0 -124 37t-50 110q0 37 10 83l65 311h52l-69 -329q-6 -29 -6 -56q0 -53 32.5 -80.5t91.5 -27.5q97 0 141 70q22 36 37 107l66 316h52l-68 -325q-17 -84 -42 -123q-59 -93 -188 -93z" />
    <glyph glyph-name="T.small" horiz-adv-x="404" 
d="M116 0l101 484h-169l11 46h390l-19 -46h-161l-101 -484h-52z" />
    <glyph glyph-name="S.small" horiz-adv-x="404" 
d="M0 26l18 46q61 -34 124 -34q65 0 95.5 30.5t30.5 69.5q0 32 -20 56.5t-48 42t-56.5 37t-48.5 51t-20 73.5q0 62 44.5 102t116.5 40q66 0 125 -28l-13 -45q-50 25 -112 25q-46 0 -76.5 -24t-30.5 -67q0 -32 20 -57.5t48.5 -43.5t57 -37.5t48.5 -50t20 -69.5
q0 -67 -45.5 -110t-136.5 -43q-75 0 -141 36z" />
    <glyph glyph-name="R.small" horiz-adv-x="452" 
d="M20 0l111 530h90q73 0 120 -34.5t47 -99.5q0 -58 -38.5 -103t-107.5 -58v-2q25 -28 59 -98l66 -135h-57l-60 126q-33 67 -58 96h-74l-46 -222h-52zM128 268h55q68 0 109 33.5t41 92.5q0 41 -29 65.5t-81 24.5h-50z" />
    <glyph glyph-name="Q.small" horiz-adv-x="593" 
d="M373 -119q-33 0 -62 8.5t-54.5 27t-40.5 32t-39 38.5q-6 7 -35.5 30.5t-47.5 42.5t-35 59.5t-17 90.5q0 140 86.5 235t203.5 95q95 0 154 -62t59 -158q0 -138 -85 -233t-202 -95q-13 0 -23 2v-1q8 -6 27.5 -21t31.5 -22.5t34 -14.5t48 -7q25 0 51 6l9 -44q-27 -9 -63 -9z
M258 38q92 0 161.5 79.5t69.5 200.5q0 79 -42.5 126.5t-117.5 47.5q-92 0 -161.5 -79.5t-69.5 -200.5q0 -79 42.5 -126.5t117.5 -47.5z" />
    <glyph glyph-name="P.small" horiz-adv-x="419" 
d="M20 0l111 530h83q89 0 132 -42t43 -106q0 -84 -59.5 -134.5t-165.5 -50.5h-51l-41 -197h-52zM123 243h53q73 0 116 36.5t43 106.5q0 41 -28.5 69.5t-86.5 28.5h-47z" />
    <glyph glyph-name="O.small" horiz-adv-x="593" 
d="M255 -10q-95 0 -154 62t-59 158q0 140 86.5 235t203.5 95q95 0 154 -62t59 -158q0 -140 -86.5 -235t-203.5 -95zM258 38q92 0 161.5 79.5t69.5 200.5q0 79 -42.5 126.5t-117.5 47.5q-92 0 -161.5 -79.5t-69.5 -200.5q0 -79 42.5 -126.5t117.5 -47.5z" />
    <glyph glyph-name="N.small" horiz-adv-x="587" 
d="M20 0l111 530h43l176 -331q50 -96 57 -111h2q12 65 28 141l63 301h52l-111 -530h-37l-181 336q-41 74 -57 111h-2q-6 -35 -28 -141l-64 -306h-52z" />
    <glyph glyph-name="M.small" horiz-adv-x="675" 
d="M20 0l111 530h47l92 -242q24 -64 40 -113h2q34 49 85 114l190 241h53l-111 -530h-52l57 273q12 63 37 164h-3q-34 -47 -79 -104l-169 -215h-36l-72 190q-36 92 -48 129h-2q-9 -52 -26 -133l-64 -304h-52z" />
    <glyph glyph-name="L.small" horiz-adv-x="355" 
d="M20 0l111 530h52l-101 -484h205l-10 -46h-257z" />
    <glyph glyph-name="K.small" horiz-adv-x="440" 
d="M20 0l111 530h52l-54 -256h2l247 256h62l-265 -275l187 -255h-59l-178 243h-2l-51 -243h-52z" />
    <glyph glyph-name="J.small" horiz-adv-x="235" 
d="M-103 -109l15 43q20 -7 42 -7q39 0 58.5 24t28.5 68l107 511h52l-108 -517q-13 -62 -43.5 -97t-92.5 -35q-33 0 -59 10z" />
    <glyph glyph-name="I.small" horiz-adv-x="218" 
d="M20 0l111 530h52l-111 -530h-52z" />
    <glyph glyph-name="H.small" horiz-adv-x="557" 
d="M20 0l111 530h52l-50 -238h287l50 238h52l-111 -530h-52l51 246h-287l-51 -246h-52z" />
    <glyph glyph-name="G.small" horiz-adv-x="534" 
d="M265 -10q-103 0 -163 63t-60 167q0 131 83 225.5t209 94.5q82 0 145 -33l-15 -45q-55 30 -128 30q-95 0 -166.5 -74t-71.5 -196q0 -86 44.5 -135.5t124.5 -49.5q59 0 99 21l40 190h52l-47 -222q-73 -36 -146 -36z" />
    <glyph glyph-name="F.small" horiz-adv-x="387" 
d="M20 0l111 530h254l-19 -46h-193l-41 -197h191l-10 -46h-191l-50 -241h-52z" />
    <glyph glyph-name="E.small" horiz-adv-x="412" 
d="M20 0l111 530h254l-19 -46h-194l-39 -192h191l-10 -46h-191l-41 -200h218l-10 -46h-270z" />
    <glyph glyph-name="D.small" horiz-adv-x="523" 
d="M20 0l111 530h98q110 0 178 -60t68 -162q0 -138 -90 -223t-241 -85h-124zM82 46h71q117 0 192 71t75 193q0 79 -51 126.5t-141 47.5h-55z" />
    <glyph glyph-name="C.small" horiz-adv-x="493" 
d="M258 -10q-97 0 -156.5 61t-59.5 162q0 134 80 230.5t209 96.5q74 0 137 -33l-15 -45q-58 30 -123 30q-94 0 -163 -75t-69 -201q0 -85 43.5 -131.5t117.5 -46.5q75 0 142 40l12 -46q-72 -42 -155 -42z" />
    <glyph glyph-name="B.small" horiz-adv-x="445" 
d="M20 0l111 530h108q63 0 104.5 -31.5t41.5 -92.5q0 -44 -26.5 -80t-70.5 -53v-2q35 -9 59.5 -37t24.5 -66q0 -70 -56.5 -119t-161.5 -49h-134zM82 46h77q74 0 116.5 33.5t42.5 82.5q0 41 -30 62.5t-76 21.5h-88zM133 292h75q50 0 86.5 31.5t36.5 82.5q0 78 -98 78h-60z
" />
    <glyph glyph-name="A.small" horiz-adv-x="470" 
d="M-35 0l291 534h29l111 -534h-54l-27 138h-221l-74 -138h-55zM119 184h187l-28 143q-13 69 -19 115h-2q-18 -38 -59 -113z" />
    <glyph glyph-name="four.OT" 
d="M234 -195l41 195h-279l-11 37l399 449h44l-91 -440h82l-9 -46h-83l-37 -182zM285 46l45 217q17 82 29 123h-2l-301 -340h103h126z" />
    <glyph glyph-name="three.OT" 
d="M-11 -177l16 46q45 -17 100 -17q106 0 166.5 52t60.5 119q0 59 -39.5 86t-126.5 27h-74l5 45q110 0 183 41t73 122q0 51 -30.5 77t-79.5 26q-65 0 -151 -43l-18 41q84 49 168 49q76 0 121.5 -40t45.5 -105q0 -67 -40.5 -113.5t-95.5 -66.5v-2q115 -26 115 -139
q0 -96 -78 -159.5t-209 -63.5q-63 0 -112 18z" />
    <glyph glyph-name="two.OT" 
d="M30 0q8 51 30 93.5t51 70t62.5 50t65 40t57.5 34t42 37.5t16 45q0 32 -27.5 54.5t-76.5 22.5q-62 0 -140 -34l-13 44q74 37 157 37q70 0 113 -34.5t43 -88.5q0 -41 -27 -73t-68 -56t-83.5 -48.5t-80.5 -62.5t-53 -85h270l-10 -46h-328z" />
    <glyph glyph-name="one.OT" 
d="M203 0l87 414q-67 -42 -179 -71v47q40 12 103 40.5t100 55.5h43l-102 -486h-52z" />
    <glyph glyph-name="zero.OT" 
d="M203 -10q-79 0 -124.5 54.5t-45.5 142.5q0 137 71 222t168 85q79 0 124.5 -54.5t45.5 -142.5q0 -137 -71 -222t-168 -85zM208 38q74 0 126 74t52 183q0 69 -30 110t-89 41q-74 0 -126 -74t-52 -183q0 -69 30 -110t89 -41z" />
    <glyph glyph-name="yen.OP" 
d="M166 0l20 98h-131l8 46h132l13 63h-135l8 46h112l-95 257h55l88 -244h2l169 244h59l-180 -257h112l-8 -46h-135l-13 -63h137l-8 -46h-139l-20 -98h-51z" />
    <glyph glyph-name="sterling.OP" 
d="M46 0l6 42q73 37 98 197h-58l8 46h56l11 72q12 77 58.5 119.5t115.5 42.5q51 0 84 -18l-20 -43q-28 14 -64 14q-48 0 -79.5 -31.5t-39.5 -86.5l-11 -69h165l-18 -46h-154q-20 -138 -73 -191v-2h61h173l-8 -46h-311z" />
    <glyph glyph-name="dollar.OP" 
d="M152 -59l17 72q-69 5 -116 32l20 44q50 -28 117 -28q62 0 93 24t31 67q0 31 -19.5 53t-47.5 37t-56 30.5t-47.5 42t-19.5 63.5q0 54 38.5 87.5t109.5 37.5l14 67h49l-13 -68q57 -7 93 -23l-7 -48q-55 24 -117 24q-51 0 -81 -19t-30 -53q0 -28 19.5 -48.5t47.5 -35.5
t56 -31.5t47.5 -45.5t19.5 -68q0 -60 -41.5 -96.5t-110.5 -43.5l-15 -73h-51z" />
    <glyph glyph-name="Euro.OP" 
d="M33 165l8 46h59q0 40 10 87h-63l8 46h68q29 79 87.5 127t140.5 48q59 0 114 -31l-14 -46q-53 29 -101 29q-56 0 -100.5 -33.5t-68.5 -93.5h212l-18 -46h-209q-10 -45 -10 -87h208l-18 -46h-188q8 -61 41 -94t89 -33q57 0 118 36l13 -46q-65 -38 -135 -38
q-80 0 -126.5 45.5t-55.5 129.5h-69z" />
    <glyph glyph-name="nine.OP" 
d="M13 -193l-7 49q129 16 223.5 87t134.5 180h-2q-70 -46 -152 -46q-80 0 -127 51t-47 137q0 104 58 166.5t147 62.5q95 0 146.5 -68t51.5 -165q0 -79 -25 -152t-75 -136t-133.5 -107t-192.5 -59zM222 124q79 0 152 54q9 31 9 86q0 71 -34.5 126.5t-104.5 55.5
q-68 0 -110 -48.5t-42 -129.5q0 -65 31 -104.5t99 -39.5z" />
    <glyph glyph-name="eight.OP" horiz-adv-x="532" 
d="M230 -10q-90 0 -145.5 44.5t-55.5 122.5q0 68 43.5 114t113.5 70v2q-90 50 -90 145q0 77 59 126.5t149 49.5q82 0 134.5 -41.5t52.5 -112.5q0 -62 -46 -108t-109 -66v-2q123 -44 123 -154q0 -86 -68.5 -138t-160.5 -52zM229 38q75 0 124.5 38.5t49.5 103.5q0 50 -42 85
t-118 52q-73 -19 -115.5 -60.5t-42.5 -96.5q0 -63 43.5 -92.5t100.5 -29.5zM269 358q166 41 166 151q0 54 -38 81t-96 27q-59 0 -104 -32.5t-45 -94.5q0 -44 32 -81t85 -51z" />
    <glyph glyph-name="seven.OP" horiz-adv-x="450" 
d="M30 -199q46 178 132 344t194 295h-309l-7 46h396v-26q-111 -118 -206 -296.5t-136 -350.5z" />
    <glyph glyph-name="six.OP" 
d="M223 -10q-82 0 -133 61t-51 169q0 57 14 114t45 113t76.5 101.5t113 79t148.5 45.5l7 -49q-127 -17 -219 -98t-122 -204h2q25 35 70 59.5t95 24.5q76 0 123.5 -48.5t47.5 -133.5q0 -98 -60.5 -166t-156.5 -68zM229 38q65 0 110 50t45 134q0 59 -33 98t-85 39
q-47 0 -89 -26.5t-63 -71.5q-15 -33 -15 -75q0 -61 34.5 -104.5t95.5 -43.5z" />
    <glyph glyph-name="five.OP" horiz-adv-x="451" 
d="M-28 -178l17 46q37 -16 94 -16q99 0 162 49.5t63 134.5q0 40 -15.5 66t-44.5 38t-57.5 16t-66.5 4h-52l63 326h304l-17 -46h-243l-46 -234h23q95 0 151.5 -40.5t56.5 -128.5q0 -99 -74 -165.5t-214 -66.5q-62 0 -104 17z" />
    <glyph glyph-name="four.OP" 
d="M229 -195l41 195h-279l-11 37l399 449h44l-91 -440h82l-9 -46h-83l-37 -182zM280 46l45 217q17 82 29 123h-2l-301 -340h103h126z" />
    <glyph glyph-name="three.OP" horiz-adv-x="469" 
d="M-27 -177l16 46q45 -17 100 -17q106 0 166.5 52t60.5 119q0 59 -39.5 86t-126.5 27h-74l5 45q110 0 183 41t73 122q0 51 -30.5 77t-79.5 26q-65 0 -151 -43l-18 41q84 49 168 49q76 0 121.5 -40t45.5 -105q0 -67 -40.5 -113.5t-95.5 -66.5v-2q115 -26 115 -139
q0 -96 -78 -159.5t-209 -63.5q-63 0 -112 18z" />
    <glyph glyph-name="two.OP" horiz-adv-x="489" 
d="M21 0q8 51 30 93.5t51 70t62.5 50t65 40t57.5 34t42 37.5t16 45q0 32 -27.5 54.5t-76.5 22.5q-62 0 -140 -34l-13 44q74 37 157 37q70 0 113 -34.5t43 -88.5q0 -41 -27 -73t-68 -56t-83.5 -48.5t-80.5 -62.5t-53 -85h270l-10 -46h-328z" />
    <glyph glyph-name="one.OP" horiz-adv-x="351" 
d="M124 0l87 414q-68 -43 -161 -67v47q38 11 92.5 37.5t92.5 54.5h43l-102 -486h-52z" />
    <glyph glyph-name="zero.OP" 
d="M203 -10q-79 0 -124.5 54.5t-45.5 142.5q0 137 71 222t168 85q79 0 124.5 -54.5t45.5 -142.5q0 -137 -71 -222t-168 -85zM208 38q74 0 126 74t52 183q0 69 -30 110t-89 41q-74 0 -126 -74t-52 -183q0 -69 30 -110t89 -41z" />
    <glyph glyph-name="yen.LT" horiz-adv-x="513" 
d="M162 0l26 128h-160l9 46h161l18 89h-165l9 46h143l-113 350h57l103 -331h2l208 331h60l-223 -350h143l-9 -46h-162l-19 -89h167l-9 -46h-167l-27 -128h-52z" />
    <glyph glyph-name="sterling.LT" horiz-adv-x="513" 
d="M32 0l7 43q96 47 131 272h-77l8 46h76l13 91q9 66 28 106q52 106 172 106q51 0 90 -19l-20 -43q-32 15 -70 15q-86 0 -124 -83q-14 -31 -21 -84l-13 -89h181l-18 -46h-169q-34 -216 -113 -267v-2h89h199l-8 -46h-361z" />
    <glyph glyph-name="five.OT" 
d="M-13 -178l17 46q37 -16 94 -16q99 0 162 49.5t63 134.5q0 40 -15.5 66t-44.5 38t-57.5 16t-66.5 4h-52l63 326h304l-17 -46h-243l-46 -234h23q95 0 151.5 -40.5t56.5 -128.5q0 -99 -74 -165.5t-214 -66.5q-61 0 -104 17z" />
    <glyph glyph-name="six.OT" 
d="M223 -10q-82 0 -133 61t-51 169q0 57 14 114t45 113t76.5 101.5t113 79t148.5 45.5l7 -49q-127 -17 -219 -98t-122 -204h2q25 35 70 59.5t95 24.5q76 0 123.5 -48.5t47.5 -133.5q0 -98 -60.5 -166t-156.5 -68zM229 38q65 0 110 50t45 134q0 59 -33 98t-85 39
q-47 0 -89 -26.5t-63 -71.5q-15 -33 -15 -75q0 -61 34.5 -104.5t95.5 -43.5z" />
    <glyph glyph-name="seven.OT" 
d="M69 -199q46 178 132 344t194 295h-309l-7 46h396v-26q-111 -118 -206 -296.5t-136 -350.5z" />
    <glyph glyph-name="eight.OT" 
d="M220 -10q-90 0 -145.5 44.5t-55.5 122.5q0 68 43.5 114t113.5 70v2q-90 50 -90 145q0 77 59 126.5t149 49.5q82 0 134.5 -41.5t52.5 -112.5q0 -62 -46 -108t-109 -66v-2q123 -44 123 -154q0 -86 -68.5 -138t-160.5 -52zM219 38q75 0 124.5 38.5t49.5 103.5q0 50 -42 85
t-118 52q-73 -19 -115.5 -60.5t-42.5 -96.5q0 -63 43.5 -92.5t100.5 -29.5zM259 358q166 41 166 151q0 54 -38 81t-96 27q-59 0 -104 -32.5t-45 -94.5q0 -44 32 -81t85 -51z" />
    <glyph glyph-name="nine.OT" 
d="M13 -193l-7 49q129 16 223.5 87t134.5 180h-2q-70 -46 -152 -46q-80 0 -127 51t-47 137q0 104 58 166.5t147 62.5q95 0 146.5 -68t51.5 -165q0 -79 -25 -152t-75 -136t-133.5 -107t-192.5 -59zM222 124q79 0 152 54q9 31 9 86q0 71 -34.5 126.5t-104.5 55.5
q-68 0 -110 -48.5t-42 -129.5q0 -65 31 -104.5t99 -39.5z" />
    <glyph glyph-name="Euro.OT" 
d="M33 165l8 46h59q0 40 10 87h-63l8 46h68q29 79 87.5 127t140.5 48q59 0 114 -31l-14 -46q-53 29 -101 29q-56 0 -100.5 -33.5t-68.5 -93.5h212l-18 -46h-209q-10 -45 -10 -87h208l-18 -46h-188q8 -61 41 -94t89 -33q57 0 118 36l13 -46q-65 -38 -135 -38
q-80 0 -126.5 45.5t-55.5 129.5h-69z" />
    <glyph glyph-name="dollar.OT" 
d="M152 -59l17 72q-69 5 -116 32l20 44q50 -28 117 -28q62 0 93 24t31 67q0 31 -19.5 53t-47.5 37t-56 30.5t-47.5 42t-19.5 63.5q0 54 38.5 87.5t109.5 37.5l14 67h49l-13 -68q57 -7 93 -23l-7 -48q-55 24 -117 24q-51 0 -81 -19t-30 -53q0 -28 19.5 -48.5t47.5 -35.5
t56 -31.5t47.5 -45.5t19.5 -68q0 -60 -41.5 -96.5t-110.5 -43.5l-15 -73h-51z" />
    <glyph glyph-name="sterling.OT" 
d="M46 0l6 42q73 37 98 197h-58l8 46h56l11 72q12 77 58.5 119.5t115.5 42.5q51 0 84 -18l-20 -43q-28 14 -64 14q-48 0 -79.5 -31.5t-39.5 -86.5l-11 -69h165l-18 -46h-154q-20 -138 -73 -191v-2h61h173l-8 -46h-311z" />
    <glyph glyph-name="yen.OT" 
d="M166 0l20 98h-131l8 46h132l13 63h-135l8 46h112l-95 257h55l88 -244h2l169 244h59l-180 -257h112l-8 -46h-135l-13 -63h137l-8 -46h-139l-20 -98h-51z" />
    <glyph glyph-name="zero.small" horiz-adv-x="429" 
d="M162 -10q-64 0 -101 47t-37 133q0 89 29.5 173.5t85 140.5t122.5 56q64 0 101 -47t37 -133q0 -89 -29.5 -173.5t-85 -140.5t-122.5 -56zM164 38q72 0 125.5 99.5t53.5 221.5q0 133 -84 133q-72 0 -125.5 -99.5t-53.5 -221.5q0 -133 84 -133z" />
    <glyph glyph-name="one.small" horiz-adv-x="330" 
d="M104 0l97 464q-59 -32 -136 -51v47q98 28 160 74h43l-112 -534h-52z" />
    <glyph glyph-name="two.small" horiz-adv-x="419" 
d="M8 0q10 62 32.5 111t50.5 79t59 54t60 41.5t52.5 35t38 40.5t14.5 52q0 37 -23.5 58t-64.5 21q-58 0 -126 -34l-14 44q68 38 143 38q62 0 101.5 -35t39.5 -90q0 -46 -26 -80.5t-65 -60t-80 -52t-77 -71.5t-50 -105h258l-10 -46h-313z" />
    <glyph glyph-name="three.small" horiz-adv-x="426" 
d="M4 28l24 42q60 -32 119 -32q65 0 105 33.5t40 86.5q0 89 -142 89h-58l4 48h39q52 0 80 7q43 11 71 40t28 72q0 37 -27 57.5t-68 20.5q-58 0 -122 -32l-14 43q70 37 141 37q66 0 106 -35.5t40 -92.5q0 -48 -32.5 -85t-83.5 -55v-2q93 -26 93 -112q0 -71 -56 -119.5
t-141 -48.5q-82 0 -146 38z" />
    <glyph glyph-name="four.small" horiz-adv-x="465" 
d="M228 0l30 143h-217l-6 45l320 346h37l-72 -345h77l-10 -46h-77l-30 -143h-52zM268 189l27 128q12 58 29 123l-231 -251h62h113z" />
    <glyph glyph-name="five.small" horiz-adv-x="419" 
d="M2 28l27 43q43 -32 109 -32q62 0 105 34.5t43 95.5q0 96 -137 96h-72l56 265h260l-13 -46h-205l-36 -172h19q90 0 137 -38.5t47 -102.5q0 -77 -57 -129t-146 -52q-75 0 -137 38z" />
    <glyph glyph-name="six.small" horiz-adv-x="456" 
d="M205 -10q-74 0 -115.5 54t-41.5 136q0 160 90.5 260t208.5 100q36 0 63 -8l-16 -45q-19 5 -49 5q-94 0 -158.5 -68.5t-80.5 -154.5h2q48 60 124 60q67 0 108 -43t41 -114q0 -73 -50.5 -127.5t-125.5 -54.5zM205 38q50 0 85.5 38.5t35.5 96.5q0 47 -25.5 77.5t-73.5 30.5
q-49 0 -85.5 -34.5t-36.5 -93.5q0 -48 26.5 -81.5t73.5 -33.5z" />
    <glyph glyph-name="seven.small" horiz-adv-x="374" 
d="M48 0q77 279 262 484h-243l-7 46h326v-26q-95 -103 -171 -233t-112 -271h-55z" />
    <glyph glyph-name="eight.small" horiz-adv-x="456" 
d="M191 -10q-74 0 -120 37t-46 99q0 54 35 93t92 59v2q-31 16 -50.5 46t-19.5 68q0 63 49.5 104.5t124.5 41.5q69 0 113 -35.5t44 -93.5q0 -48 -37.5 -85t-89.5 -54v-2q47 -17 72 -48.5t25 -74.5q0 -70 -57.5 -113.5t-134.5 -43.5zM191 38q59 0 98 30t39 79q0 38 -31.5 65.5
t-88.5 41.5q-52 -13 -90 -45t-38 -80q0 -46 33.5 -68.5t77.5 -22.5zM227 296q56 13 93 41t37 73q0 40 -29.5 61t-74.5 21q-46 0 -81 -25t-35 -71q0 -35 23 -61.5t67 -38.5z" />
    <glyph glyph-name="nine.small" horiz-adv-x="469" 
d="M46 9l13 46q37 -17 83 -17q81 0 131.5 56t69.5 146h-2q-60 -39 -125 -39t-108.5 38.5t-43.5 110.5q0 83 50 136.5t121 53.5q80 0 125 -55t45 -153q0 -60 -15 -118.5t-44.5 -109.5t-82 -82.5t-119.5 -31.5q-54 0 -98 19zM221 249q67 0 128 43q2 20 2 47q0 74 -31.5 113.5
t-84.5 39.5q-48 0 -81.5 -40t-33.5 -101q0 -47 26.5 -74.5t74.5 -27.5z" />
    <glyph glyph-name="Euro.small" horiz-adv-x="426" 
d="M2 173l8 46h56q0 42 10 89h-60l8 46h65q30 85 92 135.5t139 50.5q59 0 114 -31l-14 -46q-53 29 -101 29q-55 0 -100.5 -37t-71.5 -101h215l-18 -46h-212q-11 -51 -11 -89h206l-18 -46h-186q7 -65 39 -100t88 -35q55 0 116 36l14 -45q-66 -39 -134 -39q-79 0 -124.5 48.5
t-53.5 134.5h-66z" />
    <glyph glyph-name="dollar.small" horiz-adv-x="426" 
d="M113 -62l16 77q-55 7 -96 31l20 43q42 -28 101 -28q57 0 86 26t29 71q0 30 -17.5 54t-42.5 41t-49.5 35t-42 45.5t-17.5 62.5q0 54 40 88t100 37l15 71h49l-15 -73q35 -4 76 -21l-7 -48q-46 24 -104 24q-41 0 -70 -19t-29 -57q0 -27 17.5 -48t42.5 -37t49.5 -34t42 -48.5
t17.5 -70.5q0 -62 -41 -100.5t-105 -44.5l-16 -77h-49z" />
    <glyph glyph-name="sterling.small" horiz-adv-x="426" 
d="M10 0l6 43q81 37 107 206h-64l9 46h61l11 69q8 54 27 90q23 45 62 65.5t79 20.5q50 0 85 -19l-20 -43q-30 15 -64 15q-66 0 -96 -63q-14 -28 -21 -71l-10 -64h154l-19 -46h-142q-24 -152 -85 -201v-2h78h156l-9 -46h-305z" />
    <glyph glyph-name="yen.small" horiz-adv-x="426" 
d="M24 101l9 46h131l13 61h-135l9 46h115l-89 276h53l81 -259h2l165 259h58l-180 -276h114l-9 -46h-133l-13 -61h136l-9 -46h-136l-21 -101h-52l21 101h-130z" />
    <glyph glyph-name="six.LT" horiz-adv-x="513" 
d="M234 -10q-86 0 -135.5 57t-49.5 175q0 190 100.5 316t256.5 126q36 0 69 -8l-16 -45q-25 5 -51 5q-84 0 -152 -48t-104.5 -116t-47.5 -145h2q23 40 70 65t97 25q79 0 126.5 -49t47.5 -136q0 -90 -61 -156t-152 -66zM234 38q65 0 111 49.5t46 126.5q0 59 -31 97t-92 38
q-64 0 -112.5 -47.5t-48.5 -124.5q0 -59 33.5 -99t93.5 -40z" />
    <glyph glyph-name="seven.LT" horiz-adv-x="513" 
d="M91 0q50 186 132 332t196 281h-311l-7 46h396v-26q-118 -132 -210.5 -295t-136.5 -338h-59z" />
    <glyph glyph-name="eight.LT" horiz-adv-x="513" 
d="M218 -10q-90 0 -145.5 44.5t-55.5 122.5q0 68 43.5 114t113.5 70v2q-90 50 -90 145q0 77 59 126.5t149 49.5q82 0 134.5 -41.5t52.5 -112.5q0 -62 -46 -108t-109 -66v-2q123 -44 123 -154q0 -86 -68.5 -138t-160.5 -52zM217 38q75 0 124.5 38.5t49.5 103.5q0 50 -42 85
t-118 52q-73 -19 -115.5 -60.5t-42.5 -96.5q0 -63 43.5 -92.5t100.5 -29.5zM257 358q166 41 166 151q0 54 -38 81t-96 27q-59 0 -104 -32.5t-45 -94.5q0 -44 32 -81t85 -51z" />
    <glyph glyph-name="nine.LT" horiz-adv-x="513" 
d="M32 10l13 47q40 -19 88 -19q213 0 262 268h-2q-73 -56 -168 -56q-74 0 -123 47t-49 135q0 104 59.5 168t145.5 64q95 0 148.5 -65t53.5 -176q0 -216 -88.5 -324.5t-232.5 -108.5q-63 0 -107 20zM234 298q84 0 167 66q5 32 5 61q0 86 -39.5 139t-108.5 53
q-62 0 -105.5 -52t-43.5 -132q0 -63 32.5 -99t92.5 -36z" />
    <glyph glyph-name="Euro.LT" horiz-adv-x="513" 
d="M14 218l8 46h68v7q0 64 13 119h-73l8 46h77q35 104 108.5 166t172.5 62q78 0 129 -37l-11 -48q-55 37 -116 37q-80 0 -138 -49t-88 -131h266l-18 -46h-262q-12 -52 -12 -109v-17h252l-18 -46h-231q19 -180 157 -180q72 0 137 45l14 -45q-73 -48 -155 -48q-190 0 -210 228
h-78z" />
    <glyph glyph-name="dollar.LT" horiz-adv-x="513" 
d="M142 -78l21 96q-66 7 -111 37l19 45q52 -35 118 -35q60 0 100 30t40 98q0 35 -14.5 63t-36.5 45.5t-47 37.5t-47 38.5t-36.5 48t-14.5 65.5q0 68 45.5 110.5t118.5 47.5l18 89h50l-19 -91q48 -6 89 -26l-10 -48q-53 28 -115 28q-51 0 -87 -25.5t-36 -75.5q0 -36 20 -64
t49 -48.5t58 -43.5t49 -60.5t20 -87.5q0 -82 -48.5 -126.5t-122.5 -51.5l-20 -96h-50z" />
    <glyph glyph-name="plusinferior" horiz-adv-x="419" 
d="M132 -151v140h-132v44h132v136h45v-136h132v-44h-132v-140h-45z" />
    <glyph glyph-name="minusinferior" horiz-adv-x="419" 
d="M0 -11v44h309v-44h-309z" />
    <glyph glyph-name="equalinferior" horiz-adv-x="419" 
d="M0 -72v44h309v-44h-309zM0 50v44h309v-44h-309z" />
    <glyph glyph-name="five.LT" horiz-adv-x="513" 
d="M8 29l27 43q53 -34 121 -34q84 0 142 45t58 126q0 129 -172 129h-84l63 321h310l-13 -46h-252l-46 -228h33q106 0 161.5 -47.5t55.5 -125.5q0 -100 -70.5 -161t-182.5 -61q-91 0 -151 39z" />
    <glyph glyph-name="four.LT" horiz-adv-x="513" 
d="M263 0l37 181h-272l-7 48l390 435h42l-91 -437h98l-10 -46h-98l-37 -181h-52zM311 227l36 169q21 93 42 176l-308 -345h93h137z" />
    <glyph glyph-name="three.LT" horiz-adv-x="515" 
d="M8 29l27 43q56 -34 132 -34q45 0 86 13t74 50.5t33 92.5q0 63 -46 89.5t-132 26.5h-65l4 48h41q56 0 93 10q57 16 94 53.5t37 94.5q0 50 -33.5 75t-87.5 25q-72 0 -146 -37l-14 43q82 42 166 42q79 0 125 -40.5t46 -109.5q0 -123 -145 -175v-2q119 -25 119 -141
q0 -90 -69 -148t-178 -58q-91 0 -161 39z" />
    <glyph glyph-name="two.LT" horiz-adv-x="513" 
d="M12 0q11 73 37.5 131.5t60.5 96.5t73 69t75 54.5t66 47t48 53t18 65.5q0 48 -30 73.5t-82 25.5q-68 0 -154 -40l-14 44q86 44 172 44q72 0 118 -38.5t46 -105.5q0 -42 -17 -76t-45 -59.5t-63 -49t-72.5 -50.5t-70.5 -58t-60 -77.5t-40 -103.5h318l-10 -46h-374z" />
    <glyph glyph-name="Amacron.small" horiz-adv-x="470" 
d="M162 611l10 46h232l-10 -46h-232zM-35 0l291 534h29l111 -534h-54l-27 138h-221l-74 -138h-55zM119 184h187l-28 143q-13 69 -19 115h-2q-18 -38 -59 -113z" />
    <glyph glyph-name="Ccircumflex.small" horiz-adv-x="493" 
d="M258 -10q-97 0 -156.5 61t-59.5 162q0 134 80 230.5t209 96.5q74 0 137 -33l-15 -45q-58 30 -123 30q-94 0 -163 -75t-69 -201q0 -85 43.5 -131.5t117.5 -46.5q75 0 142 40l12 -46q-72 -42 -155 -42zM187 566l118 147h57l78 -147h-50l-59 109l-91 -109h-53z" />
    <glyph glyph-name="Abreve.small" horiz-adv-x="470" 
d="M274 581q-52 0 -78 30.5t-22 83.5h42q0 -71 62 -71t87 71h43q-11 -52 -46.5 -83t-87.5 -31zM-35 0l291 534h29l111 -534h-54l-27 138h-221l-74 -138h-55zM119 184h187l-28 143q-13 69 -19 115h-2q-18 -38 -59 -113z" />
    <glyph glyph-name="Ccaron.small" horiz-adv-x="493" 
d="M292 567l-78 147h50l59 -109l91 109h53l-118 -147h-57zM258 -10q-97 0 -156.5 61t-59.5 162q0 134 80 230.5t209 96.5q74 0 137 -33l-15 -45q-58 30 -123 30q-94 0 -163 -75t-69 -201q0 -85 43.5 -131.5t117.5 -46.5q75 0 142 40l12 -46q-72 -42 -155 -42z" />
    <glyph glyph-name="Cdotaccent.small" horiz-adv-x="493" 
d="M258 -10q-97 0 -156.5 61t-59.5 162q0 134 80 230.5t209 96.5q74 0 137 -33l-15 -45q-58 30 -123 30q-94 0 -163 -75t-69 -201q0 -85 43.5 -131.5t117.5 -46.5q75 0 142 40l12 -46q-72 -42 -155 -42zM327 618q-34 0 -34 33q0 20 13.5 33.5t31.5 13.5q34 0 34 -33
q0 -20 -13.5 -33.5t-31.5 -13.5z" />
    <glyph glyph-name="Ccedilla.small" horiz-adv-x="493" 
d="M109 -198l17 36q19 -11 47 -11t46 12t18 34q0 40 -81 36l40 88q-71 18 -112.5 75t-41.5 141q0 134 80 230.5t209 96.5q74 0 137 -33l-15 -45q-58 30 -123 30q-94 0 -163 -75t-69 -201q0 -85 43.5 -131.5t117.5 -46.5q75 0 142 40l12 -46q-85 -49 -173 -41l-21 -47
q32 -2 50 -20.5t18 -45.5q0 -44 -32.5 -67t-79.5 -23q-35 0 -66 14z" />
    <glyph glyph-name="Dcaron.small" horiz-adv-x="523" 
d="M259 567l-78 147h50l59 -109l91 109h53l-118 -147h-57zM20 0l111 530h98q110 0 178 -60t68 -162q0 -138 -90 -223t-241 -85h-124zM82 46h71q117 0 192 71t75 193q0 79 -51 126.5t-141 47.5h-55z" />
    <glyph glyph-name="Dcroat.small" horiz-adv-x="523" 
d="M20 0l51 246h-73l10 46h73l50 238h98q110 0 178 -60t68 -162q0 -138 -90 -223t-241 -85h-124zM82 46h71q117 0 192 71t75 193q0 79 -51 126.5t-141 47.5h-55l-40 -192h152l-10 -46h-152z" />
    <glyph glyph-name="Egrave.small" horiz-adv-x="412" 
d="M240 566l-73 147h67l50 -147h-44zM20 0l111 530h254l-19 -46h-194l-39 -192h191l-10 -46h-191l-41 -200h218l-10 -46h-270z" />
    <glyph glyph-name="Eacute.small" horiz-adv-x="412" 
d="M233 566l77 147h67l-100 -147h-44zM20 0l111 530h254l-19 -46h-194l-39 -192h191l-10 -46h-191l-41 -200h218l-10 -46h-270z" />
    <glyph glyph-name="Ecircumflex.small" horiz-adv-x="412" 
d="M20 0l111 530h254l-19 -46h-194l-39 -192h191l-10 -46h-191l-41 -200h218l-10 -46h-270zM137 566l118 147h57l78 -147h-50l-59 109l-91 -109h-53z" />
    <glyph glyph-name="Ecaron.small" horiz-adv-x="412" 
d="M231 567l-78 147h50l59 -109l91 109h53l-118 -147h-57zM20 0l111 530h254l-19 -46h-194l-39 -192h191l-10 -46h-191l-41 -200h218l-10 -46h-270z" />
    <glyph glyph-name="Edieresis.small" horiz-adv-x="412" 
d="M20 0l111 530h254l-19 -46h-194l-39 -192h191l-10 -46h-191l-41 -200h218l-10 -46h-270zM183 593q-31 0 -31 31q0 18 11.5 29.5t27.5 11.5q31 0 31 -31q0 -18 -11.5 -29.5t-27.5 -11.5zM353 593q-31 0 -31 31q0 18 11.5 29.5t27.5 11.5q31 0 31 -31q0 -18 -11.5 -29.5
t-27.5 -11.5z" />
    <glyph glyph-name="Emacron.small" horiz-adv-x="412" 
d="M153 611l10 46h232l-10 -46h-232zM20 0l111 530h254l-19 -46h-194l-39 -192h191l-10 -46h-191l-41 -200h218l-10 -46h-270z" />
    <glyph glyph-name="Aring.small" horiz-adv-x="470" 
d="M-35 0l291 533q-32 5 -52 28t-20 57q0 46 30 74t74 28q40 0 65 -23.5t25 -62.5q0 -44 -26.5 -71t-67.5 -31l112 -532h-54l-27 138h-221l-74 -138h-55zM119 184h187l-28 143q-13 69 -19 115h-2q-18 -38 -59 -113zM275 568q26 0 42.5 18.5t16.5 47.5q0 23 -12.5 36.5
t-34.5 13.5q-26 0 -42.5 -18.5t-16.5 -47.5q0 -23 12.5 -36.5t34.5 -13.5z" />
    <glyph glyph-name="Ebreve.small" horiz-adv-x="412" 
d="M261 581q-52 0 -78 30.5t-22 83.5h42q0 -71 62 -71t87 71h43q-11 -52 -46.5 -83t-87.5 -31zM20 0l111 530h254l-19 -46h-194l-39 -192h191l-10 -46h-191l-41 -200h218l-10 -46h-270z" />
    <glyph glyph-name="Aringacute.small" horiz-adv-x="470" 
d="M-35 0l291 533q-32 5 -52 28t-20 57q0 46 29.5 73.5t72.5 28.5l62 123h67l-88 -130q51 -21 51 -79q0 -44 -26.5 -71t-67.5 -31l112 -532h-54l-27 138h-221l-74 -138h-55zM119 184h187l-28 143q-13 69 -19 115h-2q-18 -38 -59 -113zM275 568q26 0 42.5 18.5t16.5 47.5
q0 23 -12.5 36.5t-34.5 13.5q-26 0 -42.5 -18.5t-16.5 -47.5q0 -23 12.5 -36.5t34.5 -13.5z" />
    <glyph glyph-name="Aogonek.small" horiz-adv-x="470" 
d="M-35 0l292 534h27l112 -534q-141 -66 -141 -135q0 -35 35 -35q15 0 39 8l6 -40q-33 -10 -58 -10q-38 0 -55 19t-17 48q0 91 134 157l-24 126h-221l-74 -138h-55zM119 184h187l-28 143q-13 69 -19 115h-2q-18 -38 -59 -113z" />
    <glyph glyph-name="Edotaccent.small" horiz-adv-x="412" 
d="M20 0l111 530h254l-19 -46h-194l-39 -192h191l-10 -46h-191l-41 -200h218l-10 -46h-270zM266 618q-34 0 -34 33q0 20 13.5 33.5t31.5 13.5q34 0 34 -33q0 -20 -13.5 -33.5t-31.5 -13.5z" />
    <glyph glyph-name="Eogonek.small" horiz-adv-x="412" 
d="M20 0l111 530h254l-19 -46h-194l-39 -192h191l-10 -46h-191l-41 -200h218l-10 -46h-11q-139 -65 -139 -135q0 -35 35 -35q15 0 39 8l6 -40q-33 -10 -58 -10q-38 0 -55 19t-17 48q0 81 115 145h-185z" />
    <glyph glyph-name="Gcircumflex.small" horiz-adv-x="534" 
d="M265 -10q-103 0 -163 63t-60 167q0 131 83 225.5t209 94.5q82 0 145 -33l-15 -45q-55 30 -128 30q-95 0 -166.5 -74t-71.5 -196q0 -86 44.5 -135.5t124.5 -49.5q59 0 99 21l40 190h52l-47 -222q-73 -36 -146 -36zM193 566l118 147h57l78 -147h-50l-59 109l-91 -109h-53z
" />
    <glyph glyph-name="Gbreve.small" horiz-adv-x="534" 
d="M326 581q-52 0 -78 30.5t-22 83.5h42q0 -71 62 -71t87 71h43q-11 -52 -46.5 -83t-87.5 -31zM265 -10q-103 0 -163 63t-60 167q0 131 83 225.5t209 94.5q82 0 145 -33l-15 -45q-55 30 -128 30q-95 0 -166.5 -74t-71.5 -196q0 -86 44.5 -135.5t124.5 -49.5q59 0 99 21
l40 190h52l-47 -222q-73 -36 -146 -36z" />
    <glyph glyph-name="Gdotaccent.small" horiz-adv-x="534" 
d="M265 -10q-103 0 -163 63t-60 167q0 131 83 225.5t209 94.5q82 0 145 -33l-15 -45q-55 30 -128 30q-95 0 -166.5 -74t-71.5 -196q0 -86 44.5 -135.5t124.5 -49.5q59 0 99 21l40 190h52l-47 -222q-73 -36 -146 -36zM337 618q-34 0 -34 33q0 20 13.5 33.5t31.5 13.5
q34 0 34 -33q0 -20 -13.5 -33.5t-31.5 -13.5z" />
    <glyph glyph-name="Gcommaaccent.small" horiz-adv-x="534" 
d="M265 -10q-103 0 -163 63t-60 167q0 131 83 225.5t209 94.5q82 0 145 -33l-15 -45q-55 30 -128 30q-95 0 -166.5 -74t-71.5 -196q0 -86 44.5 -135.5t124.5 -49.5q59 0 99 21l40 190h52l-47 -222q-73 -36 -146 -36zM157 -237l-15 39q89 27 89 91q0 24 -13 55h50
q14 -21 14 -58q0 -44 -31.5 -77t-93.5 -50z" />
    </font>
</defs>
</svg>
